<?xml version="1.0" encoding="UTF-8"?>
<svg id="Layer_2" data-name="Layer 2" xmlns="http://www.w3.org/2000/svg" viewBox="0 0 413.89 400.03">
  <defs>
    <style>
      .cls-1 {
        fill: #68bf57;
      }

      .cls-1, .cls-2, .cls-3 {
        stroke-width: 0px;
      }

      .cls-2 {
        fill: #348f41;
      }

      .cls-3 {
        fill: #348e42;
      }
    </style>
  </defs>
  <g id="_Ñëîé_2" data-name="Ñëîé 2">
    <g>
      <path class="cls-1" d="m159.34.59s-56.78,0-92.03,31.33C32.06,63.25,10.52,174.86,2.69,243.39c-7.83,68.53,3.92,156.65,3.92,156.65l47.08-1.9s3.92-88.11,11.75-150.77c7.83-62.66,25.37-97.96,25.37-97.96l15.75,231.11,101.74,1.9V65.27C169.04,51.56,159.34.59,159.34.59Z"/>
      <path class="cls-2" d="m91.6,151.25c-.06,0-.13,0-.19-.01-.85-.1-1.46-.88-1.36-1.73,5.3-43.95,1.85-87.82-9.98-126.87-.25-.82.22-1.69,1.04-1.94.82-.25,1.69.22,1.94,1.04,11.95,39.46,15.44,83.77,10.09,128.15-.1.79-.77,1.37-1.54,1.37Z"/>
      <path class="cls-1" d="m254.55.59s56.78,0,92.03,31.33c35.25,31.33,56.78,142.94,64.62,211.47,7.83,68.53-3.92,156.65-3.92,156.65l-47.08-1.9s-3.92-88.11-11.75-150.77c-7.83-62.66-25.37-97.96-25.37-97.96l-15.75,231.11-101.74,1.9V65.27C244.84,51.56,254.55.59,254.55.59Z"/>
      <path class="cls-2" d="m323.08,151.76c-.78,0-1.45-.58-1.54-1.37-5.52-45.84-2.31-90.34,9.3-128.67.25-.82,1.11-1.29,1.94-1.04.82.25,1.29,1.12,1.04,1.94-11.48,37.92-14.66,81.97-9.18,127.39.1.85-.51,1.63-1.36,1.73-.06,0-.13.01-.19.01Z"/>
      <path class="cls-2" d="m221.73,382.5l-3.91-.18,13.95-311.08c-4.48.06-14.98-.57-27.29-6.73-14.66-7.34-34.72-24.28-47.02-63.34l3.73-1.18c9.37,29.77,24.87,50.83,44.81,60.9,15.03,7.59,27.47,6.35,27.59,6.33.56-.06,1.14.13,1.55.52.42.39.64.94.62,1.52l-14.05,313.23Z"/>
      <g>
        <path class="cls-3" d="m210.33,84.85c0-2.16,1.75-3.92,3.92-3.92s3.92,1.75,3.92,3.92-1.75,3.92-3.92,3.92-3.92-1.75-3.92-3.92Z"/>
        <circle class="cls-3" cx="212.29" cy="123.73" r="3.92"/>
        <circle class="cls-3" cx="210.33" cy="162.61" r="3.92"/>
        <circle class="cls-3" cx="208.37" cy="201.49" r="3.92"/>
        <circle class="cls-3" cx="206.41" cy="240.37" r="3.92"/>
        <path class="cls-3" d="m200.54,279.25c0-2.16,1.75-3.92,3.92-3.92s3.92,1.75,3.92,3.92-1.75,3.92-3.92,3.92-3.92-1.75-3.92-3.92Z"/>
        <path class="cls-3" d="m198.58,318.14c0-2.16,1.75-3.92,3.92-3.92s3.92,1.75,3.92,3.92-1.75,3.92-3.92,3.92-3.92-1.75-3.92-3.92Z"/>
        <path class="cls-3" d="m196.62,357.02c0-2.16,1.75-3.92,3.92-3.92s3.92,1.75,3.92,3.92-1.75,3.92-3.92,3.92-3.92-1.75-3.92-3.92Z"/>
      </g>
      <path class="cls-2" d="m4.73,378.56c-1.05,0-1.92-.83-1.96-1.89-.04-1.08.81-1.99,1.89-2.02l49.49-1.65c1.08.02,1.99.81,2.02,1.89.04,1.08-.81,1.99-1.89,2.02l-49.49,1.65s-.04,0-.07,0Z"/>
      <path class="cls-2" d="m410.05,378.56s-.07,0-.11,0l-50.12-2.69c-1.08-.06-1.91-.98-1.85-2.06.06-1.08.94-1.91,2.06-1.85l50.12,2.69c1.08.06,1.91.98,1.85,2.06-.06,1.04-.92,1.85-1.95,1.85Z"/>
    </g>
  </g>
</svg>