<?xml version="1.0" encoding="UTF-8"?>
<svg id="Layer_2" data-name="Layer 2" xmlns="http://www.w3.org/2000/svg" viewBox="0 0 276.86 716.65">
  <defs>
    <style>
      .cls-1 {
        fill: #0098dc;
      }

      .cls-1, .cls-2, .cls-3, .cls-4 {
        stroke-width: 0px;
      }

      .cls-2 {
        fill: #2eb8e8;
      }

      .cls-3 {
        fill: #d76150;
      }

      .cls-4 {
        fill: #3669b2;
      }
    </style>
  </defs>
  <g id="_Ñëîé_2" data-name="Ñëîé 2">
    <g>
      <path class="cls-1" d="m238.56,0s-63.68,3.65-100.13,4.41C101.97,3.65,38.3,0,38.3,0,38.3,0,0,51.36,0,164.22s15.63,534.1,15.63,534.1l86.12-2.35,38.95-527.8,34.4,527.8,86.12,2.35s15.63-421.24,15.63-534.1S238.56,0,238.56,0Z"/>
      <path class="cls-4" d="m140.68,26.46c-.64,0-1.15-.52-1.15-1.15s.52-1.15,1.15-1.15c52.53,0,105.18-9.61,105.7-9.71.63-.13,1.23.3,1.34.92.12.63-.3,1.23-.92,1.34-.53.1-53.37,9.75-106.12,9.75Z"/>
      <path class="cls-4" d="m270.42,95.07c-.73,0-2.24-.23-5.76-.98-.62-.13-1.02-.75-.89-1.37.13-.62.76-1.03,1.37-.89,3.35.71,5.43.97,5.45.97l-.13,1.14.73.9c-.15.12-.28.22-.77.22Zm-12.24-2.64c-.11,0-.21-.02-.32-.05-2.28-.66-4.52-1.41-6.67-2.21-.6-.23-.9-.89-.67-1.49.23-.6.89-.9,1.49-.67,2.09.79,4.27,1.51,6.49,2.16.61.18.97.82.79,1.43-.15.5-.61.83-1.11.83Zm-12.95-4.91c-.17,0-.34-.04-.5-.12-2.19-1.07-4.27-2.22-6.17-3.43-.54-.34-.7-1.06-.35-1.59.34-.54,1.05-.7,1.59-.35,1.83,1.16,3.83,2.27,5.94,3.3.57.28.81.97.53,1.54-.2.41-.61.65-1.04.65Zm-11.62-7.48c-.27,0-.54-.09-.75-.28-1.86-1.61-3.53-3.33-4.96-5.11-.4-.5-.32-1.22.18-1.62.5-.4,1.22-.32,1.62.18,1.34,1.67,2.91,3.29,4.67,4.81.48.42.54,1.14.12,1.63-.23.26-.55.4-.87.4Zm-8.63-10.73c-.4,0-.79-.21-1-.58-1.13-1.98-2.21-4.08-3.21-6.25-.27-.58-.01-1.26.57-1.53.57-.27,1.26-.02,1.53.57.97,2.1,2.02,4.14,3.12,6.07.32.55.12,1.26-.43,1.58-.18.1-.38.15-.57.15Zm-5.82-12.55c-.47,0-.91-.29-1.08-.75-.79-2.12-1.54-4.35-2.22-6.64-.18-.61.16-1.25.78-1.44.61-.18,1.25.16,1.44.78.67,2.24,1.4,4.43,2.17,6.5.22.6-.08,1.26-.68,1.48-.13.05-.27.07-.4.07Zm-3.99-13.26c-.52,0-1-.36-1.12-.89-.53-2.25-1.01-4.56-1.42-6.85-.11-.63.3-1.23.93-1.34.61-.11,1.23.3,1.34.93.4,2.25.88,4.51,1.4,6.72.15.62-.24,1.24-.86,1.39-.09.02-.18.03-.27.03Zm-2.46-13.64c-.57,0-1.07-.43-1.14-1.01-.54-4.27-.64-6.9-.65-7.01-.03-.64.47-1.17,1.11-1.2.63-.07,1.17.47,1.2,1.11,0,.03.11,2.65.63,6.82.08.63-.37,1.21-1,1.29-.05,0-.1,0-.14,0Z"/>
      <path class="cls-4" d="m268.39,81.61c-.06,0-.13,0-.19-.02-1.27-.21-31.18-5.36-40.18-24.05-6.83-14.18-6.91-36.02-6.91-36.94,0-.64.52-1.15,1.15-1.15s1.15.52,1.15,1.15c0,.22.08,22.24,6.68,35.94,8.48,17.61,38.18,22.72,38.48,22.77.63.1,1.05.7.95,1.33-.09.57-.58.97-1.14.97Z"/>
      <path class="cls-4" d="m251.72,695.73c-.64,0-1.15-.52-1.15-1.15v-6.95c0-.64.52-1.15,1.15-1.15s1.15.52,1.15,1.15v6.95c0,.64-.52,1.15-1.15,1.15Zm0-13.89c-.64,0-1.15-.52-1.15-1.15v-6.94c0-.64.52-1.15,1.15-1.15s1.15.52,1.15,1.15v6.94c0,.64-.52,1.15-1.15,1.15Zm0-13.88c-.64,0-1.15-.52-1.15-1.15v-6.94c0-.64.52-1.15,1.15-1.15s1.15.52,1.15,1.15v6.94c0,.64-.52,1.15-1.15,1.15Zm0-13.87c-.64,0-1.15-.52-1.15-1.15v-6.94c0-.64.52-1.15,1.15-1.15s1.15.52,1.15,1.15v6.94c0,.64-.52,1.15-1.15,1.15Zm0-13.87c-.64,0-1.15-.52-1.15-1.15v-6.94c0-.64.52-1.15,1.15-1.15s1.15.52,1.15,1.15v6.94c0,.64-.52,1.15-1.15,1.15Zm0-13.87c-.64,0-1.15-.52-1.15-1.15v-6.93c0-.64.52-1.15,1.15-1.15s1.15.52,1.15,1.15v6.93c0,.64-.52,1.15-1.15,1.15Zm0-13.87c-.64,0-1.15-.52-1.15-1.15v-6.92c0-.64.52-1.15,1.15-1.15s1.15.52,1.15,1.15v6.92c0,.64-.52,1.15-1.15,1.15Zm0-13.86c-.64,0-1.15-.52-1.15-1.15v-6.94c0-.64.52-1.15,1.15-1.15s1.15.52,1.15,1.15v6.94c0,.64-.52,1.15-1.15,1.15Zm0-13.87c-.64,0-1.15-.52-1.15-1.15v-6.93c0-.64.52-1.15,1.15-1.15s1.15.52,1.15,1.15v6.93c0,.64-.52,1.15-1.15,1.15Zm0-13.87c-.64,0-1.15-.52-1.15-1.15v-3.66c0-1.02,0-2.12.01-3.27,0-.63.52-1.15,1.15-1.15h0c.64,0,1.15.53,1.15,1.16,0,1.15-.01,2.24-.01,3.26v3.66c0,.64-.52,1.15-1.15,1.15Zm.11-13.88h-.02c-.64-.01-1.15-.54-1.13-1.18.04-2.17.09-4.49.16-6.95.02-.64.6-1.12,1.18-1.13.64.02,1.14.55,1.13,1.18-.06,2.45-.11,4.77-.16,6.94-.01.63-.53,1.13-1.15,1.13Zm.35-13.88h-.03c-.64-.02-1.14-.55-1.12-1.19.07-2.23.14-4.54.22-6.94.02-.64.49-1.11,1.19-1.12.64.02,1.14.56,1.12,1.19-.08,2.39-.15,4.71-.22,6.93-.02.62-.53,1.12-1.15,1.12Zm.45-13.87h-.04c-.64-.02-1.13-.56-1.11-1.2l.25-6.93c.02-.63.48-1.16,1.2-1.11.64.02,1.13.56,1.11,1.2l-.25,6.93c-.02.62-.53,1.11-1.15,1.11Zm.51-13.86s-.03,0-.04,0c-.64-.02-1.13-.56-1.11-1.2l.27-6.93c.02-.64.62-1.19,1.2-1.11.64.02,1.13.56,1.11,1.2l-.27,6.93c-.02.62-.54,1.11-1.15,1.11Zm.54-13.86s-.03,0-.05,0c-.64-.03-1.13-.56-1.11-1.2l.28-6.93c.02-.64.57-1.19,1.2-1.11.64.03,1.13.56,1.11,1.2l-.28,6.93c-.02.62-.54,1.11-1.15,1.11Zm.57-13.85s-.03,0-.05,0c-.64-.03-1.13-.56-1.1-1.2l.29-6.93c.03-.64.49-1.16,1.2-1.1.64.03,1.13.56,1.1,1.2l-.29,6.93c-.03.62-.54,1.11-1.15,1.11Zm.59-13.85s-.03,0-.05,0c-.64-.03-1.13-.57-1.1-1.2l.3-6.93c.03-.64.62-1.15,1.2-1.1.64.03,1.13.57,1.1,1.2l-.3,6.93c-.03.62-.54,1.1-1.15,1.1Zm.6-13.85s-.03,0-.05,0c-.64-.03-1.13-.57-1.1-1.2l.31-6.93c.03-.64.57-1.18,1.2-1.1.64.03,1.13.57,1.1,1.2l-.31,6.92c-.03.62-.54,1.1-1.15,1.1Zm.61-13.85s-.03,0-.05,0c-.64-.03-1.13-.57-1.1-1.2l.31-6.93c.03-.64.56-1.16,1.2-1.1.64.03,1.13.57,1.1,1.2l-.31,6.93c-.03.62-.54,1.1-1.15,1.1Zm.62-13.85s-.04,0-.05,0c-.64-.03-1.13-.57-1.1-1.2l.31-6.92c.03-.64.56-1.19,1.2-1.1.64.03,1.13.57,1.1,1.2l-.31,6.92c-.03.62-.54,1.1-1.15,1.1Zm.62-13.85s-.03,0-.05,0c-.64-.03-1.13-.57-1.1-1.2l.31-6.94c.03-.64.62-1.15,1.2-1.1.64.03,1.13.57,1.1,1.2l-.31,6.94c-.03.62-.54,1.1-1.15,1.1Zm.63-13.88s-.03,0-.05,0c-.64-.03-1.13-.57-1.1-1.2l.31-6.92c.03-.64.57-1.18,1.2-1.1.64.03,1.13.57,1.1,1.2l-.31,6.92c-.03.62-.54,1.1-1.15,1.1Zm.62-13.82s-.04,0-.05,0c-.64-.03-1.13-.57-1.1-1.2l.31-6.92c.03-.64.56-1.18,1.2-1.1.64.03,1.13.57,1.1,1.2l-.31,6.92c-.03.62-.54,1.1-1.15,1.1Zm.62-13.85s-.04,0-.05,0c-.64-.03-1.13-.57-1.1-1.2l.31-6.93c.03-.64.57-1.16,1.2-1.1.64.03,1.13.57,1.1,1.2l-.31,6.93c-.03.62-.54,1.1-1.15,1.1Zm.62-13.85s-.03,0-.05,0c-.64-.03-1.13-.57-1.1-1.2l.31-6.92c.03-.64.61-1.14,1.2-1.1.64.03,1.13.57,1.1,1.2l-.31,6.93c-.03.62-.54,1.1-1.15,1.1Zm.61-13.85s-.03,0-.05,0c-.64-.03-1.13-.57-1.1-1.2l.3-6.93c.03-.64.63-1.17,1.2-1.1.64.03,1.13.57,1.1,1.2l-.3,6.93c-.03.62-.54,1.1-1.15,1.1Zm.6-13.86s-.03,0-.05,0c-.64-.03-1.13-.56-1.1-1.2l.29-6.93c.03-.64.56-1.16,1.2-1.1.64.03,1.13.56,1.1,1.2l-.29,6.93c-.03.62-.54,1.11-1.15,1.11Zm.58-13.85s-.03,0-.05,0c-.64-.03-1.13-.56-1.11-1.2l.28-6.93c.02-.64.54-1.21,1.2-1.11.64.02,1.13.56,1.11,1.2l-.28,6.93c-.02.62-.54,1.11-1.15,1.11Zm.56-13.86s-.03,0-.05,0c-.64-.02-1.13-.56-1.11-1.2l.26-6.93c.02-.64.56-1.18,1.2-1.11.64.02,1.13.56,1.11,1.2l-.26,6.93c-.02.62-.54,1.11-1.15,1.11Zm.52-13.86s-.03,0-.04,0c-.64-.02-1.13-.56-1.11-1.19.08-2.38.16-4.7.24-6.93.02-.62.53-1.12,1.15-1.12h.04c.64.02,1.14.56,1.12,1.19-.07,2.24-.16,4.55-.24,6.94-.02.62-.53,1.11-1.15,1.11Zm.46-13.87h-.03c-.64-.02-1.14-.55-1.12-1.19.07-2.43.14-4.74.2-6.93.02-.64.51-1.14,1.18-1.13.64.02,1.14.55,1.13,1.18-.06,2.2-.12,4.51-.2,6.95-.02.62-.53,1.12-1.15,1.12Zm.36-15.04l-1.15-.02,1.16-.22-1.15-.02c.04-2.14.07-4.37.09-6.67,0-.63.52-1.14,1.15-1.14h.01c.64,0,1.15.53,1.14,1.16-.02,2.31-.05,4.55-.09,6.7l-1.16.22Zm.13-12.69h0c-.64,0-1.15-.52-1.15-1.16v-1.32c0-1.83,0-3.7-.01-5.6,0-.64.51-1.16,1.15-1.16h0c.64,0,1.15.51,1.15,1.15,0,1.91.01,3.78.01,5.61v1.33c0,.64-.52,1.15-1.16,1.15Zm-.06-13.86c-.63,0-1.15-.51-1.15-1.14-.02-2.27-.05-4.58-.09-6.93,0-.64.5-1.16,1.14-1.17h.02c.63,0,1.15.51,1.15,1.14.03,2.35.06,4.66.09,6.94,0,.64-.5,1.16-1.14,1.17h-.01Zm-.19-13.87c-.63,0-1.14-.5-1.15-1.13-.04-2.29-.09-4.6-.14-6.93-.01-.64.49-1.16,1.13-1.18h.02c.63,0,1.14.5,1.15,1.13.05,2.33.09,4.65.14,6.94.01.64-.5,1.16-1.13,1.18h-.02Zm-.29-13.86c-.62,0-1.14-.5-1.15-1.13-.05-2.3-.11-4.61-.17-6.93-.02-.64.49-1.17,1.12-1.18h.03c.62,0,1.14.5,1.15,1.12.06,2.32.12,4.63.17,6.93.02.64-.49,1.17-1.13,1.18h-.03Zm-.36-13.86c-.62,0-1.14-.5-1.15-1.12l-.2-6.93c-.02-.64.48-1.17,1.12-1.19h.03c.62,0,1.13.49,1.15,1.12l.2,6.93c.02.64-.48,1.17-1.12,1.19h-.03Zm-.42-13.87c-.62,0-1.13-.49-1.15-1.12l-.23-6.92c-.02-.64.48-1.17,1.11-1.19h.04c.62,0,1.13.49,1.15,1.11l.23,6.92c.02.64-.48,1.17-1.12,1.19h-.04Zm-.47-13.85c-.62,0-1.13-.49-1.15-1.11l-.25-6.93c-.02-.64.47-1.17,1.11-1.2.01,0,.03,0,.04,0,.62,0,1.13.49,1.15,1.11l.25,6.93c.02.64-.47,1.17-1.11,1.19-.01,0-.03,0-.04,0Zm-.52-13.86c-.62,0-1.13-.49-1.15-1.11l-.27-6.93c-.03-.64.47-1.17,1.11-1.2.57-.07,1.17.47,1.2,1.11l.27,6.93c.02.64-.47,1.17-1.11,1.2-.02,0-.03,0-.04,0Zm-.56-13.86c-.61,0-1.13-.49-1.15-1.11l-.29-6.93c-.03-.64.47-1.18,1.1-1.2.63-.07,1.17.47,1.2,1.1l.29,6.93c.03.64-.47,1.17-1.11,1.2-.02,0-.03,0-.05,0Zm-.59-13.86c-.61,0-1.12-.48-1.15-1.1l-.31-6.93c-.03-.64.46-1.18,1.1-1.2.63-.05,1.18.46,1.2,1.1l.31,6.93c.03.64-.47,1.18-1.1,1.2-.02,0-.03,0-.05,0Zm-.62-13.86c-.61,0-1.12-.48-1.15-1.1l-.32-6.93c-.03-.64.46-1.18,1.1-1.21.63-.05,1.18.46,1.21,1.1l.32,6.93c.03.64-.46,1.18-1.1,1.21-.02,0-.04,0-.05,0Zm-.65-13.86c-.61,0-1.12-.48-1.15-1.1l-.34-6.93c-.03-.64.46-1.18,1.09-1.21.64-.04,1.18.46,1.21,1.09l.34,6.94c.03.64-.46,1.18-1.1,1.21-.02,0-.04,0-.06,0Zm-.69-13.87c-.61,0-1.12-.48-1.15-1.1-.23-4.46-.36-6.96-.36-6.96-.03-.64.45-1.18,1.09-1.22.63-.06,1.18.45,1.22,1.09,0,0,.13,2.5.36,6.96.03.64-.46,1.18-1.09,1.21-.02,0-.04,0-.06,0Z"/>
      <path class="cls-4" d="m136.18,26.46c-52.75,0-105.7-9.14-106.23-9.23-.63-.11-1.05-.71-.94-1.34.11-.63.71-1.04,1.34-.94.53.09,53.29,9.2,105.83,9.2.64,0,1.15.52,1.15,1.15s-.52,1.15-1.15,1.15Z"/>
      <g>
        <path class="cls-4" d="m124.85,9.53c-.54,0-.98-.44-.98-.98v-2.94c0-.54.44-.98.98-.98s.98.44.98.98v2.94c0,.54-.44.98-.98.98Z"/>
        <path class="cls-4" d="m132.17,83.98c-.06,0-.12,0-.18-.02-2.14-.39-4.04-1.28-5.49-2.55-.41-.36-.45-.97-.09-1.38.36-.41.97-.45,1.38-.09,1.17,1.03,2.79,1.77,4.56,2.1.53.1.88.61.78,1.14-.09.47-.5.8-.96.8Zm-7.32-7.22c-.54,0-.98-.44-.98-.98v-5.6c0-.54.44-.98.98-.98s.98.44.98.98v5.6c0,.54-.44.98-.98.98Zm0-11.2c-.54,0-.98-.44-.98-.98v-5.6c0-.54.44-.98.98-.98s.98.44.98.98v5.6c0,.54-.44.98-.98.98Zm0-11.2c-.54,0-.98-.44-.98-.98v-5.6c0-.54.44-.98.98-.98s.98.44.98.98v5.6c0,.54-.44.98-.98.98Zm0-11.2c-.54,0-.98-.44-.98-.98v-5.6c0-.54.44-.98.98-.98s.98.44.98.98v5.6c0,.54-.44.98-.98.98Zm0-11.2c-.54,0-.98-.44-.98-.98v-5.6c0-.54.44-.98.98-.98s.98.44.98.98v5.6c0,.54-.44.98-.98.98Zm0-11.2c-.54,0-.98-.44-.98-.98v-5.6c0-.54.44-.98.98-.98s.98.44.98.98v5.6c0,.54-.44.98-.98.98Z"/>
        <path class="cls-4" d="m140.72,84.18h-2.94c-.54,0-.98-.44-.98-.98s.44-.98.98-.98h2.94c.54,0,.98.44.98.98s-.44.98-.98.98Z"/>
      </g>
      <path class="cls-4" d="m5.75,96.09c-.46,0-.58-.1-.71-.2l.71-.91-.16-1.14s2.5-.38,6.36-1.34c.62-.15,1.25.23,1.4.84.15.62-.22,1.25-.84,1.4-4.27,1.06-5.99,1.34-6.76,1.34Zm13.16-3.21c-.49,0-.94-.31-1.1-.8-.19-.61.14-1.26.75-1.45,2.21-.71,4.38-1.49,6.44-2.33.6-.23,1.26.05,1.5.64.24.59-.05,1.26-.64,1.5-2.11.85-4.33,1.65-6.6,2.38-.12.04-.24.05-.35.05Zm12.83-5.21c-.42,0-.83-.23-1.03-.63-.29-.57-.06-1.26.5-1.55,2.1-1.07,4.08-2.21,5.89-3.4.53-.35,1.25-.2,1.6.33.35.53.2,1.25-.33,1.6-1.89,1.23-3.94,2.42-6.11,3.52-.17.09-.35.13-.52.13Zm11.54-7.62c-.32,0-.64-.13-.87-.4-.42-.48-.37-1.21.11-1.63,1.76-1.53,3.32-3.16,4.66-4.82.4-.5,1.12-.58,1.62-.18.5.4.58,1.13.18,1.62-1.42,1.78-3.09,3.5-4.94,5.12-.22.19-.49.28-.76.28Zm8.61-10.74c-.19,0-.39-.05-.57-.15-.55-.32-.75-1.02-.43-1.58,1.1-1.92,2.15-3.96,3.12-6.07.27-.58.96-.83,1.53-.56.58.27.83.95.57,1.53-1,2.17-2.08,4.27-3.21,6.25-.21.37-.6.58-1,.58Zm5.82-12.56c-.13,0-.27-.02-.4-.07-.6-.22-.9-.89-.68-1.48.78-2.09,1.51-4.27,2.17-6.5.18-.61.83-.96,1.44-.78.61.18.96.83.78,1.44-.68,2.27-1.43,4.51-2.22,6.64-.17.46-.61.75-1.08.75Zm3.99-13.26c-.09,0-.18,0-.27-.03-.62-.15-1-.77-.86-1.39.52-2.21.99-4.48,1.4-6.72.11-.63.72-1.04,1.34-.93.63.11,1.04.71.93,1.34-.41,2.29-.89,4.6-1.42,6.85-.13.53-.6.89-1.12.89Zm2.46-13.64s-.1,0-.14,0c-.63-.08-1.08-.66-1-1.29.52-4.17.63-6.79.63-6.82.02-.64.57-1.18,1.2-1.11.64.03,1.13.56,1.11,1.2,0,.11-.11,2.74-.65,7.01-.07.58-.57,1.01-1.14,1.01Z"/>
      <path class="cls-4" d="m8.87,83.69c-.52,0-1-.36-1.12-.89-.15-.62.24-1.24.86-1.39.3-.07,29.65-7.21,38.16-24.86,6.6-13.7,6.68-35.72,6.68-35.94,0-.64.52-1.15,1.15-1.15h0c.64,0,1.15.52,1.15,1.15,0,.92-.08,22.76-6.91,36.94-8.98,18.64-38.45,25.81-39.7,26.11-.09.02-.18.03-.27.03Z"/>
      <path class="cls-4" d="m140.19,174.52h0c-.64,0-1.15-.52-1.15-1.16l.53-167.74c0-.64.52-1.15,1.15-1.15h0c.64,0,1.15.52,1.15,1.16l-.53,167.74c0,.64-.52,1.15-1.15,1.15Z"/>
      <path class="cls-3" d="m128.25,14.73c0-2.6,2.03-4.7,4.53-4.7s4.53,2.11,4.53,4.7-2.03,4.7-4.53,4.7-4.53-2.11-4.53-4.7Z"/>
      <path class="cls-4" d="m167.18,25.56c-.63,0-1.15-.51-1.15-1.15l-.12-20.25c0-.64.51-1.16,1.15-1.16.69-.05,1.16.51,1.16,1.15l.12,20.25c0,.64-.51,1.16-1.15,1.16h0Z"/>
      <path class="cls-4" d="m25.14,695.73c-.64,0-1.15-.52-1.15-1.15v-6.95c0-.64.52-1.15,1.15-1.15s1.15.52,1.15,1.15v6.95c0,.64-.52,1.15-1.15,1.15Zm0-13.89c-.64,0-1.15-.52-1.15-1.15v-6.94c0-.64.52-1.15,1.15-1.15s1.15.52,1.15,1.15v6.94c0,.64-.52,1.15-1.15,1.15Zm0-13.88c-.64,0-1.15-.52-1.15-1.15v-6.94c0-.64.52-1.15,1.15-1.15s1.15.52,1.15,1.15v6.94c0,.64-.52,1.15-1.15,1.15Zm0-13.87c-.64,0-1.15-.52-1.15-1.15v-6.94c0-.64.52-1.15,1.15-1.15s1.15.52,1.15,1.15v6.94c0,.64-.52,1.15-1.15,1.15Zm0-13.87c-.64,0-1.15-.52-1.15-1.15v-6.94c0-.64.52-1.15,1.15-1.15s1.15.52,1.15,1.15v6.94c0,.64-.52,1.15-1.15,1.15Zm0-13.87c-.64,0-1.15-.52-1.15-1.15v-6.93c0-.64.52-1.15,1.15-1.15s1.15.52,1.15,1.15v6.93c0,.64-.52,1.15-1.15,1.15Zm0-13.87c-.64,0-1.15-.52-1.15-1.15v-6.92c0-.64.52-1.15,1.15-1.15s1.15.52,1.15,1.15v6.92c0,.64-.52,1.15-1.15,1.15Zm0-13.86c-.64,0-1.15-.52-1.15-1.15v-6.94c0-.64.52-1.15,1.15-1.15s1.15.52,1.15,1.15v6.94c0,.64-.52,1.15-1.15,1.15Zm0-13.87c-.64,0-1.15-.52-1.15-1.15v-6.93c0-.64.52-1.15,1.15-1.15s1.15.52,1.15,1.15v6.93c0,.64-.52,1.15-1.15,1.15Zm0-13.87c-.64,0-1.15-.52-1.15-1.15v-3.66c0-1.02,0-2.1-.02-3.26,0-.64.51-1.16,1.14-1.16h0c.63,0,1.15.51,1.15,1.15,0,1.16.02,2.25.02,3.28v3.66c0,.64-.52,1.15-1.15,1.15Zm-.12-13.88c-.63,0-1.14-.5-1.15-1.13-.04-2.17-.09-4.48-.16-6.94-.02-.64.49-1.17,1.12-1.18.67-.03,1.17.49,1.18,1.13.06,2.46.12,4.78.16,6.95.01.64-.49,1.16-1.13,1.18h-.02Zm-.35-13.88c-.62,0-1.13-.49-1.15-1.12-.07-2.22-.14-4.54-.22-6.93-.02-.64.48-1.17,1.12-1.19.63.02,1.17.48,1.19,1.12.08,2.4.15,4.71.22,6.94.02.64-.48,1.17-1.12,1.19h-.03Zm-.45-13.87c-.62,0-1.13-.49-1.15-1.11l-.25-6.93c-.02-.64.47-1.17,1.11-1.2.65-.07,1.17.47,1.2,1.11l.25,6.94c.02.64-.48,1.17-1.11,1.19h-.04Zm-.51-13.86c-.62,0-1.13-.49-1.15-1.11l-.27-6.93c-.03-.64.47-1.17,1.11-1.2.68-.02,1.17.47,1.2,1.11l.27,6.93c.02.64-.47,1.17-1.11,1.2-.02,0-.03,0-.04,0Zm-.55-13.86c-.62,0-1.13-.49-1.15-1.11l-.28-6.93c-.03-.64.47-1.17,1.11-1.2.66-.08,1.17.47,1.2,1.11l.28,6.93c.03.64-.47,1.17-1.11,1.2-.02,0-.03,0-.05,0Zm-.57-13.85c-.62,0-1.13-.49-1.15-1.11l-.29-6.93c-.03-.64.47-1.18,1.1-1.2.62-.08,1.17.47,1.2,1.1l.29,6.93c.03.64-.47,1.18-1.1,1.2-.02,0-.03,0-.05,0Zm-.59-13.85c-.62,0-1.13-.49-1.15-1.11l-.3-6.92c-.03-.64.47-1.18,1.1-1.2.63-.09,1.18.47,1.2,1.1l.3,6.93c.03.64-.47,1.17-1.1,1.2-.02,0-.03,0-.05,0Zm-.6-13.85c-.61,0-1.13-.48-1.15-1.1l-.31-6.92c-.03-.64.46-1.18,1.1-1.2.66-.06,1.18.47,1.2,1.1l.3,6.93c.03.64-.47,1.18-1.1,1.2-.02,0-.04,0-.05,0Zm-.61-13.85c-.61,0-1.12-.48-1.15-1.1l-.31-6.93c-.03-.64.46-1.18,1.1-1.2.65-.05,1.18.46,1.2,1.1l.31,6.93c.03.64-.46,1.18-1.1,1.2-.02,0-.03,0-.05,0Zm-.62-13.85c-.61,0-1.12-.48-1.15-1.1l-.31-6.92c-.03-.64.46-1.18,1.1-1.2.64-.03,1.18.46,1.2,1.1l.31,6.92c.03.64-.46,1.18-1.1,1.2-.02,0-.03,0-.05,0Zm-.62-13.85c-.61,0-1.12-.48-1.15-1.1l-.31-6.94c-.03-.64.46-1.18,1.1-1.2.66-.04,1.18.46,1.21,1.1l.31,6.94c.03.64-.46,1.18-1.1,1.2-.02,0-.04,0-.05,0Zm-.63-13.88c-.61,0-1.12-.48-1.15-1.1l-.31-6.92c-.03-.64.46-1.18,1.1-1.2.66-.07,1.18.47,1.2,1.1l.31,6.92c.03.64-.46,1.18-1.1,1.2-.02,0-.03,0-.05,0Zm-.62-13.82c-.61,0-1.12-.48-1.15-1.1l-.31-6.92c-.03-.64.46-1.18,1.1-1.2.65-.07,1.18.47,1.2,1.1l.31,6.92c.03.64-.46,1.18-1.1,1.2-.02,0-.03,0-.05,0Zm-.62-13.85c-.61,0-1.12-.48-1.15-1.1l-.31-6.93c-.03-.64.46-1.18,1.1-1.2.64-.05,1.18.46,1.2,1.1l.31,6.93c.03.64-.46,1.18-1.1,1.2-.02,0-.03,0-.05,0Zm-.62-13.85c-.61,0-1.12-.48-1.15-1.1l-.31-6.93c-.03-.64.47-1.18,1.1-1.2.62-.06,1.18.47,1.2,1.1l.3,6.92c.03.64-.46,1.18-1.1,1.2-.02,0-.03,0-.05,0Zm-.61-13.85c-.61,0-1.13-.49-1.15-1.1l-.3-6.93c-.03-.64.47-1.18,1.1-1.2.65-.04,1.18.47,1.2,1.1l.3,6.93c.03.64-.47,1.18-1.1,1.2-.02,0-.03,0-.05,0Zm-.6-13.86c-.62,0-1.13-.49-1.15-1.11l-.29-6.93c-.03-.64.47-1.18,1.11-1.2.63-.05,1.17.47,1.2,1.1l.29,6.93c.03.64-.47,1.17-1.1,1.2-.02,0-.03,0-.05,0Zm-.58-13.85c-.62,0-1.13-.49-1.15-1.11l-.28-6.93c-.03-.64.47-1.17,1.11-1.2.63-.04,1.17.47,1.2,1.11l.28,6.93c.03.64-.47,1.17-1.11,1.2-.02,0-.03,0-.05,0Zm-.55-13.86c-.62,0-1.13-.49-1.15-1.11l-.27-6.93c-.02-.64.47-1.17,1.11-1.2.66-.05,1.17.47,1.2,1.11l.27,6.93c.03.64-.47,1.17-1.11,1.2-.02,0-.03,0-.05,0Zm-.52-13.86c-.62,0-1.13-.49-1.15-1.11-.09-2.39-.16-4.7-.24-6.94-.02-.64.48-1.17,1.11-1.19.68-.02,1.17.48,1.19,1.12.07,2.24.15,4.55.24,6.93.02.64-.48,1.17-1.11,1.19-.01,0-.03,0-.04,0Zm-.46-13.87c-.62,0-1.13-.49-1.15-1.12-.07-2.43-.14-4.75-.2-6.94-.02-.64.49-1.17,1.12-1.18.61-.04,1.17.49,1.18,1.12.06,2.19.12,4.51.2,6.94.02.64-.48,1.17-1.12,1.19h-.04Zm-.36-14c-.62,0-1.13-.39-1.14-1.01v-.24c-.05-2.15-.08-4.39-.1-6.7,0-.64.51-1.16,1.14-1.16h0c.63,0,1.15.51,1.15,1.14.02,2.31.05,4.53.09,6.67.01.64-.49,1.28-1.13,1.3,0,0-.02,0-.03,0Zm-.12-13.73c-.64,0-1.15-.52-1.15-1.15v-1.33c0-1.83,0-3.7.01-5.61,0-.64.52-1.15,1.15-1.15h0c.64,0,1.15.52,1.15,1.16,0,1.9-.01,3.77-.01,5.6v1.32c0,.64-.51,1.15-1.15,1.16h0Zm.07-13.86h-.01c-.64,0-1.15-.53-1.14-1.16.02-2.28.05-4.59.08-6.94,0-.64.54-1.09,1.17-1.14.64,0,1.15.53,1.14,1.17-.03,2.34-.06,4.65-.08,6.93,0,.63-.52,1.14-1.15,1.14Zm.19-13.87h-.02c-.64-.01-1.14-.54-1.13-1.18.04-2.29.09-4.6.14-6.94.01-.64.52-1.16,1.18-1.13.64.01,1.14.54,1.13,1.18-.05,2.33-.09,4.64-.14,6.93-.01.63-.53,1.13-1.15,1.13Zm.29-13.87h-.03c-.64-.02-1.14-.54-1.13-1.18l.17-6.93c.02-.64.54-1.13,1.18-1.12.64.02,1.14.55,1.12,1.18l-.17,6.93c-.02.63-.53,1.13-1.15,1.13Zm.36-13.86h-.03c-.64-.02-1.14-.55-1.12-1.19l.21-6.93c.02-.64.57-1.11,1.19-1.12.64.02,1.14.55,1.12,1.19l-.21,6.93c-.02.62-.53,1.12-1.15,1.12Zm.42-13.86h-.04c-.64-.02-1.14-.56-1.12-1.19l.23-6.92c.02-.64.57-1.1,1.19-1.11.64.02,1.14.56,1.11,1.19l-.23,6.92c-.02.62-.53,1.12-1.15,1.12Zm.47-13.85s-.03,0-.04,0c-.64-.02-1.13-.56-1.11-1.19l.25-6.93c.02-.64.57-1.19,1.2-1.11.64.02,1.13.56,1.11,1.2l-.25,6.93c-.02.62-.53,1.11-1.15,1.11Zm.52-13.86s-.03,0-.05,0c-.64-.02-1.13-.56-1.11-1.2l.27-6.93c.03-.64.54-1.18,1.2-1.11.64.02,1.13.56,1.11,1.2l-.27,6.93c-.02.62-.54,1.11-1.15,1.11Zm.55-13.86s-.03,0-.05,0c-.64-.03-1.13-.56-1.11-1.2l.29-6.93c.03-.64.56-1.17,1.2-1.1.64.03,1.13.56,1.1,1.2l-.29,6.93c-.03.62-.54,1.11-1.15,1.11Zm.59-13.86s-.03,0-.05,0c-.64-.03-1.13-.57-1.1-1.2l.31-6.93c.03-.64.56-1.15,1.2-1.1.64.03,1.13.57,1.1,1.2l-.31,6.93c-.03.62-.54,1.1-1.15,1.1Zm.62-13.86s-.04,0-.05,0c-.64-.03-1.13-.57-1.1-1.21l.32-6.93c.03-.64.57-1.17,1.21-1.1.64.03,1.13.57,1.1,1.21l-.32,6.93c-.03.62-.54,1.1-1.15,1.1Zm.65-13.86s-.04,0-.06,0c-.64-.03-1.13-.57-1.1-1.21l.34-6.93c.03-.64.55-1.15,1.21-1.1.64.03,1.13.57,1.1,1.21l-.34,6.93c-.03.62-.54,1.1-1.15,1.1Zm.69-13.87s-.04,0-.06,0c-.64-.03-1.13-.57-1.09-1.21.23-4.46.36-6.96.36-6.96.03-.64.57-1.16,1.21-1.09.64.03,1.13.58,1.09,1.22,0,0-.13,2.5-.36,6.96-.03.62-.54,1.09-1.15,1.09Z"/>
      <path class="cls-4" d="m195.72,22.44c-.62,0-1.14-.5-1.15-1.12l-.52-18.17c-.02-.64.48-1.17,1.12-1.19h.03c.62,0,1.14.5,1.15,1.12l.52,18.17c.02.64-.48,1.17-1.12,1.19h-.03Z"/>
      <path class="cls-2" d="m15.23,684.48s17.38,5.17,45.77,4.2c28.39-.96,41.12-4.82,41.12-4.82,0,0,4.9-1.93,4.9,10.61s-.98,16.4-6.85,18.33c-5.87,1.93-17.62,3.86-40.14,3.86s-40.28.29-45.18-4.53c-4.9-4.82-2.55-21.85.39-27.64Z"/>
      <path class="cls-2" d="m262.03,684.48s-16.48,5.17-44.88,4.2c-28.39-.96-41.12-4.82-41.12-4.82,0,0-4.9-1.93-4.9,10.61s.98,16.4,6.85,18.33c5.87,1.93,17.62,3.86,40.14,3.86s36.67-.1,41.56-4.92c4.9-4.82,5.27-21.46,2.34-27.25Z"/>
    </g>
  </g>
</svg>