<?xml version="1.0" encoding="UTF-8"?>
<svg id="Layer_2" data-name="Layer 2" xmlns="http://www.w3.org/2000/svg" viewBox="0 0 435.23 400.55">
  <defs>
    <style>
      .cls-1 {
        fill: #8a81af;
      }

      .cls-1, .cls-2, .cls-3 {
        stroke-width: 0px;
      }

      .cls-2 {
        fill: #3c2941;
      }

      .cls-4 {
        opacity: .53;
      }

      .cls-3 {
        fill: #0097dd;
      }
    </style>
  </defs>
  <g id="_Ñëîé_2" data-name="Ñëîé 2">
    <g>
      <path class="cls-3" d="m343.62,373.79l-8.17-216.51,19.91,45.79,79.3-46.56s-44.32-99.91-85.43-127.84C308.12.73,251.33,0,251.33,0c0,0,.71,31.34-37.32,30.09C177.6,28.9,176.93,0,176.93,0,176.93,0,126.03.73,84.91,28.67,43.79,56.6,0,156.51,0,156.51l79.3,46.56,19.91-45.79-4.25,216.51s30.31,26.75,124.78,26.75,123.88-26.75,123.88-26.75Z"/>
      <path class="cls-1" d="m261.58.62c-6.4-.56-10.25-.62-10.25-.62,0,0,.71,31.34-37.32,30.09-36.41-1.19-37.08-30.09-37.08-30.09,0,0-4.31.07-11.41.84,1.66,13.91,9.88,39.58,47.96,39.58S260.28,13.78,261.58.62Z"/>
      <path class="cls-1" d="m0,156.51l79.3,46.56,4.78-11L4.85,145.96c-3.11,6.57-4.85,10.55-4.85,10.55Z"/>
      <path class="cls-1" d="m435.23,156.51l-79.63,47.32-4.67-10.9,78.63-47.1c3.11,6.57,5.67,10.68,5.67,10.68Z"/>
      <g class="cls-4">
        <path class="cls-2" d="m99.21,158.26s-.03,0-.04,0c-.54-.02-.96-.48-.94-1.02l4.61-105.11c.02-.54.49-.98,1.02-.94.54.02.96.48.94,1.02l-4.61,105.11c-.02.53-.46.94-.98.94Z"/>
      </g>
      <g class="cls-4">
        <path class="cls-2" d="m335.46,158.26c-.5,0-.93-.38-.97-.89l-9.72-105.11c-.05-.54.35-1.02.88-1.07.54-.06,1.01.35,1.07.88l9.72,105.11c.05.54-.35,1.02-.88,1.07-.03,0-.06,0-.09,0Z"/>
      </g>
      <g class="cls-4">
        <path class="cls-2" d="m213.48,41.4c-46.08,0-48.8-39.14-48.82-39.54-.03-.54.38-1,.92-1.03.56-.05,1,.38,1.03.92.09,1.54,2.67,37.69,46.87,37.69S260.32,3.28,260.41,1.74c.03-.54.48-.97,1.03-.92.54.03.95.49.92,1.03-.02.4-2.81,39.54-48.89,39.54Z"/>
      </g>
    </g>
  </g>
</svg>