<?xml version="1.0" encoding="UTF-8"?>
<svg id="Layer_2" data-name="Layer 2" xmlns="http://www.w3.org/2000/svg" viewBox="0 0 276.12 718.79">
  <defs>
    <style>
      .cls-1 {
        fill: #3b2744;
      }

      .cls-1, .cls-2, .cls-3 {
        stroke-width: 0px;
      }

      .cls-2 {
        fill: silver;
      }

      .cls-3 {
        fill: #5c507c;
      }
    </style>
  </defs>
  <g id="_Ñëîé_2" data-name="Ñëîé 2">
    <g>
      <path class="cls-3" d="m15.2,680.19s-2.61,24.8,0,31.33c2.61,6.53,66.57,10.44,74.41,3.92,7.83-6.53,2.61-31.33,2.61-31.33l-77.02-3.92Z"/>
      <path class="cls-3" d="m259.59,680.19s2.61,24.8,0,31.33c-2.61,6.53-66.57,10.44-74.41,3.92-7.83-6.53-2.61-31.33-2.61-31.33l77.02-3.92Z"/>
      <path class="cls-1" d="m260.96,230.44c-.28-123.38-22.67-210.77-22.67-210.77,0,0-67.76,4.2-100.89,4.37-33.14-.17-100.89-4.37-100.89-4.37,0,0-22.53,72.71-22.67,210.77-.11,108.79-29.31,417.02-2.55,458.88,7.16,11.2,78.12,23.81,88.68,1.19,17.01-36.43,28.48-369.06,37.44-418.99,8.67,52.87,26.57,398.22,37.44,418.99,11.57,22.12,81.58,10.05,88.68-1.19,29.69-46.99-2.31-350.1-2.55-458.88Z"/>
      <path class="cls-3" d="m228.26.09c-6.32-1.05-34.24,7.51-90.87,7.82C80.77,7.6,52.85-.96,46.53.09c-7.83,1.31-12.22,16.97-10.03,19.58,0,0,46,10.31,100.38,10.44h0c.17,0,.34,0,.51,0,.17,0,.34,0,.51,0h0c54.38-.13,100.38-10.44,100.38-10.44,2.2-2.61-2.2-18.28-10.03-19.58Z"/>
      <g>
        <path class="cls-2" d="m120.94,18.37c0-2.16,1.75-3.92,3.92-3.92s3.92,1.75,3.92,3.92-1.75,3.92-3.92,3.92-3.92-1.75-3.92-3.92Z"/>
        <path class="cls-3" d="m124.85,93.42c-1.08,0-1.96-.88-1.96-1.96V18.36c0-1.08.88-1.96,1.96-1.96s1.96.88,1.96,1.96v73.1c0,1.08-.88,1.96-1.96,1.96Z"/>
        <path class="cls-2" d="m141.82,18.37c0-2.16,1.75-3.92,3.92-3.92s3.92,1.75,3.92,3.92-1.75,3.92-3.92,3.92-3.92-1.75-3.92-3.92Z"/>
        <path class="cls-3" d="m145.74,64.71c-1.08,0-1.96-.88-1.96-1.96V18.36c0-1.08.88-1.96,1.96-1.96s1.96.88,1.96,1.96v44.38c0,1.08-.88,1.96-1.96,1.96Z"/>
        <path class="cls-2" d="m124.85,108.76c-1.62,0-2.94-1.32-2.94-2.94v-22.19c0-1.62,1.31-2.94,2.94-2.94s2.94,1.32,2.94,2.94v22.19c0,1.62-1.31,2.94-2.94,2.94Z"/>
        <path class="cls-2" d="m145.74,83.96c-1.62,0-2.94-1.32-2.94-2.94v-22.19c0-1.62,1.31-2.94,2.94-2.94s2.94,1.32,2.94,2.94v22.19c0,1.62-1.31,2.94-2.94,2.94Z"/>
      </g>
    </g>
  </g>
</svg>