<?xml version="1.0" encoding="UTF-8"?>
<svg id="Layer_2" data-name="Layer 2" xmlns="http://www.w3.org/2000/svg" viewBox="0 0 428.13 501.29">
  <defs>
    <style>
      .cls-1 {
        fill: #c9d5e2;
      }

      .cls-1, .cls-2, .cls-3, .cls-4 {
        stroke-width: 0px;
      }

      .cls-2 {
        fill: #4e466a;
      }

      .cls-3 {
        fill: #3d2c45;
      }

      .cls-4 {
        fill: #5d507d;
      }
    </style>
  </defs>
  <g id="_Ñëîé_2" data-name="Ñëîé 2">
    <g>
      <path class="cls-3" d="m99.18,436.68s0,33.29,5.87,43.08c5.87,9.79,54.83,21.54,109.65,21.54s93.99-9.79,103.78-19.58c9.79-9.79,9.79-43.08,9.79-43.08l-229.09-1.96Z"/>
      <path class="cls-3" d="m130.51,7.86S166.11,0,212.92,0s86.33,7.86,86.33,7.86c0,0-2.32,64.62-84.56,70.49C132.46,84.23,130.51,7.86,130.51,7.86Z"/>
      <path class="cls-3" d="m13.02,436.93s4.32,23.77,6.48,34.57,57.22-.05,56.18-10.8c-1.96-20.11-7.83-49.48-7.83-49.48l-54.83,25.71Z"/>
      <path class="cls-2" d="m165.75,48.98s-56.78,0-92.03,31.33C38.48,111.64,11.06,209.54,3.23,278.07c-7.83,68.53-.19,156.26,9.79,176.23,3.92,7.83,54.83,0,58.74-5.87,12.38-18.58,1.29-54.39,3.92-117.48,1.96-46.99,17.62-93.99,17.62-93.99,0,0,5.87,54.83,1.96,101.82-3.92,46.99-15.66,95.95,11.75,117.48,27.41,21.54,107.69,17.62,107.69,17.62V64.64l-48.95-15.66Z"/>
      <path class="cls-3" d="m415.11,436.93s-4.32,23.77-6.48,34.57c-2.16,10.8-57.22-.05-56.18-10.8,1.96-20.11,7.83-49.48,7.83-49.48l54.83,25.71Z"/>
      <path class="cls-2" d="m424.9,278.07c-7.83-68.53-35.25-166.44-70.49-197.76-35.25-31.33-92.03-31.33-92.03-31.33l-48.95,15.66v409.24s80.28,3.92,107.69-17.62c27.41-21.54,15.66-70.49,11.75-117.48-3.92-46.99,1.96-101.82,1.96-101.82,0,0,15.66,46.99,17.62,93.99,2.63,63.09-8.47,98.91,3.92,117.48,3.92,5.87,54.83,13.71,58.74,5.87,9.98-19.97,17.62-107.69,9.79-176.23Z"/>
      <g>
        <path class="cls-4" d="m213.02,0s.05,0,0,0h0Z"/>
        <path class="cls-4" d="m212.92,0c.06,0,.08,0,.1,0-.04,0-.1,0-.1,0Z"/>
        <path class="cls-4" d="m212.82,0s-.04,0,0,0h0Z"/>
        <path class="cls-4" d="m212.92,0s-.06,0-.1,0c.02,0,.04,0,.1,0Z"/>
        <path class="cls-4" d="m316.88,25.48c0-13.71-17.62-17.62-17.62-17.62-5.78,17.34-59.1,52.87-84.38,52.87-27.59,0-78.6-35.52-84.38-52.87,0,0-17.62,3.92-17.62,17.62s-23.5,15.66-15.66,35.25c7.39,18.49,109.5,41.55,120.51,42.19,11.01-.64,107.42-23.7,114.82-42.19,7.83-19.58-15.66-21.54-15.66-35.25Z"/>
      </g>
      <path class="cls-4" d="m324.28,394.71c-61.52-14.3-52.73-91.18-52.73-91.18h-109.04s8.79,76.88-52.73,91.18c0,0-6.59,28.6,17.58,42.91,11.54,6.83,48.6,9.58,87.07,9.81v.02c.87,0,1.74,0,2.61,0,.87,0,1.74,0,2.61,0v-.02c38.46-.24,75.53-2.99,87.07-9.81,24.17-14.3,17.58-42.91,17.58-42.91Z"/>
      <path class="cls-2" d="m216.21,441.57l-1.76-.02c-43.6-.27-75.04-3.63-84.11-9-14.69-8.69-15.99-23.63-15.46-31.77l.09-1.35,1.29-.39c51.98-15.84,52.99-75.78,52.67-87.63l-.06-2.01h96.3l-.06,2.01c-.32,11.85.69,71.79,52.67,87.63l1.29.39.09,1.35c.53,8.13-.77,23.07-15.46,31.77-9.07,5.37-40.51,8.73-84.11,9l-3.39.02Zm-97.48-39.19c-.24,7.44,1.47,19.63,13.61,26.81,6.26,3.7,31.53,8.14,82.14,8.45h5.1c50.61-.31,75.88-4.74,82.14-8.45,12.14-7.18,13.85-19.37,13.61-26.81-40.56-13.14-54.56-54.1-54.16-89.06h-88.28c.4,34.96-13.6,75.92-54.16,89.06Z"/>
      <path class="cls-4" d="m95.24,237.24l-3.87-.58c.14-.92,13.4-92.07-5.76-139.97l3.64-1.45c19.55,48.88,6.56,138.22,5.99,142Z"/>
      <path class="cls-4" d="m332.96,237.24c-.56-3.78-13.56-93.11,5.99-142l3.64,1.45c-19.16,47.89-5.89,139.05-5.76,139.97l-3.87.58Z"/>
      <path class="cls-1" d="m195.12,83.25c-3.78,0-6.85-3.07-6.85-6.85s3.07-6.85,6.85-6.85,6.85,3.07,6.85,6.85-3.07,6.85-6.85,6.85Zm0-11.75c-2.7,0-4.89,2.2-4.89,4.89s2.2,4.89,4.89,4.89,4.89-2.2,4.89-4.89-2.2-4.89-4.89-4.89Z"/>
      <path class="cls-1" d="m234.28,83.25c-3.78,0-6.85-3.07-6.85-6.85s3.07-6.85,6.85-6.85,6.85,3.07,6.85,6.85-3.07,6.85-6.85,6.85Zm0-11.75c-2.7,0-4.89,2.2-4.89,4.89s2.2,4.89,4.89,4.89,4.89-2.2,4.89-4.89-2.2-4.89-4.89-4.89Z"/>
      <path class="cls-3" d="m195.12,206.13c-1.36,0-2.47-1.1-2.47-2.47v-127.27c0-1.36,1.1-2.47,2.47-2.47s2.47,1.1,2.47,2.47v127.27c0,1.36-1.1,2.47-2.47,2.47Z"/>
      <path class="cls-3" d="m234.28,182.4c-1.23,0-2.23-1-2.23-2.23v-103.78c0-1.23,1-2.23,2.23-2.23s2.23,1,2.23,2.23v103.78c0,1.23-1,2.23-2.23,2.23Z"/>
      <path class="cls-1" d="m195.12,219.33c-1.08,0-1.96-.88-1.96-1.96v-25.46c0-1.08.88-1.96,1.96-1.96s1.96.88,1.96,1.96v25.46c0,1.08-.88,1.96-1.96,1.96Z"/>
      <path class="cls-1" d="m234.28,191.92c-1.08,0-1.96-.88-1.96-1.96v-25.45c0-1.08.88-1.96,1.96-1.96s1.96.88,1.96,1.96v25.45c0,1.08-.88,1.96-1.96,1.96Z"/>
      <path class="cls-2" d="m254.01,66.94c-.76,0-1.48-.44-1.8-1.18-.43-.99.03-2.14,1.02-2.57,18.26-7.86,34.12-21.47,44.65-38.33.57-.92,1.78-1.2,2.7-.62.92.57,1.2,1.78.62,2.7-10.95,17.53-27.43,31.69-46.42,39.86-.25.11-.51.16-.77.16Z"/>
      <path class="cls-2" d="m257.98,78.51c-.07,0-.13,0-.2,0-1.08,0-1.96-.88-1.95-1.96,0-1.08.88-1.95,1.96-1.95.06,0,.13,0,.2,0,17.52,0,34.62-7.13,46.95-19.57.76-.77,2-.77,2.77-.01.77.76.77,2,.01,2.77-13.06,13.18-31.18,20.73-49.73,20.73Z"/>
      <path class="cls-2" d="m175.12,66.94c-.26,0-.52-.05-.77-.16-18.99-8.17-35.47-22.32-46.42-39.86-.57-.92-.29-2.12.62-2.7.92-.57,2.12-.29,2.7.62,10.53,16.86,26.39,30.47,44.65,38.33.99.43,1.45,1.58,1.02,2.57-.32.74-1.04,1.18-1.8,1.18Z"/>
      <path class="cls-2" d="m171.15,78.51c-18.55,0-36.67-7.55-49.73-20.73-.76-.77-.76-2.01.01-2.77.77-.76,2.01-.75,2.77.01,12.33,12.45,29.43,19.57,46.95,19.57.07,0,.16.02.2,0,1.08,0,1.95.87,1.96,1.95,0,1.08-.87,1.96-1.95,1.96-.07,0-.14,0-.2,0Z"/>
    </g>
  </g>
</svg>