<?xml version="1.0" encoding="UTF-8"?>
<svg id="Layer_2" data-name="Layer 2" xmlns="http://www.w3.org/2000/svg" viewBox="0 0 256.26 662.06">
  <defs>
    <style>
      .cls-1 {
        fill: #f7a05b;
      }

      .cls-1, .cls-2, .cls-3, .cls-4 {
        stroke-width: 0px;
      }

      .cls-2 {
        fill: silver;
      }

      .cls-3 {
        fill: #e57e53;
      }

      .cls-4 {
        fill: #5c507c;
      }
    </style>
  </defs>
  <g id="_Ñëîé_2" data-name="Ñëîé 2">
    <g>
      <path class="cls-3" d="m226.65,626.72s1.17,23.44-.92,29.54c-2.08,6.09-48.56,8.35-54.05,2.02-5.49-6.33-.98-29.6-.98-29.6l55.94-1.96Z"/>
      <path class="cls-3" d="m31.61,626.72s-1.17,23.44.92,29.54c2.08,6.09,48.56,8.35,54.05,2.02,5.49-6.33.98-29.6.98-29.6l-55.94-1.96Z"/>
      <path class="cls-1" d="m250.23,155.5C241.7,55.75,216.26,9.82,216.26,9.82c0,0-55.69,3.19-88.13,3.89-32.44-.7-88.13-3.89-88.13-3.89,0,0-25.44,45.92-33.97,145.67-8.11,94.8-11.8,449.41,13.87,473.78,18.59,17.66,76.48,18.82,81.45-9.6,25.55-146,7.83-374.92,26.78-380.34,18.95,5.42,1.23,234.34,26.78,380.34,4.97,28.42,62.86,27.26,81.45,9.6,25.67-24.37,21.97-378.98,13.87-473.78Z"/>
      <path class="cls-3" d="m127.83,31.04c-48.61,0-82.2-10.35-84.29-11.01-5.4-1.71-8.39-7.46-6.68-12.86,1.71-5.4,7.46-8.39,12.86-6.68,1.21.38,73.28,22.25,157.28-.13,5.47-1.46,11.08,1.8,12.54,7.26,1.46,5.47-1.79,11.08-7.26,12.54-30.61,8.16-59.51,10.88-84.44,10.88Z"/>
      <g>
        <path class="cls-2" d="m114.9,21.28c0-2.04,1.65-3.69,3.69-3.69s3.69,1.65,3.69,3.69-1.65,3.69-3.69,3.69-3.69-1.65-3.69-3.69Z"/>
        <path class="cls-4" d="m118.59,92.08c-1.02,0-1.85-.83-1.85-1.85V21.28c0-1.02.83-1.85,1.85-1.85s1.85.83,1.85,1.85v68.95c0,1.02-.83,1.85-1.85,1.85Z"/>
        <circle class="cls-2" cx="138.29" cy="21.28" r="3.69"/>
        <path class="cls-4" d="m138.29,64.99c-1.02,0-1.85-.83-1.85-1.85V21.28c0-1.02.83-1.85,1.85-1.85s1.85.83,1.85,1.85v41.86c0,1.02-.83,1.85-1.85,1.85Z"/>
        <path class="cls-2" d="m118.59,106.55c-1.53,0-2.77-1.24-2.77-2.77v-20.93c0-1.53,1.24-2.77,2.77-2.77s2.77,1.24,2.77,2.77v20.93c0,1.53-1.24,2.77-2.77,2.77Z"/>
        <path class="cls-2" d="m138.29,83.15c-1.53,0-2.77-1.24-2.77-2.77v-20.93c0-1.53,1.24-2.77,2.77-2.77s2.77,1.24,2.77,2.77v20.93c0,1.53-1.24,2.77-2.77,2.77Z"/>
      </g>
    </g>
  </g>
</svg>