<?xml version="1.0" encoding="UTF-8"?>
<svg id="Layer_2" data-name="Layer 2" xmlns="http://www.w3.org/2000/svg" viewBox="0 0 335.53 456.47">
  <defs>
    <style>
      .cls-1 {
        fill: #d76150;
      }

      .cls-1, .cls-2, .cls-3 {
        stroke-width: 0px;
      }

      .cls-2 {
        fill: #f7a05b;
      }

      .cls-3 {
        fill: #e57e53;
      }
    </style>
  </defs>
  <g id="_Ñëîé_2" data-name="Ñëîé 2">
    <g>
      <path class="cls-3" d="m47.06,399.18s-10.23,57.29,124.8,57.29,116.62-59.33,116.62-59.33l-241.42,2.05Z"/>
      <path class="cls-1" d="m122.75,6.37s39.91-14.32,89.01,0c0,0-17.4,57.29-46.05,57.29S122.75,6.37,122.75,6.37Z"/>
      <path class="cls-2" d="m124.8,6.37s-10.23,0-8.18,26.6c0,0-57.29,8.18-94.11,32.73l22.5,122.75s8.18,98.2,4.09,147.31c-4.09,49.1-22.5,55.24,6.14,77.74,28.64,22.51,112.52,18.41,112.52,18.41V49.33S126.85,28.87,124.8,6.37Z"/>
      <path class="cls-3" d="m26.27,63.75S0,73.88,0,84.11s45.01,104.34,45.01,104.34L26.27,63.75Z"/>
      <path class="cls-2" d="m210.73,6.37s10.23,0,8.18,26.6c0,0,57.29,8.18,94.11,32.73l-22.5,122.75s-8.18,98.2-4.09,147.31c4.09,49.1,22.5,55.24-6.14,77.74-28.64,22.51-112.53,18.41-112.53,18.41V49.33s40.92-20.46,42.96-42.96Z"/>
      <path class="cls-3" d="m308.1,62.71s27.42,11.17,27.42,21.4-45.01,104.34-45.01,104.34l17.59-125.74Z"/>
      <path class="cls-3" d="m210.73,6.37c-2.05,22.51-42.96,41.95-42.96,41.95,0,0-40.92-19.44-42.96-41.95,0,0-10.23,0-8.18,26.6,0,0,18.41,38.87,51.15,38.87s51.15-38.87,51.15-38.87c2.05-26.6-8.18-26.6-8.18-26.6Z"/>
      <rect class="cls-3" x="29.68" y="87.19" width="275.17" height="6.14"/>
      <rect class="cls-3" x="29.68" y="148.57" width="275.17" height="6.14"/>
      <rect class="cls-3" x="47.07" y="207.9" width="240.39" height="6.14"/>
      <rect class="cls-3" x="50.14" y="267.23" width="234.26" height="6.14"/>
      <rect class="cls-3" x="50.15" y="326.56" width="235.27" height="6.14"/>
      <rect class="cls-3" x="39.91" y="385.89" width="255.74" height="6.14"/>
      <path class="cls-2" d="m178.53,53.98c0-1.67,1.35-3.02,3.02-3.02s3.02,1.35,3.02,3.02-1.35,3.02-3.02,3.02-3.02-1.35-3.02-3.02Z"/>
      <path class="cls-1" d="m174.94,414.53c0-3.39,2.75-6.14,6.14-6.14s6.14,2.75,6.14,6.14-2.75,6.14-6.14,6.14-6.14-2.75-6.14-6.14Z"/>
      <path class="cls-1" d="m235.28,283.59s20.46,34.78,51.15,42.96l.92,19.03s-39.79-4.71-64.34-51.77l12.28-10.23Z"/>
      <path class="cls-1" d="m100.25,283.59s-19.93,34.09-50.62,42.28l-1.56,20.76s39.9-5.75,64.45-52.81l-12.28-10.23Z"/>
      <rect class="cls-1" x="165.72" y="46.26" width="4.09" height="385.65"/>
    </g>
  </g>
</svg>