<?xml version="1.0" encoding="UTF-8"?>
<svg id="Layer_2" data-name="Layer 2" xmlns="http://www.w3.org/2000/svg" viewBox="0 0 116.78 35.72">
  <defs>
    <style>
      .cls-1 {
        fill: #d60606;
      }

      .cls-1, .cls-2, .cls-3, .cls-4, .cls-5, .cls-6, .cls-7, .cls-8, .cls-9, .cls-10, .cls-11, .cls-12 {
        stroke-width: 0px;
      }

      .cls-2 {
        fill: #80c2dc;
      }

      .cls-3 {
        fill: #262626;
      }

      .cls-13 {
        opacity: .5;
      }

      .cls-4 {
        fill: #dcdfe2;
      }

      .cls-5 {
        fill: #070000;
      }

      .cls-6 {
        fill: #341115;
      }

      .cls-7 {
        fill: #ea454b;
      }

      .cls-8, .cls-12 {
        fill: #fff;
      }

      .cls-9 {
        fill: #cbcfd1;
      }

      .cls-10 {
        fill: #f43b3b;
      }

      .cls-11 {
        fill: #200000;
      }

      .cls-12 {
        opacity: .7;
      }
    </style>
  </defs>
  <g id="layer">
    <g>
      <g>
        <g>
          <path class="cls-1" d="m4.91,7.44s-3.63,3.38-3.61,6.39c0,.83.31,4.35-.21,5.18-.52.82-1.6,1.6-.82,3.28-.31,2.06-.16,4.54,2.52,5.67s12.64,2.27,30.89,2.58c18.25.31,52.07.31,52.89.41.82.1,23.41.52,25.88.21,2.47-.31,4.42-.05,4.32-1.59-.1-1.55-.66-2.77-1.33-5.42-.06-.22-.57-.9-1.53-1.91,1.56,0-8.01-6.71-10.54-7.94-6.25-3.03-9.46-4.03-23.3-4.78-3.29-.18-3.61.04-3.61.04-2-.39-3.4-.84-4.74-1.6C69.67,6.8,53.29-.17,45.43.32c-14.64.93-29.49,5.98-31.86,5.98-1.57,0-9.56-1.8-8.66,1.13Z"/>
          <path class="cls-6" d="m112.45,28.61c-2.47.31-25.06-.1-25.88-.21-.82-.1-34.64-.1-52.89-.41-18.25-.31-26.7-1.35-29.38-2.48-1.59-.67-3.79-1.91-4.03-3.17-.3,2.05-.13,4.49,2.53,5.62,2.68,1.13,12.64,2.27,30.89,2.58,18.25.31,52.07.31,52.89.41.82.1,23.41.52,25.88.21,2.47-.31,4.42-.05,4.32-1.59-.04-.58-.14-1.11-.29-1.68-.62.59-2.18.5-4.03.73Z"/>
          <g>
            <path class="cls-11" d="m91.72,15.9c-5.93,0-10.74,4.81-10.74,10.74,0,1.51.31,2.95.88,4.25,2.8.02,4.54.03,4.72.06.47.06,7.99.22,14.84.29.66-1.39,1.04-2.95,1.04-4.59,0-5.93-4.81-10.74-10.74-10.74Z"/>
            <path class="cls-6" d="m37.33,22.24c-1.63-3.77-5.82-8.57-14.17-8.57-5.93,0-12.53,5.88-11.45,13.61.18,1.28,1.91,2.38,1.91,2.38,9.82.81,62.59.1,67.48-1.33-18.2-1.04-41.86-1.66-43.78-6.08Z"/>
            <path class="cls-11" d="m34.44,25.98c0-5.93-4.81-10.74-10.74-10.74s-10.74,4.81-10.74,10.74c0,1.3.24,2.53.66,3.68,4.94.41,11.5.72,19.79.87.65-1.38,1.02-2.92,1.02-4.55Z"/>
          </g>
          <path class="cls-6" d="m76.47,9.55c-1.73-.37-3.52-.91-4.74-1.6C69.67,6.8,52.12-.47,44.27.02,29.63.95,15.94,6.3,13.57,6.3c-.3,0,17.14-1.97,31.24,3.04,6.96,2.47,28.67.88,31.65.2Z"/>
          <path class="cls-11" d="m63.24,10.53s-2.49-2.66-12.75-6.34c-4.29-1.54-6.39-1.38-11.09-1.18-12.25,3.03-5.66,3.59,1.98,6.3,7.89,2.81,23.73.84,21.87,1.21Z"/>
          <path class="cls-2" d="m50.24,3.64c-3.94-1.14-6.97-1.25-10.85-.63.52,2.11,1.27,4.22,1.98,6.3.11.04.23.08.34.12,8.75,2.9,23.44,1.09,23.13,1.11,0,0-3.65-3.72-14.6-6.9Z"/>
          <path class="cls-12" d="m41.27,9.01c-.18-.52-.35-1.03-.53-1.55,1.58-1.58,3.16-3.16,4.74-4.74.6.05,1.21.14,1.83.24l-6.05,6.05Zm11.82-4.49c-.89-.3-1.84-.6-2.85-.89-.31-.09-.61-.17-.91-.24l-6.4,6.4c1.29.35,2.67.61,4.09.8l6.06-6.06Zm2.88,1.05c-.35-.14-.7-.28-1.07-.41l-5.67,5.67c.46.04.92.08,1.38.1l5.36-5.36Zm.43,5.49c4.86-.07,8.6-.54,8.44-.53,0,0-1.34-1.35-4.79-3.12l-3.65,3.65Zm2.01-4.45c-.23-.11-.47-.21-.72-.32-1.58,1.58-3.17,3.17-4.75,4.75.34,0,.68.02,1.02.02l4.45-4.45Z"/>
          <path class="cls-2" d="m71.41,10.14c2.49-.14,4.37-.43,5.06-.59-1.73-.37-3.52-.91-4.74-1.6-1.73-.97-13.57-6.05-21.97-7.35,11.66,3.69,21.65,9.53,21.65,9.53Z"/>
          <path class="cls-7" d="m81.59,16.33c-1.96,1.73-5.08,3.07-6.95,3.01l-36.17-1.25c-1.88-.06,34.79.36,37.41-.49,1.07-.34,2.65-1.14,4.19-3,1.11-1.34-36.38-2.83-34.5-2.77,0,0,25.22-.17,36.17,1.25,1.86.24,1.81,1.52-.15,3.24h0Z"/>
          <path class="cls-6" d="m79.26,14.13c-.16-.02-.32-.04-.48-.06.53.32.28,1-.75,1.86-.93.77-3.6,1.63-4.72,1.93.41.05,2.23-.07,2.87-.2,1.09-.31,2.04-.75,2.93-1.49,1.31-1.09,1.36-1.89.15-2.05Z"/>
          <path class="cls-7" d="m6.95,15.5l-3.9-.75,2.94.98c.73.24,1.52,1.38,1.79,2.55l.64,2.71c.27,1.17-.18,2.22-.87,2.13l-4.27-.92,4.89,1.49c2.36.47,2.38-.65,2.06-2.03l-.75-3.2c-.32-1.38-1.45-2.7-2.52-2.95Z"/>
          <path class="cls-6" d="m6.02,15.46l-2.98-.71,2.01.94c.73.24,1.52,1.38,1.79,2.55l.64,2.71c.27,1.17-.04,2.04-.74,1.94l-3.57-.72,4.77,1.47c1.07.25,1.67-.66,1.35-2.03l-.75-3.2c-.32-1.38-1.45-2.7-2.52-2.95Z"/>
          <path class="cls-6" d="m1.29,12.9l2.37.33c1.39.2,3.3-.88,4.26-2.4s.6-2.91-.8-3.1l-2.34-.33s0,.02,0,.03c0,0-2.92,2.72-3.5,5.46Z"/>
          <path class="cls-10" d="m6.11,7.75l-1.45-.18c-.57.54-2.78,2.74-3.24,4.97l1.42.18c1.4.18,3.27-.79,4.17-2.16.9-1.37.5-2.63-.9-2.8Z"/>
          <path class="cls-1" d="m6.69,9.8c0-1.01-.91-1.82-2.19-2.08-.16.16-.39.39-.64.67,1.02.11,1.79.7,1.79,1.47,0,.89-1.03,1.68-2.31,1.75-.58.03-1.1-.09-1.5-.31-.12.26-.22.52-.3.78.52.2,1.14.3,1.8.27,1.85-.11,3.35-1.24,3.35-2.54Z"/>
          <path class="cls-2" d="m14.2,6.23c-.44.04-.66.07-.63.07.16,0,.37-.03.63-.07Z"/>
          <path class="cls-6" d="m116.44,27.7c-.25-.93-.6-1.99-.99-3.56-.05-.22-.61-.93-1.53-1.91h-3.11c-1.02,0-1.49.83-1.03,1.86l.78,1.75c.45,1.03,1.65,1.86,2.68,1.86h3.21Z"/>
          <g class="cls-13">
            <path class="cls-8" d="m71.73,7.95C69.67,6.8,52.12-.47,44.27.02c-13.67.87-26.49,5.58-30.07,6.21.79-.07,2.29-.19,4.3-.26,5.98-1.17,21.28-5.42,28.7-4.98,4.73.28,21.25,8.62,22.91,9.24,3.13-.23,5.51-.49,6.36-.69-1.73-.37-3.52-.91-4.74-1.6Z"/>
          </g>
          <g class="cls-13">
            <path class="cls-8" d="m113.92,22.23c1.56,0-8.01-6.71-10.54-7.94-6.25-3.03-9.46-4.03-23.3-4.78-3.29-.18-3.61.04-3.61.04-2.98.68-27.27,3.3-34.23.83-12.29-4.37-24.53-4.47-27.94-4.15-.31.05-.55.08-.72.08-1.57,0-9.54-1.8-8.66,1.12l-.12-.02s0,.02,0,.03c0,0-3.01,2.72-3.5,5.46l.12.02c-.06.3-.11.61-.1.91,0,.83.31,4.35-.21,5.18-.52.82-1.6,1.6-.82,3.28,0,0,0,.01,0,.02,0,.01.02.02.02.03-.05.23,1.65,2.03,3.23,2.32-3.56-2.05-1.69-3.26-1.61-8.51.05-3.02,3.58-6.39,3.58-6.39-.89-2.93,7.04-1.13,8.6-1.13.17,0,.42-.03.72-.08,3.39-.31,13.87-2.02,26.08,2.35,6.91,2.47,32.71,1.65,35.67.98,0,0,.31-.22,3.58-.04,13.75.76,16.93,1.75,23.14,4.78,1.54.75,5.69,3.56,8.33,5.62h2.29Z"/>
          </g>
        </g>
        <path class="cls-11" d="m65.27,9.24c0,1.05-2.04,1.9-3.08,1.9s-1.89-.85-1.89-1.9.84-1.9,1.89-1.9,3.08.85,3.08,1.9Z"/>
        <g class="cls-13">
          <path class="cls-8" d="m60.74,8.48c.29.45.79.75,1.37.75.65,0,1.74-.38,2.3-.93-.59-.49-1.57-.81-2.17-.81-.67,0-1.25.41-1.5,1Z"/>
        </g>
      </g>
      <g>
        <path class="cls-5" d="m33.47,26.02c0,5.36-4.34,9.7-9.7,9.7s-9.7-4.34-9.7-9.7,4.34-9.7,9.7-9.7,9.7,4.34,9.7,9.7Z"/>
        <path class="cls-1" d="m27.97,28.82c-2.01,2.01-1.74-1.52-3.75-3.54s-5.55-1.74-3.54-3.75c2.01-2.01,5.28-2.01,7.29,0,2.01,2.01,2.01,5.28,0,7.29Z"/>
        <path class="cls-4" d="m23.76,18.52c-4.14,0-7.5,3.36-7.5,7.5s3.36,7.5,7.5,7.5,7.5-3.36,7.5-7.5-3.36-7.5-7.5-7.5Zm5.95,10.18l-.78-.57.95.15c-.05.14-.11.28-.17.41Zm-2.72-1.97l-.97-.7.97-.7,3.19-.51c.07.39.11.79.11,1.2s-.04.83-.12,1.22l-3.18-.51Zm-9.34,1.58l1.1-.18-.9.65c-.07-.16-.14-.31-.2-.48Zm-.3-1.05c-.08-.4-.12-.82-.12-1.25s.04-.83.12-1.22l3.34.53.97.7-.97.7-3.34.53Zm.49-4l.91.66-1.11-.18c.06-.16.13-.33.2-.48Zm12.05.51l-.96.15.79-.57c.06.14.12.28.17.42Zm-.69-1.38l-2.63,1.91-1.18.19.19-1.18,1.92-2.65c.67.47,1.25,1.06,1.7,1.74Zm-3.25-1.45l.16-1.02c.15.06.29.12.44.19l-.6.83Zm-.88-1.33l-.52,3.27-.7.97-.7-.97-.52-3.29c.37-.07.75-.11,1.15-.11.45,0,.88.05,1.3.13Zm-3.33,1.33l-.64-.89c.15-.07.31-.13.47-.19l.17,1.07Zm-1.6-.36l1.98,2.72.19,1.18-1.18-.19-2.74-1.98c.47-.68,1.07-1.27,1.76-1.73Zm-1.74,9.16l2.72-1.97,1.18-.19-.19,1.18-1.96,2.7c-.69-.46-1.28-1.04-1.76-1.72Zm3.34,1.38l-.17,1.05c-.16-.06-.31-.11-.46-.18l.63-.86Zm.89,1.32l.52-3.26.7-.97.7.97.52,3.24c-.42.08-.85.13-1.3.13-.39,0-.77-.04-1.14-.11Zm3.33-1.32l.58.81c-.14.07-.28.13-.43.18l-.16-.99Zm1.53.27l-1.91-2.63-.19-1.18,1.18.19,2.62,1.9c-.46.68-1.04,1.26-1.7,1.73Z"/>
        <path class="cls-9" d="m25.19,29.28l1.12,1.54-.82.34-.3-1.88Zm-3.81,1.54l1.12-1.54-.3,1.88-.82-.34Zm2.46-3.66l-1.09,1.5.29-1.83-1.83.29,1.5-1.09-1.5-1.09,1.83.29-.29-1.83,1.09,1.5,1.09-1.5-.29,1.83,1.83-.29-1.5,1.09,1.5,1.09-1.83-.29.29,1.83-1.09-1.5Zm3.25.22l1.88.3-.34.82-1.54-1.12Zm-8.37.3l1.88-.3-1.54,1.12-.34-.82Zm0-3.29l.34-.82,1.54,1.12-1.88-.3Zm9.91-.82l.34.82-1.88.3,1.54-1.12Zm-3.14-2.66l.82.34-1.12,1.54.3-1.88Zm-4.11.34l.82-.34.3,1.88-1.12-1.54Z"/>
        <path class="cls-3" d="m23.76,17.69c4.98,0,9.04,3.91,9.31,8.83,0-.17.03-.33.03-.5,0-5.15-4.18-9.33-9.33-9.33s-9.33,4.18-9.33,9.33c0,.17.02.34.03.5.26-4.92,4.32-8.83,9.31-8.83Z"/>
        <path class="cls-3" d="m23.76,33.55c-4.03,0-7.32-3.16-7.53-7.14,0,.14-.02.27-.02.41,0,4.17,3.38,7.55,7.55,7.55s7.55-3.38,7.55-7.55c0-.14-.01-.27-.02-.41-.21,3.98-3.5,7.14-7.53,7.14Z"/>
      </g>
      <g>
        <circle class="cls-5" cx="91.81" cy="26.02" r="9.7" transform="translate(58.29 115.36) rotate(-85.26)"/>
        <path class="cls-1" d="m96.01,28.82c-2.01,2.01-1.74-1.52-3.75-3.54-2.01-2.01-5.55-1.74-3.54-3.75,2.01-2.01,5.28-2.01,7.29,0,2.01,2.01,2.01,5.28,0,7.29Z"/>
        <path class="cls-4" d="m91.81,18.52c-4.14,0-7.5,3.36-7.5,7.5s3.36,7.5,7.5,7.5,7.5-3.36,7.5-7.5-3.36-7.5-7.5-7.5Zm5.95,10.18l-.78-.57.95.15c-.05.14-.11.28-.17.41Zm-2.72-1.97l-.97-.7.97-.7,3.19-.51c.07.39.11.79.11,1.2s-.04.83-.12,1.22l-3.18-.51Zm-9.34,1.58l1.1-.18-.9.65c-.07-.16-.14-.31-.2-.48Zm-.3-1.05c-.08-.4-.12-.82-.12-1.25s.04-.83.12-1.22l3.34.53.97.7-.97.7-3.34.53Zm.49-4l.91.66-1.11-.18c.06-.16.13-.33.2-.48Zm12.05.51l-.96.15.79-.57c.06.14.12.28.17.42Zm-.69-1.38l-2.63,1.91-1.18.19.19-1.18,1.92-2.65c.67.47,1.25,1.06,1.7,1.74Zm-3.25-1.45l.16-1.02c.15.06.29.12.44.19l-.6.83Zm-.88-1.33l-.52,3.27-.7.97-.7-.97-.52-3.29c.37-.07.75-.11,1.15-.11.45,0,.88.05,1.3.13Zm-3.33,1.33l-.64-.89c.15-.07.31-.13.47-.19l.17,1.07Zm-1.6-.36l1.97,2.72.19,1.18-1.18-.19-2.74-1.98c.47-.68,1.07-1.27,1.76-1.73Zm-1.74,9.16l2.72-1.97,1.18-.19-.19,1.18-1.96,2.7c-.69-.46-1.29-1.04-1.76-1.72Zm3.34,1.38l-.17,1.05c-.16-.06-.31-.11-.46-.18l.63-.86Zm.89,1.32l.52-3.26.7-.97.7.97.52,3.24c-.42.08-.85.13-1.3.13-.39,0-.77-.04-1.14-.11Zm3.33-1.32l.58.81c-.14.07-.28.13-.43.18l-.16-.99Zm1.53.27l-1.91-2.63-.19-1.18,1.18.19,2.62,1.9c-.46.68-1.04,1.26-1.7,1.73Z"/>
        <path class="cls-9" d="m93.23,29.28l1.12,1.54-.82.34-.3-1.88Zm-3.81,1.54l1.12-1.54-.3,1.88-.82-.34Zm2.46-3.66l-1.09,1.5.29-1.83-1.83.29,1.5-1.09-1.5-1.09,1.83.29-.29-1.83,1.09,1.5,1.09-1.5-.29,1.83,1.83-.29-1.5,1.09,1.5,1.09-1.83-.29.29,1.83-1.09-1.5Zm3.25.22l1.88.3-.34.82-1.54-1.12Zm-8.37.3l1.88-.3-1.54,1.12-.34-.82Zm0-3.29l.34-.82,1.54,1.12-1.88-.3Zm9.91-.82l.34.82-1.88.3,1.54-1.12Zm-3.14-2.66l.82.34-1.12,1.54.3-1.88Zm-4.11.34l.82-.34.3,1.88-1.12-1.54Z"/>
        <path class="cls-3" d="m91.81,17.69c4.98,0,9.04,3.91,9.31,8.83,0-.17.03-.33.03-.5,0-5.15-4.18-9.33-9.33-9.33s-9.33,4.18-9.33,9.33c0,.17.02.34.03.5.26-4.92,4.32-8.83,9.31-8.83Z"/>
        <path class="cls-3" d="m91.81,33.55c-4.03,0-7.32-3.16-7.53-7.14,0,.14-.02.27-.02.41,0,4.17,3.38,7.55,7.55,7.55s7.55-3.38,7.55-7.55c0-.14-.01-.27-.02-.41-.21,3.98-3.5,7.14-7.53,7.14Z"/>
      </g>
      <g class="cls-13">
        <path class="cls-8" d="m37.33,22.24c-1.63-3.77-5.82-10.89-18.5-9.34,10.05-2.01,16.04,1.51,19.8,8.35,2.28,4.15,24.13,4.49,42.48,7.07-9.38.2-41.86-1.66-43.78-6.08Z"/>
      </g>
      <path class="cls-6" d="m79.9,28.26s.1-.02.14-.03c-8.73-.5-18.71-.9-26.95-1.67,8.07.8,18,1.22,26.82,1.71Z"/>
      <g class="cls-13">
        <path class="cls-8" d="m11.68,26.91c-.82-7.55,5.65-13.24,11.49-13.24.44,0,.87.02,1.28.05-.75-.09-1.53-.15-2.36-.15-5.83,0-12.3,5.68-11.49,13.22.35.04.71.08,1.08.12Z"/>
      </g>
      <g class="cls-13">
        <path class="cls-8" d="m91.72,15.9c5.81,0,10.54,4.62,10.72,10.39.01-.2.02-.41.02-.61,0-5.93-4.81-10.74-10.74-10.74s-10.74,4.81-10.74,10.74c0,.16.02.32.02.47.26-5.7,4.95-10.25,10.71-10.25Z"/>
      </g>
    </g>
  </g>
</svg>