<?xml version="1.0" encoding="UTF-8"?>
<svg xmlns="http://www.w3.org/2000/svg" viewBox="0 0 822.51 536.48">
  <defs>
    <style>
      .cls-1 {
        fill: #be1e2d;
      }

      .cls-1, .cls-2, .cls-3, .cls-4, .cls-5, .cls-6, .cls-7, .cls-8, .cls-9, .cls-10, .cls-11, .cls-12, .cls-13, .cls-14, .cls-15 {
        stroke-width: 0px;
      }

      .cls-1, .cls-5, .cls-11, .cls-12, .cls-14 {
        mix-blend-mode: multiply;
      }

      .cls-2 {
        fill: #ed1c24;
      }

      .cls-3 {
        fill: #808285;
      }

      .cls-4 {
        fill: #e6e7e8;
      }

      .cls-5, .cls-10 {
        fill: #939598;
      }

      .cls-16 {
        isolation: isolate;
      }

      .cls-7 {
        opacity: .5;
      }

      .cls-7, .cls-9 {
        fill: #fff;
      }

      .cls-8 {
        fill: #1c75bc;
      }

      .cls-12 {
        fill: #d1d3d4;
      }

      .cls-13 {
        fill: #414042;
      }

      .cls-14 {
        fill: #bcbec0;
      }

      .cls-15 {
        fill: #c49a6c;
      }
    </style>
  </defs>
  <g class="cls-16">
    <g id="Layer_2" data-name="Layer 2">
      <g id="bike_6" data-name="bike 6">
        <g>
          <g>
            <g>
              <path class="cls-6" d="m629,439.73c0,53.44,43.32,96.75,96.75,96.75s96.76-43.32,96.76-96.75-43.32-96.75-96.76-96.75-96.75,43.32-96.75,96.75Zm32.48,0c0-35.5,28.78-64.27,64.27-64.27s64.27,28.78,64.27,64.27-28.78,64.27-64.27,64.27-64.27-28.78-64.27-64.27Z"/>
              <path class="cls-3" d="m725.75,372.92c-36.89,0-66.8,29.91-66.8,66.8s29.91,66.8,66.8,66.8,66.8-29.91,66.8-66.8-29.91-66.8-66.8-66.8Zm0,126.85c-33.16,0-60.04-26.88-60.04-60.04s26.88-60.04,60.04-60.04,60.04,26.88,60.04,60.04-26.88,60.04-60.04,60.04Z"/>
            </g>
            <g>
              <circle class="cls-3" cx="725.75" cy="439.73" r="34.14" transform="translate(41.76 941.96) rotate(-67.5)"/>
              <circle class="cls-6" cx="725.75" cy="439.73" r="27.29" transform="translate(41.76 941.96) rotate(-67.5)"/>
            </g>
          </g>
          <g>
            <g>
              <path class="cls-6" d="m26.75,439.73c0,53.44,43.32,96.75,96.75,96.75s96.75-43.32,96.75-96.75-43.32-96.75-96.75-96.75-96.75,43.32-96.75,96.75Zm32.48,0c0-35.5,28.78-64.27,64.27-64.27s64.27,28.78,64.27,64.27-28.78,64.27-64.27,64.27-64.27-28.78-64.27-64.27Z"/>
              <path class="cls-3" d="m123.5,372.92c-36.9,0-66.8,29.91-66.8,66.8s29.91,66.8,66.8,66.8,66.8-29.91,66.8-66.8-29.91-66.8-66.8-66.8Zm0,126.85c-33.16,0-60.04-26.88-60.04-60.04s26.88-60.04,60.04-60.04,60.04,26.88,60.04,60.04-26.88,60.04-60.04,60.04Z"/>
            </g>
            <g>
              <circle class="cls-3" cx="123.5" cy="439.73" r="34.14" transform="translate(-330.02 385.55) rotate(-67.5)"/>
              <circle class="cls-6" cx="123.5" cy="439.73" r="27.29" transform="translate(-97.72 40.14) rotate(-13.28)"/>
            </g>
          </g>
          <path class="cls-10" d="m725.76,449.61c1.78,0,3.58-.48,5.2-1.48,4.64-2.88,6.07-8.97,3.19-13.6l-197.85-319.26c-2.87-4.64-8.97-6.08-13.61-3.19-4.64,2.88-6.07,8.97-3.19,13.6l197.85,319.26c1.87,3.02,5.1,4.68,8.41,4.68Z"/>
          <path class="cls-5" d="m522.69,112.07c4.64-2.88,10.73-1.45,13.61,3.19l187.28,302.19c-4.82,9.32-17.96,8.54-17.96,8.54l-186.12-300.32c-2.88-4.64-1.45-10.73,3.19-13.6Z"/>
          <g>
            <path class="cls-6" d="m487.61,0h2.96c14.02,0,25.39,11.37,25.39,25.39h0c0,4.43,1.76,8.68,4.89,11.82l34.6,34.6-3.04,3.04-34.73-34.73c-3.13-3.13-7.39-4.9-11.82-4.9h-12.62c-11.28,0-20.43-9.14-20.43-20.43h0c0-8.17,6.63-14.8,14.8-14.8Z"/>
            <path class="cls-9" d="m510.09,22.45c-.01-5.21-1.95-10.62-5.79-14.56-1.93-1.94-4.29-3.48-6.88-4.32-2.57-.88-5.34-1.04-7.91-.53,5.14,1.03,9.57,3.2,12.92,6.68,3.43,3.43,5.61,7.92,7.65,12.72Z"/>
          </g>
          <path class="cls-8" d="m775.53,340.3c-14.14,45.17-56.3,77.94-106.13,77.94-17.9,0-34.79-4.25-49.77-11.77,14.14-45.17,56.3-77.94,106.13-77.94,17.9,0,34.79,4.25,49.77,11.77Z"/>
          <path class="cls-5" d="m725.75,328.54c3.47,0,6.88.21,10.27.52-34.56,20.78-64.15,51.67-83.29,87.9-11.73-1.77-22.88-5.34-33.11-10.47,14.14-45.17,56.3-77.94,106.13-77.94Z"/>
          <path class="cls-11" d="m123.5,329.4c-50.87,0-93.69,34.44-106.44,81.27-2.11,7.74-9.03,13.18-17.06,13.18h0c3.82-74.88,66.27-134.43,142.76-134.43s138.95,59.55,142.76,134.43h-52.85c-7.7-53.41-53.64-94.45-109.18-94.45Z"/>
          <path class="cls-6" d="m330.5,255.12c25.06,124.57,95.46,132.49,95.46,132.49l77.16,9.21c20.43,2.44,39.97-9.1,47.7-28.16l11.24-27.72c11.74-28.94,10.08-61.6-4.52-89.2l-50.95-96.33c-3.87-7.66-6.4-15.93-7.48-24.45h0c-4.33-34.3,22.4-64.62,56.97-64.62h12.46l-14.77,59.49v12.91l98.04,98.63-71.23,204.29h-220.97v-36.64h-96.92l-127.07-91.65v-110.84l194.88,52.6Z"/>
          <path class="cls-13" d="m59.23,221.48l288.85,50.42c11.33,1.98,21.7-6.74,21.7-18.24h0c0-26.46-21.15-48.07-47.6-48.64l-115.06-2.49-100.84-19.77c-24.37-4.78-47.05,13.88-47.05,38.72h0Z"/>
          <path class="cls-3" d="m359.61,266.65c0-28.02-23.1-50.9-52-51.51l-125.69-2.64-80.43-15.28c-9.41-1.79-7.4-16.11,2.1-14.9.89.11,1.79.26,2.69.43l100.84,19.77,115.06,2.49c26.45.57,47.6,22.18,47.6,48.64,0,7.47-4.39,13.74-10.56,16.7.24-1.2.39-2.43.39-3.7Z"/>
          <g>
            <path class="cls-6" d="m103.03,410.1v-.34h.71c4.56-2.3,9.62-3.71,14.99-4.04,7.86-31.89,36.64-55.55,70.95-55.55h91.96c14.22,0,25.75,11.53,25.75,25.75h0c0,18.69,15.15,33.84,33.84,33.84h49.49c5.24-2.64,11.15-4.16,17.42-4.16h137.12c6.27,0,12.18,1.52,17.42,4.16h2.81c4.12,0,7.46,3.34,7.46,7.46h0c6.89,7.01,11.15,16.61,11.15,27.22h0c0,21.45-17.39,38.84-38.84,38.84h-137.12c-8.37,0-16.11-2.68-22.45-7.18h-84.35c-6.34,4.51-14.08,7.18-22.45,7.18H121.16c-21.45,0-38.84-17.39-38.84-38.84h0c0-14.9,8.4-27.82,20.7-34.33Z"/>
            <path class="cls-3" d="m190.98,407.14h-21.93c-22.24,0-66.97,5.35-66.97,11.96h85.84c17.48,0,31.65,14.17,31.65,31.65,0,.58-.06,1.15-.09,1.72,1.99-4.15,3.14-8.77,3.14-13.68h0c0-17.48-14.17-31.65-31.65-31.65Z"/>
          </g>
          <path class="cls-8" d="m518.1,135.21h39.92c128.14,59.68,179.88,172.98,179.88,172.98l-66.65,55.88c-36.58,30.67-57.4,75.53-56.89,122.59h0s-108.22,23.84-317.76-49.31c-8.85-3.09-16.39-9.08-21.55-16.9-81.24-123.19-162.91-121.89-192.91-121.89-96.81,0-35.65-16.21-44.97-33.32-6.75-12.4-10.44-26.46-10.44-41.01v-1.67c0-26.49,30.99-28.51,46.94-25.11,68.96,14.72,202.6,44.19,264.67,154.46,16.6,29.48,45.12,50.41,78.44,56.25,36.53,6.4,85.05,12.06,131.38,8.61,16.63-1.24,30.72-12.73,35.23-28.78l34.62-123.41c3.85-13.74.03-28.49-10.01-38.63l-89.91-90.74Z"/>
          <path class="cls-8" d="m555.17,105.07v-.45c0-11.59-9.39-20.98-20.98-20.98h0c5.43-7.26,12.09-13.66,19.85-18.81l23.73-15.74,20.61,26.23c10.71,13.63,16.51,30.48,16.45,47.82-.02,4.75-4.04,8.53-8.79,8.53h-87.88c0-.06,0-.12,0-.17.02-9.33,7.9-16.75,17.24-16.75h10.08c5.35,0,9.69-4.34,9.69-9.69Z"/>
          <path class="cls-14" d="m584.91,489.84h0c-45.17,2.36-142.01-1.43-288.3-52.5-6.98-2.44-13.12-6.69-17.94-12.21,125.28,32.21,222.62,44.64,291.17,48.68,8.48.5,15.08,7.53,15.08,16.03Z"/>
          <path class="cls-12" d="m220.75,308.34c-74.35-43.77-146.74-53.33-188.74-54.63-3.42-9.32-5.27-19.28-5.27-29.49v-1.67c0-1.62.12-3.13.34-4.57,45.25,4.94,134.47,22.51,197.65,85.21,2.74,2.72-.66,7.11-3.99,5.14Z"/>
          <path class="cls-7" d="m737.91,308.19l-5.47,4.59c-16.15-25.27-68.21-99.14-156.38-154.87h23.48c97.89,61.77,138.37,150.29,138.37,150.29Z"/>
          <path class="cls-7" d="m558.03,135.21c14.87,6.92,28.66,14.59,41.51,22.7h-23.48c-12.66-8.01-26.07-15.64-40.23-22.7h22.2Z"/>
          <path class="cls-7" d="m577.77,49.1l-8.81,5.84,20.01,22.21c13.66,15.16,21.34,33.69,22.18,52.9,2.2-1.54,3.68-4.03,3.69-6.9.06-17.34-5.74-34.19-16.45-47.83l-20.61-26.23Z"/>
          <g>
            <g>
              <rect class="cls-3" x="472.81" y="92.16" width="75.41" height="18.39" rx="9.2" ry="9.2" transform="translate(1021.03 202.71) rotate(180)"/>
              <path class="cls-13" d="m548.21,101.26s0,.06,0,.1c0,5.08-4.12,9.2-9.2,9.2h-57.01c-5.08,0-9.2-4.12-9.2-9.2,0-.03,0-.06.01-.1h75.38Z"/>
            </g>
            <circle class="cls-13" cx="482.01" cy="101.36" r="9.2" transform="translate(-10.39 113.45) rotate(-13.28)"/>
            <path class="cls-3" d="m476.26,101.36c0,3.17,2.57,5.75,5.75,5.75s5.75-2.57,5.75-5.75-2.57-5.75-5.75-5.75-5.75,2.57-5.75,5.75Z"/>
          </g>
          <path class="cls-4" d="m608.42,92.16c3.76,8.63,5.86,17.91,6.27,27.41l-26.81-10.13c-7.19-2.72-11.94-9.6-11.94-17.28h32.48Z"/>
          <path class="cls-3" d="m608.42,92.16c.42.96.74,1.96,1.12,2.94h-28.54c0,5.05,1.8,9.76,4.83,13.38-6.01-3.16-9.88-9.4-9.88-16.31h32.48Z"/>
          <path class="cls-7" d="m338.33,351.87c16.62,29.51,45.16,50.46,78.51,56.3,36.52,6.4,85.02,12.05,131.33,8.6,6.7-.5,12.96-2.68,18.38-6.13-24.01,22.3-132.26,19.55-172.72,12.46-36.96-6.47-68.58-29.69-86.99-62.38-59.29-105.29-177.45-144.06-257.87-163.2,8.61-1.94,17.98-1.5,24.71-.07,68.95,14.72,202.57,44.18,264.65,154.42Z"/>
          <path class="cls-7" d="m775.53,340.3c-.95,3.05-2.05,6.03-3.25,8.96-6.71-2.88-13.77-5.12-21.08-6.65-6.15-1.28-10.52-6.77-10.52-13.05h0c12.38,1.67,24.11,5.34,34.85,10.73Z"/>
          <path class="cls-7" d="m171.63,300.65c-57.91-21.88-118.03-23.29-137-23.13,2.65-3.6,4.56-7.45,2.99-11.36,21.57,1.08,93.45,6.69,134.01,34.49Z"/>
          <path class="cls-2" d="m27.09,217.99c4.73.52,9.95,1.17,15.57,2.01,13.48,2,23.49,13.58,23.49,27.21h0c0,4.84-4.2,8.61-9.02,8.14-9.22-.9-17.65-1.4-25.11-1.63-3.42-9.32-5.27-19.28-5.27-29.49v-1.67c0-1.62.12-3.13.34-4.57Z"/>
          <path class="cls-1" d="m38.45,229.1c-4.07-.58-7.92-1.07-11.55-1.49-.05-1.13-.15-2.24-.15-3.38v-1.67c0-1.62.12-3.13.34-4.57,4.73.52,9.95,1.17,15.57,2.01,13.48,2,23.49,13.58,23.49,27.21h0c0,2.76-1.38,5.13-3.45,6.61-1.18-12.52-11.13-22.84-24.26-24.71Z"/>
          <g>
            <path class="cls-6" d="m83.45,473.41h82.54v-47.6h-84.75c-7.45,0-12.97,6.92-11.32,14.19l6.3,27.65c.77,3.37,3.77,5.77,7.23,5.77Z"/>
            <g>
              <g>
                <path class="cls-6" d="m175.33,457.77h62.16c4.51,0,8.16-3.65,8.16-8.16h0c0-4.51-3.65-8.16-8.16-8.16h-62.16c-4.51,0-8.16,3.65-8.16,8.16h0c0,4.51,3.65,8.16,8.16,8.16Z"/>
                <path class="cls-3" d="m175.33,441.45h62.16c2.82,0,5.31,1.43,6.77,3.61-1.47,2.18-3.95,3.61-6.77,3.61h-62.16c-2.82,0-5.31-1.43-6.77-3.61,1.46-2.18,3.95-3.61,6.77-3.61Z"/>
              </g>
              <g>
                <rect class="cls-15" x="87.95" y="425.81" width="99.3" height="47.6" transform="translate(275.19 899.22) rotate(180)"/>
                <rect class="cls-5" x="87.95" y="449.61" width="99.3" height="23.8" transform="translate(275.19 923.02) rotate(180)"/>
                <rect class="cls-7" x="87.95" y="425.81" width="99.3" height="11.5" transform="translate(275.19 863.12) rotate(180)"/>
              </g>
              <g>
                <g>
                  <polygon class="cls-15" points="203.62 458.62 187.25 473.41 187.25 425.81 203.62 440.6 203.62 458.62"/>
                  <polygon class="cls-5" points="203.62 458.62 187.25 473.41 187.25 449.61 203.62 449.61 203.62 458.62"/>
                  <polygon class="cls-7" points="203.62 444.95 187.25 437.31 187.25 425.81 203.62 440.6 203.62 444.95"/>
                </g>
                <polygon class="cls-14" points="203.62 458.62 187.25 473.41 187.25 425.81 203.62 440.6 203.62 458.62"/>
              </g>
            </g>
          </g>
        </g>
      </g>
    </g>
  </g>
</svg>