<?xml version="1.0" encoding="UTF-8"?>
<svg xmlns="http://www.w3.org/2000/svg" viewBox="0 0 950.78 543.76">
  <defs>
    <style>
      .cls-1 {
        fill: #8b5e3c;
      }

      .cls-1, .cls-2, .cls-3, .cls-4, .cls-5, .cls-6, .cls-7, .cls-8, .cls-9, .cls-10 {
        stroke-width: 0px;
      }

      .cls-2 {
        fill: #808285;
      }

      .cls-3 {
        fill: #939598;
      }

      .cls-3, .cls-9 {
        mix-blend-mode: multiply;
      }

      .cls-11 {
        isolation: isolate;
      }

      .cls-5 {
        fill: #fff;
        opacity: .5;
      }

      .cls-6 {
        fill: #a97c50;
      }

      .cls-7 {
        fill: #414042;
      }

      .cls-8 {
        fill: #39b54a;
      }

      .cls-9 {
        fill: #bcbec0;
      }

      .cls-10 {
        fill: #c49a6c;
      }
    </style>
  </defs>
  <g class="cls-11">
    <g id="Layer_2" data-name="Layer 2">
      <g id="bike_10" data-name="bike 10">
        <g>
          <g>
            <g>
              <path class="cls-2" d="m801.2,282.18c-61.86,0-112,50.15-112,112s50.15,112,112,112,112-50.15,112-112-50.15-112-112-112Zm0,212.67c-55.6,0-100.66-45.07-100.66-100.66s45.07-100.66,100.66-100.66,100.66,45.07,100.66,100.66-45.07,100.66-100.66,100.66Z"/>
              <path class="cls-4" d="m656.56,401.39c.39,7.94,1.44,15.71,3.06,23.27l-4.76,1.28,3.73,13.92,4.75-1.27c2.42,7.51,5.44,14.75,9,21.67l-4.28,2.47,7.21,12.48,4.29-2.48c4.26,6.59,9.02,12.83,14.27,18.63l-3.49,3.49,10.19,10.19,3.49-3.49c5.8,5.25,12.04,10.01,18.63,14.27l-2.48,4.29,12.48,7.21,2.47-4.28c6.92,3.56,14.16,6.58,21.67,9l-1.27,4.75,13.92,3.73,1.28-4.76c7.56,1.62,15.32,2.67,23.27,3.06v4.94h14.41v-4.94c7.94-.39,15.71-1.44,23.27-3.06l1.28,4.76,13.92-3.73-1.27-4.75c7.51-2.42,14.75-5.45,21.67-9l2.47,4.28,12.48-7.21-2.48-4.29c6.59-4.26,12.83-9.02,18.63-14.27l3.49,3.49,10.19-10.19-3.49-3.49c5.25-5.8,10-12.04,14.27-18.63l4.29,2.48,7.21-12.48-4.28-2.47c3.56-6.92,6.58-14.16,9-21.67l4.75,1.27,3.73-13.92-4.76-1.28c1.62-7.56,2.67-15.32,3.06-23.27h4.94v-14.41h-4.94c-.39-7.94-1.44-15.71-3.06-23.27l4.76-1.28-3.73-13.92-4.75,1.27c-2.42-7.51-5.45-14.75-9-21.67l4.28-2.47-7.21-12.48-4.29,2.48c-4.27-6.59-9.02-12.83-14.27-18.63l3.49-3.49-10.19-10.19-3.49,3.49c-5.8-5.25-12.04-10.01-18.63-14.27l2.48-4.29-12.48-7.21-2.47,4.28c-6.92-3.56-14.16-6.58-21.67-9l1.27-4.75-13.92-3.73-1.28,4.76c-7.56-1.62-15.32-2.67-23.27-3.06v-4.94h-14.41v4.94c-7.95.39-15.71,1.44-23.27,3.06l-1.28-4.76-13.92,3.73,1.27,4.75c-7.51,2.42-14.75,5.45-21.67,9l-2.47-4.28-12.48,7.21,2.48,4.29c-6.59,4.26-12.83,9.02-18.63,14.27l-3.49-3.49-10.19,10.19,3.49,3.49c-5.25,5.8-10.01,12.04-14.27,18.63l-4.29-2.48-7.21,12.48,4.28,2.47c-3.56,6.92-6.58,14.16-9,21.67l-4.75-1.27-3.73,13.92,4.76,1.28c-1.62,7.56-2.67,15.32-3.06,23.27h-4.93v14.41h4.93Zm35.38-7.21c0-60.34,48.92-109.26,109.26-109.26s109.26,48.92,109.26,109.26-48.92,109.26-109.26,109.26-109.26-48.92-109.26-109.26Z"/>
            </g>
            <g>
              <circle class="cls-10" cx="801.2" cy="394.18" r="48.76"/>
              <circle class="cls-4" cx="801.2" cy="394.18" r="38.97" transform="translate(-69.13 194.62) rotate(-13.28)"/>
            </g>
          </g>
          <g>
            <g>
              <path class="cls-4" d="m4.94,401.39c.39,7.94,1.44,15.71,3.06,23.27l-4.76,1.28,3.73,13.92,4.75-1.27c2.42,7.51,5.44,14.75,9,21.67l-4.28,2.47,7.21,12.48,4.29-2.48c4.26,6.59,9.02,12.83,14.27,18.63l-3.49,3.49,10.19,10.19,3.49-3.49c5.8,5.25,12.04,10.01,18.63,14.27l-2.48,4.29,12.48,7.21,2.47-4.28c6.92,3.56,14.16,6.58,21.67,9l-1.27,4.75,13.92,3.73,1.28-4.76c7.56,1.62,15.32,2.67,23.27,3.06v4.94h14.41v-4.94c7.94-.39,15.71-1.44,23.27-3.06l1.28,4.76,13.92-3.73-1.27-4.75c7.51-2.42,14.75-5.45,21.67-9l2.47,4.28,12.48-7.21-2.48-4.29c6.59-4.26,12.83-9.02,18.63-14.27l3.49,3.49,10.19-10.19-3.49-3.49c5.25-5.8,10-12.04,14.27-18.63l4.29,2.48,7.21-12.48-4.28-2.47c3.56-6.92,6.58-14.16,9-21.67l4.75,1.27,3.73-13.92-4.76-1.28c1.62-7.56,2.67-15.32,3.06-23.27h4.93v-14.41h-4.93c-.39-7.94-1.44-15.71-3.06-23.27l4.76-1.28-3.73-13.92-4.75,1.27c-2.42-7.51-5.44-14.75-9-21.67l4.28-2.47-7.21-12.48-4.29,2.48c-4.27-6.59-9.02-12.83-14.27-18.63l3.49-3.49-10.19-10.19-3.49,3.49c-5.8-5.25-12.04-10.01-18.63-14.27l2.48-4.29-12.48-7.21-2.47,4.28c-6.92-3.56-14.16-6.58-21.67-9l1.27-4.75-13.92-3.73-1.28,4.76c-7.56-1.62-15.32-2.67-23.27-3.06v-4.94h-14.41v4.94c-7.94.39-15.71,1.44-23.27,3.06l-1.28-4.76-13.92,3.73,1.27,4.75c-7.51,2.42-14.75,5.45-21.67,9l-2.47-4.28-12.48,7.21,2.48,4.29c-6.59,4.26-12.83,9.02-18.63,14.27l-3.49-3.49-10.19,10.19,3.49,3.49c-5.25,5.8-10.01,12.04-14.27,18.63l-4.29-2.48-7.21,12.48,4.28,2.47c-3.56,6.92-6.58,14.16-9,21.67l-4.75-1.27-3.73,13.92,4.76,1.28c-1.62,7.56-2.67,15.32-3.06,23.27H0v14.41h4.94Zm144.64-99c50.7,0,91.8,41.1,91.8,91.8s-41.1,91.8-91.8,91.8-91.8-41.1-91.8-91.8,41.1-91.8,91.8-91.8Z"/>
              <path class="cls-2" d="m149.57,298.77c-52.7,0-95.41,42.72-95.41,95.41s42.72,95.41,95.41,95.41,95.41-42.72,95.41-95.41-42.72-95.41-95.41-95.41Zm0,181.17c-47.36,0-85.76-38.39-85.76-85.76s38.39-85.76,85.76-85.76,85.76,38.39,85.76,85.76-38.39,85.76-85.76,85.76Z"/>
            </g>
            <g>
              <circle class="cls-10" cx="149.57" cy="394.18" r="48.76"/>
              <circle class="cls-4" cx="149.57" cy="394.18" r="38.97" transform="translate(-271.7 377.29) rotate(-66.92)"/>
            </g>
          </g>
          <g>
            <path class="cls-8" d="m748.28,136.3h41.09c12.53,0,24.95,2.33,36.63,6.86l42.6,16.54-25.03-22.71c-20.67-18.75-47.57-29.14-75.48-29.14h-64.74c-35.52,0-67.27,22.15-79.53,55.48l-41.34,112.36h0c22.47,0,42.79-13.36,51.7-33.98l18.37-42.51c16.5-38.18,54.12-62.91,95.72-62.91Z"/>
            <path class="cls-5" d="m703.36,107.85h64.74c27.9,0,54.81,10.39,75.48,29.14l25.03,22.71-15.24-5.92c-5.91-2.3-11.35-5.65-16.06-9.91l-.32-.29c-20.74-18.76-47.7-29.14-75.66-29.14h-57.35c-3.52,0-6.37-2.85-6.37-6.37h0c1.91-.13,3.83-.22,5.76-.22Z"/>
            <path class="cls-3" d="m623.82,163.34c5.07-13.79,13.52-25.63,24.15-34.81l24.28,40.76c-8.09,8.63-14.83,18.67-19.69,29.93l-18.37,42.51c-8.91,20.63-29.23,33.98-51.7,33.98l41.34-112.36Z"/>
          </g>
          <path class="cls-4" d="m92.93,139.81l-67.83,16.6c0-3.18,1.89-6.06,4.81-7.33l38.87-16.84c-11.79-3.88-20.27-7.05-24.07-9.18-5.56-3.11-2.98-11.66,3.34-11.1l352.12,26.4,144.05-33.54c42.08-4.39,86.47,49.74,106.8,78.35,6.42,9.03,3.28,21.31-6.76,26.59h0c-22.87,12.02-49.35,16.35-75.14,12.3l-7.12-.26-9.64,35.14c-2.49,9.08,4.34,18.04,13.76,18.04h0c8.22,0,14.89,6.67,14.89,14.89v46.23c0,4.5-3.65,8.15-8.15,8.15h-45.12c-10.72,25.47-35.75,42.52-63.97,42.52h-39.38c-13.13,0-23.64-10.88-23.2-24l1.58-46.38h-30.86c-22.69,0-41.05-18.51-40.81-41.26.15-14.42,12.01-25.99,26.43-25.99h31.16c9.13,0,16.62-7.24,16.94-16.37h0c.31-9.15-6.85-16.83-16-17.16l-19.28-.69s-185.44-47.3-277.41-75.11Z"/>
          <g>
            <path class="cls-4" d="m124.53,205.74l132.86,56.8,20.14-47.11-135.26-57.82c-8.09-3.46-17.01.83-18.29,8.79l-4.86,30.28c-.59,3.69,1.65,7.46,5.41,9.06Z"/>
            <g>
              <path class="cls-1" d="m277.92,251.36l81.33,34.77c3.69,1.58,7.96-.14,9.54-3.83h0c1.58-3.69-.14-7.96-3.83-9.54l-81.33-34.77c-3.69-1.58-7.96.14-9.54,3.83h0c-1.58,3.69.14,7.96,3.83,9.54Z"/>
              <path class="cls-5" d="m283.63,238l81.33,34.77c2.31.99,3.85,3.03,4.28,5.33-1.96,1.27-4.5,1.57-6.81.59l-81.33-34.77c-2.31-.99-3.85-3.03-4.28-5.33,1.96-1.27,4.5-1.57,6.81-.59Z"/>
            </g>
            <g>
              <rect class="cls-10" x="132.87" y="190.95" width="164.28" height="51.23" transform="translate(327.58 500.21) rotate(-156.85)"/>
              <rect class="cls-3" x="127.83" y="215.54" width="164.28" height="25.61" transform="translate(313.29 520.84) rotate(-156.85)"/>
              <rect class="cls-5" x="140.5" y="192.52" width="164.28" height="12.37" transform="translate(349.26 468.93) rotate(-156.85)"/>
            </g>
            <g>
              <g>
                <polygon class="cls-10" points="300.14 263.5 280.47 272.41 300.6 225.3 307.76 245.67 300.14 263.5"/>
                <polygon class="cls-3" points="300.14 263.5 280.47 272.41 290.54 248.85 303.95 254.59 300.14 263.5"/>
                <polygon class="cls-5" points="305.92 249.98 295.74 236.68 300.6 225.3 307.76 245.67 305.92 249.98"/>
              </g>
              <polygon class="cls-9" points="300.14 263.5 280.47 272.41 300.6 225.3 307.76 245.67 300.14 263.5"/>
            </g>
          </g>
          <g>
            <path class="cls-4" d="m484.17,347.52l-324.79,84.38c-20.67,5.37-41.79-7.03-47.16-27.71h0c-5.37-20.67,7.03-41.79,27.71-47.16l324.79-84.38c20.67-5.37,41.79,7.03,47.16,27.71h0c5.37,20.67-7.03,41.79-27.71,47.16Z"/>
            <path class="cls-2" d="m139.93,357.04l271.77-70.61h0c0,4.81-3.25,9.02-7.91,10.23l-270.45,70.26c-7.52,1.95-13.92,6.01-18.8,11.35,4.69-10.15,13.72-18.2,25.39-21.23Z"/>
          </g>
          <g>
            <path class="cls-4" d="m394.88,380.46l-95.08-206.01c-1.26-2.72-1.21-5.87.13-8.55,1.34-2.69,3.82-4.62,6.75-5.25l322.89-69.78c3.52-.75,7.18.46,9.54,3.17,2.37,2.72,3.06,6.51,1.82,9.89l-79.29,216.31c-18.38,50.14-66.6,83.82-120,83.82h-9.88c-15.79,0-30.28-9.27-36.9-23.61Zm-71.96-203.09l89.91,194.81c3.41,7.39,10.81,12.13,18.95,12.13h9.88c45.14,0,85.91-28.48,101.44-70.86l43.08-117.53c13.03-35.55-18.26-71.5-55.26-63.5l-208,44.95Z"/>
            <path class="cls-2" d="m299.93,165.9c1.34-2.69,3.82-4.62,6.75-5.25l322.89-69.78c3.52-.75,7.18.46,9.54,3.17,2.37,2.72,3.06,6.51,1.82,9.89l-.65,1.78c-.34-.62-.7-1.24-1.17-1.78-2.36-2.72-6.02-3.92-9.54-3.17l-322.89,69.78c-2.76.6-5.09,2.37-6.47,4.81l-.41-.9c-1.26-2.72-1.21-5.87.13-8.55Z"/>
            <polygon class="cls-2" points="603.99 147.31 607.62 147.31 607.51 147.61 603.88 147.61 603.99 147.31"/>
            <path class="cls-2" d="m327.07,186.35l85.76,185.82c3.4,7.37,10.84,12.13,18.95,12.13h9.88c45.14,0,85.9-28.48,101.44-70.86l60.78-165.84h3.63l-64.41,175.73c-15.53,42.38-56.3,70.86-101.44,70.86h-9.88c-8.11,0-15.55-4.76-18.95-12.13l-89.91-194.81,4.15-.9Z"/>
          </g>
          <g>
            <circle class="cls-4" cx="464.49" cy="328.21" r="52.34" transform="translate(-91.07 206.45) rotate(-22.88)"/>
            <path class="cls-2" d="m464.48,284.55c-19.51,0-36.87,9.07-48.19,23.2,7.97-18.74,26.54-31.88,48.19-31.88s40.22,13.14,48.19,31.88c-11.32-14.13-28.68-23.2-48.19-23.2Z"/>
            <path class="cls-2" d="m464.49,365.22c15.12,0,28.58-7.03,37.34-17.98-6.17,14.52-20.57,24.71-37.34,24.71s-31.17-10.19-37.34-24.71c8.77,10.95,22.23,17.98,37.34,17.98Z"/>
          </g>
          <g>
            <path class="cls-6" d="m569.47,340.96c1.69,0,3.38-.51,4.85-1.59,3.67-2.68,4.48-7.83,1.79-11.51l-26.24-35.93c-18.64-25.52-48.63-40.76-80.24-40.76h-21.77c-17.77,0-35.25,4.76-50.57,13.76l-17.83,10.47c-3.92,2.3-5.23,7.35-2.93,11.27,2.3,3.92,7.35,5.24,11.27,2.93l17.83-10.47c12.79-7.51,27.39-11.48,42.23-11.48h21.77c26.36,0,51.39,12.71,66.94,34.01l26.24,35.94c1.61,2.21,4.12,3.38,6.66,3.38Z"/>
            <path class="cls-5" d="m574.32,339.37c-.22.16-.44.28-.67.41l-26.85-38.25c-18.52-26.38-48.32-42.13-79.72-42.13h-21.63c-17.65,0-35.02,4.92-50.24,14.22l-19.26,11.77c-1.39-3.68,0-7.93,3.52-10l17.82-10.47c15.32-9,32.81-13.76,50.57-13.76h21.77c31.61,0,61.6,15.24,80.24,40.76l26.24,35.93c2.68,3.67,1.88,8.83-1.79,11.51Z"/>
          </g>
          <g>
            <path class="cls-8" d="m396.09,180.23l-12.64,48.37c-6.72,25.71-34.32,39.83-59.1,30.24l-29.6-11.46c-104.36-50.75-181.85-123.51-181.85-123.51l154.07,16.38,129.13,39.98Z"/>
            <path class="cls-3" d="m266.96,163.32l-123.23-13.1c-19.62-15.82-30.84-26.35-30.84-26.35l154.07,16.38,129.13,39.98-5.58,21.35-123.55-38.25Z"/>
            <path class="cls-5" d="m137.98,115.6c20.88,18.52,93.09,79.61,185.25,124.43l30.44,11.78c-6.39.49-13-.37-19.43-2.86l-29.6-11.46c-104.36-50.75-181.85-123.51-181.85-123.51l15.2,1.62Z"/>
          </g>
          <path class="cls-8" d="m403.88,132.74l145.54-35.75c42.52-4.67,87.37,53.02,107.91,83.52,6.49,9.63,3.32,22.72-6.83,28.34h0c-23.1,12.81-49.86,17.43-75.92,13.11l-178.49-41.73S88.56,133.78,66.46,118.85c-1.55-1.05-2.47-2.84-2.47-4.71h0c0-3.33,2.85-5.94,6.16-5.65l333.72,24.26Z"/>
          <path class="cls-5" d="m654.04,187.09c-20.54-30.49-65.39-88.19-107.91-83.52l-145.54,35.75-333.72-24.26c-.96-.08-1.87.1-2.69.45-.11-.45-.17-.92-.17-1.39,0-3.33,2.85-5.94,6.16-5.65l333.72,24.25,145.54-35.75c42.52-4.67,87.37,53.02,107.91,83.52,4.91,7.28,4.28,16.55-.71,23.06,1.54-5.39.83-11.41-2.59-16.47Z"/>
          <g>
            <path class="cls-4" d="m367.41,161.54l-253.49-35.3c-8.87-1.24-15.89-7.63-18.2-15.9l308.17,22.4,108.29-26.6c-1.2,4.96-4.59,9.21-9.38,11.37l-80.29,36.2c-17.25,7.78-36.36,10.49-55.09,7.83Z"/>
            <path class="cls-7" d="m366.49,158.24l-249.83-35.3c-.09-.01-.17-.03-.26-.04-9.04-1.39-7.2-15.08,1.92-14.41l247.96,18.29c23.95,1.77,48.03-.29,71.33-6.1l59.52-14.83c5.2-1.3,7.8,6.05,2.93,8.31l-.14.07-79.13,36.2c-17,7.78-35.83,10.49-54.3,7.83Z"/>
            <path class="cls-5" d="m427.72,127.27c-23.3,5.81-47.38,7.87-71.33,6.1l-238.46-17.59c-4.67-.34-4.43-7.57.25-7.3.05,0,.09,0,.14,0l247.96,18.29c23.95,1.77,48.02-.29,71.32-6.1l59.52-14.84c5.2-1.3-69.41,21.43-69.41,21.43Z"/>
          </g>
          <g>
            <path class="cls-10" d="m801.21,404.07c1.68,0,3.38-.43,4.93-1.33,4.73-2.73,6.35-8.77,3.62-13.5L587.89,4.94c-2.73-4.72-8.77-6.35-13.5-3.62-4.73,2.73-6.35,8.77-3.62,13.5l221.88,384.3c1.83,3.17,5.15,4.94,8.57,4.94Z"/>
            <rect class="cls-4" x="637.61" y="46.44" width="32.94" height="185.84" transform="translate(17.95 345.71) rotate(-30)"/>
            <path class="cls-5" d="m806.69,402.35L575,1.05c4.63-2.27,10.27-.63,12.88,3.89l221.88,384.3c2.61,4.53,1.2,10.23-3.07,13.11Z"/>
          </g>
          <g>
            <g>
              <path class="cls-2" d="m564.02,31.65l20.42-12.43c4.34-2.64,5.71-8.3,3.07-12.64h0c-2.64-4.34-8.3-5.71-12.64-3.07l-20.42,12.43c-4.34,2.64-5.71,8.3-3.07,12.64h0c2.64,4.34,8.3,5.71,12.64,3.07Z"/>
              <path class="cls-4" d="m587.45,6.51s.04.05.06.08c2.64,4.34,1.27,10-3.07,12.64l-20.42,12.43c-4.34,2.64-10,1.27-12.64-3.07-.02-.03-.03-.06-.04-.09l36.12-21.99Z"/>
            </g>
            <path class="cls-7" d="m551.38,28.58c2.64,4.34,8.3,5.71,12.64,3.07,4.34-2.64,5.71-8.3,3.07-12.64-2.64-4.34-8.3-5.71-12.64-3.07-4.34,2.64-5.71,8.3-3.07,12.64Z"/>
            <path class="cls-2" d="m554.32,26.79c1.65,2.71,5.19,3.57,7.9,1.92s3.57-5.19,1.92-7.9c-1.65-2.71-5.19-3.57-7.9-1.92s-3.57,5.19-1.92,7.9Z"/>
          </g>
        </g>
      </g>
    </g>
  </g>
</svg>