<?xml version="1.0" encoding="UTF-8"?>
<svg id="Layer_2" data-name="Layer 2" xmlns="http://www.w3.org/2000/svg" viewBox="0 0 148.64 476.58">
  <defs>
    <style>
      .cls-1 {
        fill: #30323e;
      }

      .cls-1, .cls-2, .cls-3, .cls-4, .cls-5, .cls-6, .cls-7, .cls-8, .cls-9, .cls-10, .cls-11, .cls-12 {
        stroke-width: 0px;
      }

      .cls-2 {
        fill: #3d4a61;
      }

      .cls-3 {
        fill: #005f5b;
      }

      .cls-4 {
        fill: #382823;
      }

      .cls-5 {
        fill: #004243;
      }

      .cls-6 {
        fill: #ee795c;
      }

      .cls-7 {
        fill: #fda98b;
      }

      .cls-8 {
        fill: #fff;
      }

      .cls-9 {
        fill: #373535;
      }

      .cls-10 {
        fill: #bcbec0;
      }

      .cls-11 {
        fill: #353b49;
      }

      .cls-12 {
        fill: #323d4d;
      }
    </style>
  </defs>
  <g id="Layer_1-2" data-name="Layer 1">
    <g>
      <path class="cls-7" d="m97.65,55.95c-.14,11.33-3.89,19.73,16.94,29.53-12.4,17.06-24.62,23.37-24.62,23.37,0,0-26.13-11.76-35.11-19.54,11.05-8.04,19.07-9,18.87-19.78-.05-2.59.07-13.16.14-13.37l23.77-.21Z"/>
      <path class="cls-7" d="m101.5,17.26c-10.09-14.11-33.89-10.54-36.67,11.1-2.75,21.47,7.64,38.38,13.68,40.04,5.47,1.5,10.87,2.16,15.44-.93,12.01-8.12,16.65-37.48,7.54-50.21Z"/>
      <path class="cls-1" d="m70.47,3.46c-1.76,6.66-10.97,4.86-9.2,13.38l3.41,26.63c.47-5.4,1.28-17.34,3.78-18.53,8.58-4.09,25.07-3.29,32.25.15,2.12,1.02,4.83,19.55,4.83,19.55,12.7-30.85.62-32.42,1.24-38.47.74-7.24-9.13,1.38-13.28-4.53-1.16-1.65-6.26,2-7.43-.07-2.21-3.9-8.95.46-9.33,2.11-1.25-1.65-5.63-2.64-6.27-.22Z"/>
      <path class="cls-1" d="m79.94,30.5c-4.64-1.02-12.6,3.97-10.01,4.49.85.17,3.21-1.26,4.12-1.51,1.82-.51,5.34-.26,6.33-1.45.41-.49.15-1.4-.44-1.53Z"/>
      <path class="cls-1" d="m90.23,32.12c1,1.19,4.52.94,6.34,1.44.91.25,3.28,1.67,4.12,1.5,2.58-.53-5.39-5.55-10.02-4.47-.66.15-.85,1.04-.44,1.53Z"/>
      <g>
        <path class="cls-7" d="m62.38,37.96c4.1-1.21,4.36,7.38,4.37,11.65.02,8.4-10.83-9.75-4.37-11.65Z"/>
        <path class="cls-6" d="m63.25,42.16c.12-.39.71-.21.59.18-.72,2.36,0,3.75.97,4.28.15.08.2.27.12.42-.54.99-2.71-1.5-1.68-4.88Z"/>
        <path class="cls-7" d="m108.17,37.85c-4.1-1.21-4.36,7.38-4.37,11.65-.02,8.4,10.83-9.75,4.37-11.65Z"/>
        <path class="cls-6" d="m107.29,42.05c-.12-.39-.71-.21-.59.18.72,2.36,0,3.75-.97,4.28-.15.08-.2.27-.12.42.54.99,2.71-1.5,1.68-4.88Z"/>
      </g>
      <g>
        <path class="cls-4" d="m75.78,41.59c-1.34,0-2.39-5.11.86-5.11,1.74,0,1.33,5.11-.86,5.11Z"/>
        <path class="cls-4" d="m95.74,41.8c1.34,0,2.39-5.11-.86-5.11-1.74,0-1.33,5.11.86,5.11Z"/>
      </g>
      <path class="cls-6" d="m74.01,65.08c.17-.13.41-.1.54.07,3.53,4.57,15.96,6.12,21.94-.4.34-.38.91.14.57.52-8.82,9.63-25.26,1.52-23.04-.19Z"/>
      <path class="cls-6" d="m83.52,49.91c-.14-.57.83-.62,1.43-.75,2.22-.49,2.32.59,1.29-8.72-.2-1.82-.51-2.79.14-2.84.61-.04.45.68.68,2.75,1.12,10.11,1.14,8.87-3.04,9.86-.22.05-.44-.08-.5-.3Z"/>
      <path class="cls-6" d="m80.77,57.91c-.55-1,.89-.73,9.67-1.66,2.64-.28-5.1,9.95-9.67,1.66Z"/>
      <g>
        <path class="cls-7" d="m120.23,456.71c3.76,2.9,7.87,3.63,13.17.57l-.75-26.05-16.81.47,4.39,25.01Z"/>
        <polygon class="cls-7" points="30.47 456.47 43.78 457.74 46.16 433.01 29.88 433.47 30.47 456.47"/>
        <g>
          <path class="cls-9" d="m135.64,473.18c-1.75,1.28-1.5.92-39.57,2.73-7.62.36-7.96-3.57-4.01-6.02,6.01-3.74,27.71-15.75,29.09-14.94,3.9,2.29,5.87,2.67,11.99,1.82,1-.14,7.75,12.59,2.5,16.41Z"/>
          <path class="cls-8" d="m137.44,466.1c.31,1.12.54,2.28.49,3.49-.05,1.18-.4,2.48-1.32,3.41-.9.95-2.16,1.39-3.33,1.65-1.24.25-2.34.31-3.51.45-4.61.48-9.24.77-13.86,1.1-4.63.18-9.27.41-13.91.37-2.32-.04-4.65-.08-6.98-.26-1.16-.12-2.33-.23-3.49-.55l-.44-.15c-.15-.06-.31-.18-.44-.27-.21-.2-.42-.42-.6-.66-.36-.49-.58-1.12-.48-1.71h.1c-.06.58.19,1.13.56,1.56.18.22.39.41.61.6.12.07.23.14.36.19l.41.12c1.12.24,2.29.29,3.44.34,2.31.09,4.63.06,6.94.01,4.63-.11,9.25-.33,13.87-.59,4.62-.25,9.24-.54,13.86-.88,1.15-.1,2.32-.13,3.45-.32,1.12-.21,2.26-.58,3.09-1.39.85-.78,1.24-1.93,1.36-3.06.11-1.15-.04-2.3-.26-3.43l.1-.02Z"/>
          <path class="cls-8" d="m117.42,464.02c-.06,0-.12-.01-.19-.04-2.12-.85-3.96-2.26-5.33-4.08-.17-.22-.12-.53.1-.7.22-.16.53-.12.7.1,1.26,1.67,2.96,2.97,4.9,3.75.26.1.38.39.28.65-.08.2-.27.31-.46.31Z"/>
          <path class="cls-8" d="m112.99,466.45c-.07,0-.14-.01-.2-.04-.05-.02-4.87-2.25-4.73-4.57.02-.27.27-.48.53-.47.28.02.49.25.47.53-.06,1.05,2.37,2.8,4.14,3.6.25.11.36.41.25.66-.08.19-.27.3-.46.3Z"/>
          <path class="cls-8" d="m109.24,468.38c-1.82-.77-4.21-1.78-5.13-4.05-.1-.26.02-.55.28-.65.26-.1.55.02.65.28.76,1.89,2.93,2.8,4.51,3.47l-.12.49-.19.46Z"/>
          <path class="cls-8" d="m100.33,473.51c-3.12,0-6.45-.34-7.11-3.32-.06-.27.11-.54.38-.59.27-.06.54.11.6.38.57,2.63,4.25,2.57,7.49,2.52.44,0,.86,0,1.29-.01.28,0,.5.22.5.5s-.22.5-.5.5c-.39-.01-.83,0-1.27.01-.45,0-.91.01-1.38.01Z"/>
        </g>
        <g>
          <path class="cls-9" d="m46.11,473.08c-1.75,1.28-1.5.92-39.57,2.73-7.62.36-7.96-3.57-4.01-6.02,6.01-3.74,27.71-15.75,29.09-14.94,3.9,2.29,5.88,2.67,11.99,1.82,1-.14,7.75,12.59,2.5,16.41Z"/>
          <path class="cls-8" d="m47.92,466c.31,1.12.54,2.28.49,3.49-.05,1.18-.4,2.48-1.32,3.41-.9.95-2.16,1.39-3.33,1.65-1.24.25-2.34.31-3.51.45-4.61.48-9.24.77-13.86,1.1-4.63.18-9.27.41-13.91.37-2.32-.04-4.65-.08-6.98-.26-1.16-.12-2.33-.23-3.49-.55l-.44-.15c-.15-.06-.31-.18-.44-.27-.21-.2-.43-.42-.6-.66-.36-.49-.58-1.12-.48-1.71h.1c-.06.58.19,1.13.56,1.56.18.22.39.41.61.6.12.07.23.14.36.19l.41.12c1.12.24,2.29.29,3.44.34,2.31.09,4.63.06,6.94.01,4.63-.11,9.25-.33,13.87-.59,4.62-.25,9.24-.54,13.86-.88,1.15-.1,2.32-.13,3.45-.32,1.12-.21,2.26-.58,3.09-1.39.85-.78,1.24-1.93,1.36-3.06.11-1.15-.04-2.3-.26-3.43l.1-.02Z"/>
          <path class="cls-8" d="m27.9,463.92c-.06,0-.12-.01-.19-.04-2.12-.85-3.96-2.26-5.33-4.08-.17-.22-.12-.53.1-.7.22-.17.54-.12.7.1,1.26,1.67,2.95,2.97,4.9,3.75.26.1.38.39.28.65-.08.2-.27.31-.46.31Z"/>
          <path class="cls-8" d="m23.46,466.35c-.07,0-.14-.01-.2-.04-.05-.02-4.87-2.25-4.73-4.57.02-.27.26-.49.53-.47.28.02.49.25.47.53-.06,1.05,2.37,2.8,4.14,3.6.25.11.36.41.25.66-.08.19-.27.3-.46.3Z"/>
          <path class="cls-8" d="m19.71,468.28c-1.82-.77-4.21-1.78-5.13-4.05-.1-.26.02-.55.28-.65.26-.1.55.02.65.28.76,1.89,2.93,2.8,4.51,3.47l-.12.49-.19.46Z"/>
          <path class="cls-8" d="m10.81,473.41c-3.12,0-6.45-.34-7.11-3.32-.06-.27.11-.54.38-.59.27-.06.54.11.6.38.57,2.63,4.25,2.58,7.49,2.52.44,0,.86-.03,1.29-.01.28,0,.5.22.5.5s-.22.5-.5.5c-.39,0-.84,0-1.27.01-.45,0-.91.01-1.38.01Z"/>
        </g>
      </g>
      <g>
        <path class="cls-2" d="m46.94,451.22c.59.1,1.16-.28,1.31-.86,22.3-87.38-.63-46.36,32.48-180.4,35.39,189.44,32.8,178.02,34.2,178.04l20.69.31c2.17.03-4.15-241.71-12.42-262.67l-79.45.25c-13.35,40.62-17.21,244.9-17.5,260.85-.02,1.23-.59.99,20.68,4.47Z"/>
        <path class="cls-12" d="m47.12,451.74c-.09,0-.17,0-.26-.02l-6.13-1q-15.01-2.44-14.97-3.88c.4-22.55,4.27-220.75,17.52-261.09l.11-.34,80.15-.26.13.32c4.93,12.5,8.72,100.8,10.11,138.18,2.1,56.26,3.56,123.09,2.29,124.93l-.15.22-.31.02-20.69-.31c-.06.06-.33.21-.63.06q-.89-.42-13.95-70.64c-4.68-25.17-11.03-59.31-19.68-105.6-17.61,71.58-18.9,92.11-20.05,110.25-.96,15.22-1.79,28.36-11.89,67.91-.19.74-.87,1.25-1.61,1.25Zm-3-265.34c-13.35,41.71-17.2,251.43-17.36,260.36,0,.17,0,.27,0,.3.31.42,4.07,1.03,14.12,2.67l6.13,1c.34.06.66-.16.74-.49,10.07-39.46,10.9-52.56,11.86-67.73,1.16-18.37,2.48-39.18,20.63-112.67l.55-2.24.42,2.27c8.86,47.44,15.34,82.29,20.1,107.87,10.37,55.73,12.65,68.02,13.38,69.79.07-.02.15-.03.23-.03l20.35.31c.81-4.74-.16-61.85-2.53-125-2.91-77.48-6.51-127.15-9.89-136.66l-78.74.25Z"/>
      </g>
      <g>
        <path class="cls-12" d="m80.65,265.63c-.25,0-.47-.19-.5-.44-2.22-18.81-1.46-30.75-.9-39.47.48-7.5.77-12.03-1.29-15.76-.13-.24-.05-.55.2-.68.24-.13.55-.05.68.2,2.21,3.99,1.91,8.62,1.42,16.3-.56,8.68-1.32,20.57.89,39.29.03.27-.16.52-.44.55-.02,0-.04,0-.06,0Z"/>
        <path class="cls-12" d="m75.72,237.46c-.68,0-1.32-.13-1.91-.64-1.77-1.54-2.88-6.15-4.01-27.06-.01-.28.2-.51.47-.53.27-.03.51.2.53.47.97,17.95,1.93,24.85,3.67,26.36.53.46,1.14.43,2.16.34.75-.06,1.6-.14,2.58.06.27.05.45.32.39.59-.05.27-.32.45-.59.39-.84-.17-1.58-.1-2.3-.04-.34.03-.67.06-.99.06Z"/>
        <path class="cls-12" d="m45.14,446.9s-.05,0-.07,0c-.27-.04-.46-.29-.43-.56,3.24-23.56,5.95-43.54,8.27-60.57,11.66-85.8,13.16-96.82,20.01-116.14.09-.26.38-.4.64-.3.26.09.4.38.3.64-6.82,19.22-8.32,30.23-19.96,115.94-2.31,17.04-5.03,37.01-8.27,60.58-.03.25-.25.43-.49.43Z"/>
        <path class="cls-12" d="m126.7,232.01c-.17,0-.33-.08-.42-.23-5.42-8.48-12.44-18.82-18.32-26.98-.16-.22-.11-.54.11-.7.23-.16.54-.11.7.11,5.89,8.18,12.92,18.54,18.35,27.03.15.23.08.54-.15.69-.08.05-.18.08-.27.08Z"/>
      </g>
      <g>
        <path class="cls-3" d="m69.85,79.48c4.77,13.24,27.77,11.41,35.24.52,8.95,3.1,22,10.4,26.01,13.61,6.79,16.93,6.19,118.79-3.92,118.36-27.09-1.13-96.24,17.83-90.02-18.22,5.83-33.81-5.53-91.82,4.73-105.31,2.63-3.46,27.96-8.96,27.96-8.96Z"/>
        <path class="cls-5" d="m68.95,216.47c-12.51,0-23.24-1.79-28.78-7.72-3.42-3.66-4.6-8.74-3.51-15.09,2.62-15.17,1.77-34.91.95-54.01-1.01-23.59-1.88-43.96,3.87-51.52,2.67-3.5,25.64-8.58,28.25-9.15l.43-.09.15.41c1.75,4.86,6.18,7.98,12.46,8.79,8.59,1.1,17.8-2.42,21.89-8.38l.22-.31.36.12c9.1,3.15,22.14,10.48,26.15,13.69l.1.08.05.12c6.37,15.88,6.35,105.71-2.06,117.59-.71,1-1.5,1.51-2.34,1.46-6.74-.28-16.24.7-26.3,1.74-10.6,1.1-21.83,2.26-31.9,2.26Zm.58-136.41c-7.29,1.6-25.22,6.02-27.25,8.68-5.53,7.27-4.63,28.45-3.67,50.87.82,19.15,1.66,38.95-.97,54.22-1.05,6.11.01,10.77,3.25,14.23,9.67,10.34,36.33,7.58,59.85,5.15,10.1-1.04,19.63-2.03,26.45-1.75.48.02.98-.33,1.48-1.04,8.3-11.74,8.27-100.42,2-116.52-4.02-3.17-16.49-10.16-25.4-13.32-4.39,6.06-13.83,9.62-22.62,8.5-6.4-.82-11.16-4.11-13.12-9.03Z"/>
      </g>
      <g>
        <path class="cls-10" d="m101.92,153.96c-6.42.25-41.15.4-41.44-6.01-.29-6.39-.86-31.55,5.49-30.39,55.62,10.11,38.38-12.59,39.24,33.91.03,1.51-1.59,2.42-3.29,2.49Z"/>
        <g>
          <path class="cls-5" d="m63.05,135.74c-.06,0-.12-.01-.18-.03-.26-.1-.38-.39-.28-.65.77-1.96,2.49-2.58,4.67-3.36,1.71-.62,3.84-1.38,6.19-3.03.77-.54,1.54-1.16,2.27-1.75,1.93-1.55,3.93-3.16,6.4-3.79.27-.07.54.09.61.36.07.27-.09.54-.36.61-2.26.58-4.09,2.05-6.02,3.61-.75.6-1.53,1.23-2.32,1.79-2.46,1.73-4.66,2.52-6.43,3.16-2.09.75-3.47,1.25-4.08,2.78-.08.2-.27.32-.47.32Z"/>
          <path class="cls-5" d="m70.4,140.78c-.15,0-.3-.07-.4-.2-.16-.22-.12-.54.1-.7,3.23-2.4,6.58-4.88,10.26-6.71,3.98-1.99,6.13-3.61,7.86-4.91,2.29-1.72,3.8-2.86,7.61-3.17.28-.02.52.18.54.46.02.28-.18.52-.46.54-3.53.29-4.8,1.24-7.09,2.97-1.76,1.33-3.95,2.98-8.01,5-3.61,1.8-6.91,4.25-10.11,6.62-.09.07-.19.1-.3.1Z"/>
          <path class="cls-5" d="m72.96,147.78c-.07,0-.13-.01-.2-.04-.25-.11-.37-.4-.26-.66,1.24-2.91,2.89-3.2,4.97-3.57,1.55-.27,3.47-.61,5.96-2.1l6.66-3.98c.23-.14.54-.06.69.17.14.24.06.54-.17.69l-6.66,3.98c-2.65,1.58-4.68,1.94-6.3,2.23-2.06.36-3.2.56-4.23,2.98-.08.19-.27.3-.46.3Z"/>
          <path class="cls-5" d="m93.18,144.47s-.1,0-.15-.02c-.26-.08-.41-.36-.33-.63.55-1.75,2.35-1.97,3.94-2.16.9-.11,1.75-.21,2.31-.55.44-.27.8-.69,1.18-1.13.48-.55.97-1.12,1.68-1.46.25-.12.55-.01.67.24.12.25.01.55-.24.67-.52.25-.93.72-1.36,1.21-.41.48-.84.97-1.42,1.32-.75.46-1.75.58-2.71.69-1.71.2-2.77.4-3.1,1.46-.07.21-.26.35-.48.35Z"/>
          <path class="cls-5" d="m65.87,126.03c-.06,0-.11,0-.17-.03-.26-.09-.4-.38-.3-.64.73-2.06,1.43-2.21,2.51-2.28.92-.06,2.19-.14,4.57-2.47.2-.19.51-.19.71,0,.19.2.19.51,0,.71-2.64,2.59-4.18,2.69-5.2,2.75-.79.05-1.08.07-1.63,1.62-.07.21-.27.33-.47.33Z"/>
        </g>
      </g>
      <g>
        <path class="cls-6" d="m120.05,164.25c.42.8,2.04,1.31,2.52,1.19,1.01-.25.62-1.99.44-3.76-.4-3.83-1.01-4.97-4.86-7.13-.55-.31-.77.02-.68.6.2,1.42,2.56,9.07,2.58,9.11Z"/>
        <path class="cls-7" d="m116.36,150.28c2.74,1.23,2.72,1.77,4.11,4.24,1.95,3.46,4.03,4.16,4.86,5.42,1.84,2.75-2.78,4.42-5.26-.78-4.61,2.38-8.13-7.59-15.23-3.12-1.68,1.06.94,3.04,3.88,3.74,1.09.26,5.14.92,5.51,2.5.23.98-.69,2.02-3.27,1.42-10.16-2.38-12.48.2-15.15.61-3.92.59-13.96-3.13-11.15-8.76,1.07-2.15,3.91-2.42,5.93-3.17,19.47-7.26,9.35-9.48,25.77-2.08Z"/>
      </g>
      <g>
        <path class="cls-3" d="m28.09,174.54c23.25,4.76,58.08,2.32,70.65-9.44,1.75-1.64-2.18-11.16-2.51-12.16-17.9-.19-39.52-4.24-57.32-4.45l8.64-8.34c9.26-45.11-5.93-51.28-5.93-51.28.26-.43-45.73,79.07-13.54,85.67Z"/>
        <path class="cls-5" d="m52.29,177.3c-8.52,0-16.96-.77-24.3-2.28-4.77-.98-8.14-3.58-10.03-7.74-9.09-20.04,18.67-70.59,22.95-78.17-.01,0,.54-.92.54-.92l.41.24c1.14.5,15.25,7.68,6.18,51.82l-.03.15-7.88,7.61c8.57.18,18.1,1.21,27.32,2.2,9.74,1.05,19.81,2.14,28.78,2.23h.36s.11.35.11.35c.04.13.14.39.28.76,2.71,7.2,3.33,10.76,2.09,11.92-8.59,8.04-27.89,11.84-46.79,11.84Zm-24.1-3.25c23.38,4.79,57.97,2.14,70.21-9.31.48-.45.81-2.45-2.35-10.84-.07-.18-.12-.33-.17-.46-8.93-.12-18.89-1.19-28.53-2.23-9.64-1.04-19.6-2.11-28.44-2.22h-1.22s9.4-9.09,9.4-9.09c8.14-39.82-3.02-48.95-5.28-50.35-4.13,7.3-31.86,57.67-22.95,77.33,1.75,3.85,4.88,6.27,9.32,7.18h0Z"/>
      </g>
      <g>
        <path class="cls-7" d="m83.48,164.02c-1.23-4.41-.73-11.55-.52-11.47-4.65-1.68-8.54,5.35-11.8-2.55-1.27-3.42-13.74-15.57-11.89-10.45.69,1.9,2.74,5.27,1.69,4.42-7.38-5.95-15.14-14.45-14.59-10.78.24,1.6,10.23,11.96,9.23,11.12-.23-.2-12.08-10.67-12.38-10.68-4.19-.19,3.28,6.18,9.55,12.68.8.83-11.53-8.45-11.55-8.45-2.85.85,1.11,3.41,11.26,12.44,1.37,1.22-12.16-9.17-10.48-4.17,12.25,11.39,20.06,14.86,22.96,15.85,1.2.9,18.51,2.03,18.51,2.03Z"/>
        <path class="cls-6" d="m53.22,150.31c1.55,1.23,3.26,2.24,5.08,3.01,1,.43-.06,1.92-5.55-2.42-.39-.31.08-.9.46-.59Z"/>
        <path class="cls-6" d="m54.36,146.84c1.85,1.69,3.95,3.06,6.25,4.06.45.2.15.89-.3.69-7.36-3.21-6.95-5.66-5.95-4.75Z"/>
        <path class="cls-6" d="m56.96,144.89c1.12,1.54,2.83,2.66,4.69,3.07.49.11.32.84-.16.73-2.04-.45-3.91-1.67-5.14-3.36-.29-.4.32-.84.61-.44Z"/>
        <path class="cls-6" d="m61.56,145.23c-.22-.45.46-.78.67-.33.8,1.6,2.72,3.14,4.67,3.72.48.15.26.86-.21.72-2.18-.65-4.27-2.36-5.13-4.1Z"/>
      </g>
      <g>
        <path class="cls-3" d="m147.24,175.52c-3.13,16.01-60.03,5.33-78.45-10.43-1.1-.94,5.48-13.91,6.52-13.94,7.01-.19,33.17-.61,45.51,4.81-.31-1.03-3.63-63.19,10.28-62.35,14.89.9,19.01,67.26,16.15,81.91Z"/>
        <path class="cls-5" d="m128.04,183.97c-19.28,0-47.4-8.08-59.58-18.5-.39-.33-.49-.98.26-3.1.97-2.73,5.17-11.68,6.57-11.72,9.61-.26,32.93-.33,44.97,4.53-.42-6.78-2.24-49.12,6.09-59.62,1.37-1.73,2.97-2.56,4.76-2.45,1.98.12,3.85,1.3,5.57,3.52,10.63,13.73,13.72,65.31,11.04,78.99-.59,3-2.93,5.24-6.96,6.64-3.37,1.17-7.76,1.71-12.73,1.71Zm-58.88-19.21c14.85,12.64,55.44,22.08,71.28,16.56,3.67-1.28,5.79-3.26,6.31-5.89l.49.1-.49-.1c2.58-13.19-.6-64.94-10.85-78.19-1.53-1.98-3.16-3.03-4.84-3.13-1.36-.08-2.56.5-3.67,1.77-8.72,10.01-6.47,58.04-6.09,59.96l.19.94-.87-.36c-11.59-5.08-35.41-5.03-45.21-4.77-1.37.98-6.51,11.77-6.24,13.11Z"/>
      </g>
      <g>
        <path class="cls-11" d="m76.38,10.09c.33-1.58.19-3.27-.4-4.77-.25-.63.7-1.01.95-.37.66,1.68.82,3.58.45,5.35-.14.66-1.14.45-1-.21Z"/>
        <path class="cls-11" d="m84.01,9.19c-1.74-8.02,1.04-7.13.76-6.12-.54,1.96-.16,4.07.24,5.9.25,1.16,2.39-5.9,3.47-5.39.91.43-.56,1.71-2.24,5.81-.44,1.07-1.99.92-2.23-.2Z"/>
        <path class="cls-11" d="m100.8,13c2.2-.86,3.83-3.02,4.05-5.37.06-.68,1.08-.58,1.02.1-.26,2.73-2.15,5.24-4.7,6.23-.63.25-1-.71-.37-.95Z"/>
        <path class="cls-11" d="m94.05,10.97c-1.6-6.79,2.08-6.36,1.32-5.12-1.1,1.79-.85,2.64-.32,4.88.15.66-.84.89-1,.23Z"/>
        <path class="cls-11" d="m103.35,25.28c1.86-1.24,3.43-4.02,3.24-5.72-.08-.67.94-.8,1.02-.12.24,2.09-1.48,5.22-3.69,6.69-.56.38-1.13-.47-.57-.85Z"/>
        <path class="cls-11" d="m66.63,22.82c-1.62-1.96-2.32-5.76-1.04-5.51.28.05.46.32.41.6-.33,1.73,1.39,4.9,2.31,4.9,1.15,0,.25,2.34-1.68.02Z"/>
        <path class="cls-11" d="m86.24,20.85c.13.66-.87.86-1,.2-.36-1.82-.83-3.15-1.22-4.09-.78,3.22.34,4.37-.63,4.51-1.89.27.21-13.8,2.85-.61Z"/>
        <path class="cls-11" d="m63.25,12.86c2.81-4.23,5.96-.77,8.17-7.93.2-.65,1.18-.34.98.3-2.35,7.6-5.85,4.5-8.3,8.2-.37.56-1.23,0-.85-.57Z"/>
      </g>
    </g>
  </g>
</svg>