<?xml version="1.0" encoding="UTF-8"?>
<svg id="Layer_2" data-name="Layer 2" xmlns="http://www.w3.org/2000/svg" viewBox="0 0 183.13 480.11">
  <defs>
    <style>
      .cls-1 {
        fill: #3d4a61;
      }

      .cls-1, .cls-2, .cls-3, .cls-4, .cls-5, .cls-6, .cls-7, .cls-8, .cls-9, .cls-10, .cls-11, .cls-12, .cls-13, .cls-14, .cls-15 {
        stroke-width: 0px;
      }

      .cls-2 {
        fill: #ce8b35;
      }

      .cls-3 {
        fill: #824b4c;
      }

      .cls-4 {
        fill: #382823;
      }

      .cls-5 {
        fill: #4d3931;
      }

      .cls-6 {
        fill: #ee795c;
      }

      .cls-7 {
        fill: #fda98b;
      }

      .cls-8 {
        fill: #fff;
      }

      .cls-9 {
        fill: #07191d;
      }

      .cls-10 {
        fill: #e95b4b;
      }

      .cls-11 {
        fill: #bd2f2f;
      }

      .cls-12 {
        fill: #fffffb;
      }

      .cls-13 {
        fill: #ffa988;
      }

      .cls-14 {
        fill: #323d4d;
      }

      .cls-15 {
        fill: #f2e8de;
      }
    </style>
  </defs>
  <g id="Layer_1-2" data-name="Layer 1">
    <g>
      <g>
        <path class="cls-7" d="m96.02,56.19c.14,11.33,3.89,19.73-16.94,29.53,12.4,17.06,24.62,23.37,24.62,23.37,0,0,26.13-11.76,35.11-19.54-4.67-3.4-9.55-5.94-13.86-8.97-8.51-5.98-3.49-19.27-5.15-24.18l-23.77-.21Z"/>
        <path class="cls-7" d="m101.08,68.07c4.69,2.9,10.06,2.02,15.47.29,5.96-1.9,15.65-19.23,12.01-40.57-3.67-21.51-27.6-24.09-37.09-9.58-8.57,13.09-2.72,42.23,9.62,49.85Z"/>
        <path class="cls-5" d="m94.97,27.36c.63-.12.36-1.24.7-1.78,1.02-1.59,3.46-1.23,5.12-2.15,1.12-.62,2.14-1.89,3.37-1.54.91.26,1.45,1.35,2.39,1.44.84.08,1.65-.72,2.45-.45,1,.33,1.61,2.83,4.97,1.68,5.44-1.85,8.98.15,9.55,1.33,2.37,4.92,5.07,15.44,4.89,21.36,0,0,5.85-17.63,5.85-17.63.12-1.68-1.43-6.09-2.6-7.31-3.31-3.46,2.83-6.54-2.47-13.13-4.09-3.18-6.33-4.22-8.56-2.38-.34-3.28-3.62-5.97-6.9-5.65-6.35.61-4.61-3.35-12.86.71-1.41.7-5.63,2.7-6.21,4.69-.55,1.88,1.56,4.26-2.11,5.28-1.76-.2-13.67,2.64-5.78,27.92.41,1.3,2,7.81,2.5,9.05-1.69-12.03,3.84-21.08,5.7-21.44Z"/>
        <g>
          <path class="cls-4" d="m99.23,20.32c-1.24-2.8-2.59-6.41-5.71-7.38-1.37-.43,1.76-2.42,5.03,4.12-.54-1.93-4.43-7.39-2.91-7.58.2-.02.38.12.41.32.17,1.38.93,2.64,1.67,3.86,2.16,3.6,1.86,4.46,1.52,6.66Z"/>
          <path class="cls-4" d="m112.98,21.2c3.5-2.11,8.44-9.05,7.17-12.98-.46-1.43,3.15.22-1,7.18-4.66,7.8-7.32,6.5-6.17,5.8Z"/>
          <path class="cls-4" d="m92.39,21.15c-.42-.45-3.39-1.82-4-2.12-.43-.21-.11-.87.32-.65,2.69,1.32,3.65,1.67,4.21,2.27.95,1.01,1.26,4.85.61,4.89-.61.04-.2-3.39-1.15-4.39Z"/>
          <path class="cls-4" d="m109.67,11.69c2.22-2.65,4.04-6.06,2.34-9.07-.1-.17-.04-.4.14-.5,1-.56,2.87,4.34-1.91,10.03-.31.37-.87-.1-.56-.47Z"/>
          <path class="cls-4" d="m103.47,20.46c1.81-2.02,1.76-5.1-.1-7.07-.14-.15-.13-.38.01-.51,1-.95,3.78,4.55.63,8.07-.32.36-.86-.13-.54-.49Z"/>
          <path class="cls-4" d="m111.08,15.86c.28-.38.87.04.59.43-.92,1.24-2.58,3.39-1.86,5.5.45,1.29-3.17.08,1.27-5.93Z"/>
          <path class="cls-4" d="m125,27.7c1.81-2.22,4.3-5.37,3.84-8.94-.19-1.5,3.68.87-3.28,9.4-.3.37-.87-.09-.56-.46Z"/>
          <path class="cls-4" d="m124.1,16.05c.79-1.01,3.24-3.9,1.64-6.18-.99-1.41,4.08.06-1.07,6.62-.3.38-.87-.07-.57-.45Z"/>
          <path class="cls-4" d="m109.31,11.8c.34-1.81.07-3.72-.76-5.37-.22-.43.43-.76.65-.33.91,1.79,1.2,3.86.83,5.83-.09.47-.8.34-.72-.13Z"/>
          <path class="cls-4" d="m88.28,33.46c-.2-.03-.34-.22-.31-.42.3-1.82-.43-3.75-1.86-4.91-.37-.3.09-.87.46-.56,2.57,2.1,2.56,6.01,1.71,5.9Z"/>
          <path class="cls-4" d="m131.87,28.79c.12.16.08.39-.08.51-1.87,1.35-2.98,3.71-2.84,6.01.01.2-.14.37-.34.39-1.82.11,2.03-8.59,3.26-6.9Z"/>
        </g>
        <g>
          <path class="cls-7" d="m131.41,37.28c-4.15-1.03-4.05,7.56-3.88,11.82.33,8.4,10.42-10.19,3.88-11.82Z"/>
          <path class="cls-6" d="m130.71,41.51c-.14-.39-.72-.18-.58.21.82,2.33.16,3.74-.79,4.32-.15.09-.19.28-.1.42.59.97,2.65-1.61,1.47-4.95Z"/>
          <path class="cls-7" d="m85.65,39.06c4.05-1.37,4.66,7.2,4.85,11.46.37,8.4-11.23-9.29-4.85-11.46Z"/>
          <path class="cls-6" d="m86.7,43.22c.1-.4.7-.24.6.16-.62,2.39.15,3.74,1.14,4.24.15.08.22.26.14.41-.5,1.01-2.77-1.39-1.88-4.81Z"/>
        </g>
        <g>
          <path class="cls-4" d="m118.17,41.46c1.34-.06,2.18-5.2-1.08-5.07-1.74.07-1.12,5.16,1.08,5.07Z"/>
          <path class="cls-4" d="m98.23,42.49c-1.34.06-2.6-5.01.65-5.14,1.74-.07,1.54,5.05-.65,5.14Z"/>
        </g>
        <path class="cls-6" d="m119.66,65.32c-.17-.13-.41-.1-.54.07-3.53,4.57-15.96,6.12-21.94-.4-.34-.38-.91.14-.57.52,8.82,9.63,25.26,1.52,23.04-.19Z"/>
        <g>
          <path class="cls-5" d="m113.24,33.92c.31.16,10.66.93,10.83.87,2.5-.83-6.34-4.37-10.69-2.46-.55.24-.7,1.3-.14,1.59Z"/>
          <path class="cls-5" d="m103.24,32.02c-4.42-1.74-12.66,2.25-10.56,2.96.64,0,10.62-1.28,10.78-1.38.53-.35.42-1.34-.21-1.58Z"/>
          <path class="cls-6" d="m110.78,50.09c.11-.57-.85-.58-1.46-.69-2.24-.4-2.29.69-1.65-8.66.13-1.82.39-2.81-.26-2.84-.61-.01-.42.7-.56,2.78-.7,10.15-.77,8.91,3.45,9.73.22.04.44-.1.48-.32Z"/>
          <path class="cls-6" d="m114.88,57.84c.49-.96-.94-.63-12.15-1.33-2.51-.16,6.31,12.7,12.15,1.33Z"/>
        </g>
      </g>
      <g>
        <path class="cls-7" d="m71.05,460.88c-3.76,2.9-7.87,3.63-13.17.57l.75-26.05,16.81.47-4.39,25.01Z"/>
        <path class="cls-9" d="m55.64,477.35c1.75,1.28,1.5.92,39.57,2.73,7.62.36,7.96-3.57,4.01-6.02-6.01-3.74-27.71-15.75-29.09-14.94-3.9,2.29-5.88,2.67-11.99,1.82-1-.14-7.75,12.59-2.5,16.41Z"/>
        <g>
          <path class="cls-15" d="m78.97,463.77c-1.31,1.74-3.1,3.11-5.12,3.91l5.12-3.91Z"/>
          <path class="cls-12" d="m73.86,468.19c-.2,0-.39-.12-.46-.31-.1-.26.02-.55.28-.65,1.95-.78,3.64-2.08,4.9-3.75.17-.22.48-.26.7-.1.22.17.26.48.1.7-1.37,1.82-3.21,3.23-5.33,4.08-.06.02-.12.04-.19.04Z"/>
        </g>
        <g>
          <path class="cls-15" d="m82.73,466.03c.1,1.54-2.99,3.44-4.43,4.08l4.43-4.08Z"/>
          <path class="cls-12" d="m78.29,470.62c-.19,0-.37-.11-.46-.3-.11-.25,0-.55.25-.66,1.77-.79,4.2-2.55,4.14-3.6-.02-.28.19-.51.47-.53.27-.02.51.19.53.47.14,2.32-4.68,4.55-4.73,4.57-.07.03-.14.04-.2.04Z"/>
        </g>
        <g>
          <path class="cls-15" d="m86.71,468.31c-.85,2.11-3.19,3.07-4.86,3.78l4.86-3.78Z"/>
          <path class="cls-12" d="m81.91,472.56c-.2,0-.4-.11-.48-.29-.11-.25-.03-.53.23-.64,1.66-.7,3.83-1.62,4.59-3.5.1-.26.4-.38.65-.28.26.1.38.4.28.65-.92,2.27-3.31,3.28-5.05,4.02-.07.03-.14.04-.21.04Z"/>
        </g>
        <path class="cls-12" d="m90.95,477.68c-.47,0-.93,0-1.38-.01-.44,0-.88-.02-1.27-.01-.28,0-.5-.22-.5-.5,0-.29.27-.49.53-.5.4,0,.83,0,1.26.01,3.24.05,6.92.11,7.49-2.52.06-.27.33-.44.6-.38.27.06.44.33.38.59-.65,2.99-3.98,3.32-7.11,3.32Z"/>
        <path class="cls-8" d="m133.33,470.09c-.13,1.15-.2,2.31-.04,3.41.17,1.1.61,2.15,1.42,2.79.77.69,1.82,1.01,2.9,1.17,1.04.14,2.27.14,3.4.21l13.86.71c4.61.32,9.23.53,13.84.76,2.3.12,4.61.22,6.91.21,1.15.01,2.31.02,3.41-.15l.39-.09c.12-.04.2-.09.32-.14.23-.18.44-.35.63-.55.39-.39.66-.9.65-1.47h.1c.06.59-.2,1.18-.57,1.62-.19.23-.4.43-.62.62-.25.18-.54.27-.82.34-1.14.25-2.3.3-3.46.36-2.32.1-4.63.07-6.95.04-4.63-.09-9.26-.3-13.88-.54-4.62-.27-9.24-.57-13.86-.93-1.15-.11-2.31-.14-3.46-.34-1.13-.21-2.3-.6-3.15-1.43-.88-.81-1.27-2-1.38-3.14-.11-1.16.05-2.33.27-3.46l.1.02Z"/>
        <polygon class="cls-7" points="150.69 460.53 137.37 461.81 135 437.07 151.28 437.53 150.69 460.53"/>
        <path class="cls-9" d="m135.04,477.15c1.75,1.28,1.5.92,39.57,2.73,7.62.36,7.96-3.57,4.01-6.02-6.01-3.74-27.71-15.75-29.09-14.94-3.9,2.29-5.88,2.67-11.99,1.82-1-.14-7.75,12.59-2.5,16.41Z"/>
        <path class="cls-8" d="m153.26,467.98c-.2,0-.39-.12-.46-.31-.1-.26.02-.55.28-.65,1.95-.78,3.64-2.08,4.9-3.75.17-.22.48-.27.7-.1.22.17.26.48.1.7-1.37,1.82-3.21,3.23-5.33,4.08-.06.02-.12.04-.19.04Z"/>
        <path class="cls-8" d="m157.69,470.41c-.19,0-.37-.11-.46-.3-.11-.25,0-.55.25-.66,1.77-.79,4.2-2.55,4.14-3.6-.02-.28.19-.51.47-.53.28-.02.51.19.53.47.14,2.32-4.68,4.55-4.73,4.57-.07.03-.14.04-.2.04Z"/>
        <path class="cls-8" d="m161.31,472.36c-.2,0-.4-.11-.48-.29-.11-.25-.03-.53.23-.64,1.66-.7,3.83-1.62,4.59-3.5.1-.26.39-.38.65-.28.26.1.38.4.28.65-.92,2.27-3.31,3.28-5.05,4.02-.07.03-.14.04-.21.04Z"/>
        <path class="cls-8" d="m170.35,477.47c-.47,0-.93,0-1.38-.01-.44,0-.88-.02-1.27-.01-.28,0-.5-.22-.5-.5,0-.29.26-.5.53-.5.4,0,.83,0,1.26.01,3.25.05,6.92.11,7.49-2.52.06-.27.33-.44.6-.38.27.06.44.33.38.59-.65,2.99-3.98,3.32-7.11,3.32Z"/>
      </g>
      <path class="cls-14" d="m62.47,207.04c-.25,4.97-12.27,248.74-7.49,249.2,2.57.25,19.74,1.53,20.31-1.06,20.42-93.05,29.95-183.94,29.95-183.94,5.75,36.51,5.76,73.75,11.28,110.3,2.07,13.69,15.45,72.7,17.59,73.15,3.63.77,19.88,2.42,19.87-.91-.09-20.98-1.99-246.75-1.99-246.75H62.47Z"/>
      <g>
        <path class="cls-1" d="m105.06,261.83s-.04,0-.06,0c-.27-.03-.47-.28-.44-.55,2.28-19.25,1.3-28.96.66-35.38-.53-5.29-.82-8.21,1.32-12.08.13-.24.44-.33.68-.2.24.13.33.44.2.68-1.99,3.6-1.73,6.24-1.2,11.49.65,6.47,1.63,16.24-.66,35.6-.03.25-.25.44-.5.44Z"/>
        <path class="cls-1" d="m136.43,451.52c-.22,0-.43-.15-.48-.38-13.37-51.98-17.16-96.53-19.94-129.05-1.82-21.33-3.13-36.75-6.35-45.8-.09-.26.04-.55.3-.64.26-.09.55.04.64.3,3.26,9.18,4.58,24.65,6.4,46.05,2.77,32.49,6.56,76.99,19.91,128.89.07.27-.09.54-.36.61-.04.01-.08.02-.12.02Z"/>
        <path class="cls-1" d="m147.97,246.21c-.1,0-.21-.03-.3-.1-12.15-8.93-12.18-12.25-12.34-28.19-.02-1.85-.04-3.88-.08-6.11,0-.28.21-.5.49-.51.28,0,.5.22.51.49.04,2.23.06,4.26.08,6.12.16,15.9.19,18.77,11.93,27.4.22.16.27.48.11.7-.1.13-.25.2-.4.2Z"/>
        <path class="cls-1" d="m65.19,239.5c-.18,0-.36-.1-.45-.28-.12-.25-.02-.55.23-.67,13.06-6.48,13.58-9.3,16.47-24.94.34-1.82.71-3.82,1.13-6.01.05-.27.31-.45.59-.4.27.05.45.31.4.59-.42,2.19-.79,4.18-1.13,6-2.9,15.68-3.5,18.95-17.01,25.65-.07.04-.15.05-.22.05Z"/>
        <path class="cls-1" d="m104.85,269.5c-.41,0-.66-.4-1.16-1.21-1.17-1.88-3.61-5.78-7.96-4.58-.26.08-.54-.08-.62-.35-.07-.27.08-.54.35-.62,5.08-1.41,7.88,3.09,9.08,5.01.06.09.12.19.18.29.98-2.63,3.44-4.62,6.2-4.95.28-.04.52.16.56.44.03.27-.16.52-.44.56-2.56.31-4.9,2.36-5.57,4.89-.11.41-.4.5-.51.52-.04,0-.07,0-.1,0Z"/>
        <path class="cls-1" d="m109.9,241.68c-.33,0-.67-.03-1.02-.06-.71-.06-1.45-.13-2.29.03-.27.05-.53-.12-.59-.39-.05-.27.12-.53.39-.59.98-.19,1.83-.11,2.58-.04,1.02.1,1.63.13,2.15-.33,1.73-1.49,2.73-8.64,3.68-26.39.01-.28.25-.49.53-.47.28.02.49.25.47.53-1.13,20.94-2.25,25.55-4.03,27.09-.58.5-1.21.63-1.88.63Z"/>
      </g>
      <rect class="cls-3" x="62.47" y="209.04" width="89.62" height="9.79"/>
      <path class="cls-13" d="m176.46,234.19c-4.8,1.63-11.04,2.46-13.85,1.55,4.46,17.33,2.54,8.1,2.4,14.7-.08,3.74-2.86,17.51.15,19.52,2.27,1.53,3.12-4.74,3.95-8.52,1.15-5.23,9.69,2.43,4.62,14.47-.5,1.19-3.46,6.86.31,8.79,7.3-9.67,10.63-25.93,2.57-38.43-.82-1.27-.6-1.34-.14-12.08Z"/>
      <path class="cls-11" d="m178.81,245.28c1-.16.8-1.22.88-3.19-5.63,1.65-17.36.93-17.36.93.73,2.48-.94,4.96,16.47,2.26Z"/>
      <g>
        <path class="cls-14" d="m88.43,220.46c-.38,0-.23-14.53-.23-14.19,0-.4,2.71-.23,2.36-.23.38,0,.23,14.53.23,14.19,0,.4-2.71.23-2.36.23Z"/>
        <path class="cls-14" d="m130.12,220.46c-.38,0-.23-14.53-.23-14.19,0-.4,2.71-.23,2.36-.23.38,0,.23,14.53.23,14.19,0,.4-2.71.23-2.36.23Z"/>
      </g>
      <path class="cls-2" d="m105.61,220.16c-4.82,0-6.12-.16-6.9-.94-.59-.58-.59-1.36-.59-1.78,0-1.76-.02-3.26-.03-4.53-.05-4.72-.07-6.31.87-7.25.56-.57,1.3-.64,1.81-.64,4.27,0,7.69-.02,10.44-.04,8.74-.06,10.56-.08,11.56.91.59.58.59,1.36.59,1.78,0,1.76.02,3.26.03,4.53.05,4.72.07,6.31-.87,7.25-.56.57-1.3.64-1.81.64-4.27,0-7.69.02-10.44.04-1.84.01-3.37.02-4.65.02Zm10.37-13.2c-1.36,0-2.95.01-4.76.02-2.75.02-6.18.04-10.45.04-.31,0-.39.04-.39.05-.34.34-.31,2.76-.28,5.82.01,1.28.03,2.78.03,4.55,0,.3.02.38.03.41.48.35,4.1.33,10.1.28,2.75-.02,6.18-.04,10.45-.04.31,0,.39-.04.39-.05.34-.34.31-2.76.28-5.82-.01-1.28-.03-2.78-.03-4.55,0-.3-.02-.38-.03-.41-.34-.25-2.2-.31-5.34-.31Z"/>
      <g>
        <path class="cls-10" d="m136.67,106.22c-1.31,27.24,4.25,44.28,25.67,136.8,7.06,1.44,10.65.83,17.36-.93,5.62-1.38,6.35-147.94-27.4-151.07-6.44-.6-15.33,9.05-15.63,15.2Z"/>
        <path class="cls-11" d="m169.29,244.32c-2.09,0-4.32-.25-7.06-.81l-.31-.06-.07-.31c-3.61-15.6-6.75-28.98-9.53-40.78-13.59-57.87-17.25-73.43-16.15-96.15.17-3.53,3-8.26,7.05-11.77,3.19-2.77,6.42-4.15,9.12-3.91,20.37,1.89,27.2,53.01,29.46,83.31,2.43,32.57,1.4,67.9-1.99,68.74-4.15,1.09-7.15,1.74-10.52,1.74Zm-6.55-1.73c6.76,1.34,10.19.75,16.82-.99,3.12-1.87,5.08-68.53-5.06-113.21-5.36-23.6-12.84-36.01-22.25-36.88-2.39-.22-5.44,1.11-8.38,3.66-3.79,3.29-6.55,7.84-6.7,11.06l-.5-.02.5.02c-1.09,22.58,2.56,38.1,16.13,95.87,2.75,11.72,5.87,25,9.45,40.47Z"/>
      </g>
      <g>
        <path class="cls-12" d="m121.23,76.08c-6.26,5.67-21.72,5.92-27.93-.56-6.51,3.29-28.26,10.07-32.53,13.06-9.84,6.88-12.43,108.25,1.69,118.46,34.4,2.6,54.56,11.03,89.25,7.01,21.32-5.82,3.93-121.44,3.66-122.45-.03-.11-34.03-15.48-34.14-15.53Z"/>
        <path class="cls-15" d="m133.63,215.6c-14.07,0-26.17-1.92-38.78-3.93-9.96-1.58-20.26-3.22-32.42-4.14h-.14s-.11-.09-.11-.09c-7.72-5.58-10.24-35.86-10.03-62.35.2-25.53,3.13-53.28,8.35-56.93,2.43-1.7,10.25-4.55,17.81-7.31,6.13-2.23,11.92-4.35,14.78-5.79l.33-.17.26.27c6.24,6.52,21.32,5.89,27.23.54l.23-.21.29.12c.08.03,9.09,4.11,17.11,7.74q17.24,7.82,17.32,8.11c.3,1.14,18.01,117.05-4.01,123.06-6.5.75-12.52,1.07-18.22,1.07Zm-70.98-9.05c12.14.93,22.41,2.56,32.35,4.14,17.65,2.8,34.31,5.45,56.65,2.87,20.14-5.5,4.17-116.02,3.27-121.62-2.67-1.29-30.46-13.85-33.6-15.27-6.29,5.35-21.49,5.94-28.12-.54-3.01,1.47-8.63,3.51-14.56,5.68-7.5,2.74-15.26,5.56-17.58,7.19-4.29,3-7.69,27.12-7.92,56.12-.26,32.77,3.47,56.82,9.51,61.45Z"/>
      </g>
      <g>
        <path class="cls-10" d="m76.39,148.78c.18,15.81,6.44,31.43,4.29,47.09-10.11,73.62-5.75,80.21-10.5,80.29-27.85.44-27.47,1.02-28.23-1.1-5.85-16.23-35.22-148.88,18.39-186.27,5.76-4.02,21.78-9.65,22.1-8.35,4.62,18.5-6.27,49.86-6.05,68.34Z"/>
        <path class="cls-11" d="m47.29,277.07c-5.14,0-5.29-.39-5.79-1.8-3.33-9.24-11.82-46.87-13.15-85.39-1.22-35.37,3.3-81.68,31.71-101.5,5.44-3.79,20.49-9.27,22.41-8.55.32.12.43.36.46.49,2.8,11.21.01,26.79-2.68,41.85-1.77,9.9-3.44,19.26-3.36,26.6.08,6.61,1.24,13.31,2.37,19.78,1.56,8.96,3.17,18.23,1.92,27.38-5.09,37.09-6.51,57.17-7.27,67.95-.78,11.03-.9,12.72-3.72,12.77-6,.09-10.69.2-14.36.27-3.81.08-6.55.14-8.54.14Zm34.58-196.34c-2.35,0-15.78,4.66-21.24,8.46-28.04,19.56-32.49,65.52-31.28,100.64,1.32,38.41,9.77,75.89,13.07,85.05.47,1.3.47,1.32,13.39,1.04,3.67-.08,8.36-.18,14.36-.27,1.84-.03,1.98-1.2,2.74-11.84.76-10.8,2.18-30.89,7.28-68.02,1.24-9-.36-18.19-1.91-27.08-1.13-6.52-2.31-13.25-2.38-19.94-.09-7.44,1.59-16.84,3.37-26.79,2.66-14.88,5.41-30.26,2.74-41.25-.04,0-.09,0-.14,0Z"/>
      </g>
      <polygon class="cls-13" points="43.54 211.56 61 229.87 71.88 220.64 56.37 198.23 43.54 211.56"/>
      <g>
        <path class="cls-10" d="m1.29,177.28c11.86,19.26,37.68,52.59,50.6,43.76,9.1-4.16,6.46-6.57,13.22-11.29,8.42-5.88-11.54-24.06-22.9-37.81-2.19-2.65-1.01-3.38,1.06-6.52,17.92-27.13,18.49-77.54,18.49-77.54-5.97,1.17-11.36,3.14-16.3,8.09-5.3,5.3-51.65,69.19-44.18,81.32Z"/>
        <path class="cls-11" d="m47.05,223c-.82,0-1.67-.09-2.55-.28-14.4-3.07-34.84-30.89-43.63-45.17-7.82-12.7,39.9-77.58,44.25-81.93,5.46-5.46,11.44-7.22,16.56-8.22l.6-.12v.61c-.01.51-.79,50.87-18.58,77.81-.3.45-.58.86-.83,1.22-1.5,2.15-1.9,2.73-.26,4.71,2.38,2.88,5.09,5.9,7.95,9.09,8.72,9.72,17.74,19.77,17.04,25.85-.17,1.49-.91,2.69-2.19,3.59-2.8,1.95-3.93,3.48-5.03,4.95-1.5,2.02-2.91,3.93-8.27,6.38-1.45,1-3.15,1.5-5.05,1.5Zm14.21-134.51c-4.84.99-10.38,2.77-15.44,7.83-6.03,6.02-51.25,69.11-44.11,80.7,8.72,14.16,28.92,41.72,42.99,44.72,2.67.57,4.99.19,6.91-1.11,5.2-2.38,6.48-4.11,7.96-6.1,1.09-1.47,2.32-3.13,5.26-5.18,1.05-.73,1.63-1.68,1.77-2.88.65-5.63-8.21-15.51-16.79-25.07-2.87-3.2-5.58-6.22-7.98-9.12-2.12-2.57-1.29-3.76.21-5.92.25-.36.53-.76.82-1.2,16.56-25.08,18.25-70.81,18.4-76.66Z"/>
      </g>
      <g>
        <path class="cls-10" d="m139.92,195.83c-2.07,16.95,2.7,33.92,3.85,50.96,1.9,28.12-.94,31.45,4.52,32.45,5.1.93,25.59,2.65,25.5-2.52-.88-49,3.27-169.84-18.42-185.11-18.51-8.45-18.95-8.89-18.79-8.21,18.59,78.49,10.44,54.18,3.34,112.43Z"/>
        <path class="cls-11" d="m161.8,280.76c-5.61,0-11.47-.65-13.6-1.04-3.98-.73-4-2.62-4.12-11.7-.06-4.84-.15-11.48-.81-21.21-.4-5.88-1.24-11.86-2.06-17.65-1.55-10.94-3.15-22.26-1.79-33.41,1.95-16,4.01-25.93,5.52-33.17,4-19.27,4.62-22.23-8.84-79.08-.03-.11-.11-.46.18-.7q.43-.35,7.68,3c2.73,1.26,6.47,2.99,11.62,5.34,18.42,12.96,18.5,99.28,18.55,156.4.01,11.33.02,21.11.16,29.15.01.75-.31,1.41-.95,1.95-1.89,1.61-6.62,2.11-11.54,2.11Zm-21.88-84.94l.5.06c-1.34,11.01.25,22.27,1.78,33.15.82,5.8,1.67,11.8,2.07,17.72.66,9.76.75,16.41.81,21.26.12,9.14.24,10.17,3.3,10.73,4.62.85,20.73,2.2,24.31-.84.41-.35.61-.73.6-1.17-.14-8.05-.15-17.84-.16-29.17-.05-56.91-.13-142.92-18.05-155.54-5.06-2.3-8.81-4.03-11.54-5.29-3.43-1.58-5.43-2.51-6.34-2.87,13.37,56.51,12.74,59.55,8.71,78.95-1.5,7.23-3.56,17.13-5.51,33.09l-.5-.06Z"/>
      </g>
      <g>
        <path class="cls-11" d="m29.42,175.9c-.1,0-.19-.03-.28-.09-.23-.16-.29-.47-.13-.69,2.26-3.32,5.76-7.5,10.27-5.87-.31-1.47-3.06-6.49-6.46-9.99-.19-.2-.19-.51.01-.71.2-.19.51-.19.71.01,3.35,3.45,7.49,10.21,6.62,11.49-.08.12-.38.47-.99.22-3.02-1.24-5.98.48-9.33,5.41-.1.14-.25.22-.41.22Z"/>
        <path class="cls-11" d="m54.56,235.44c-.14,0-.27-.06-.37-.17-.18-.21-.17-.52.04-.71,6.24-5.56,12.73-10.99,19.3-16.14.22-.17.53-.13.7.08.17.22.13.53-.09.7-6.55,5.14-13.03,10.56-19.25,16.1-.1.08-.21.13-.33.13Z"/>
        <path class="cls-11" d="m169.45,235.44c-.12,0-.24-.04-.33-.13-6.22-5.55-12.7-10.96-19.25-16.1-.22-.17-.26-.48-.08-.7.17-.22.48-.26.7-.08,6.57,5.15,13.06,10.58,19.3,16.14.21.18.22.5.04.71-.1.11-.24.17-.37.17Z"/>
      </g>
      <path class="cls-11" d="m54.57,222.86c-.69.48-1.26-.45-2.68-1.82,5.22-2.68,13.22-11.29,13.22-11.29,1.22,2.39,4.2,2.95-10.54,13.1Z"/>
      <g>
        <g>
          <path class="cls-15" d="m99.09,90.36s-.09,0-.14,0c-1.21-.1-2.09-1.42-3.84-4.06-1.38-2.09-3.28-4.95-6.27-8.68-.17-.22-.14-.53.08-.7.22-.17.53-.14.7.08,3.02,3.77,4.93,6.65,6.33,8.75,1.47,2.22,2.36,3.56,3.08,3.62.78.04,2.03-1.29,4.1-3.54.94-1.02,2.07-2.24,3.46-3.67.88-.91,2.44.59,4.79,2.86,1.61,1.56,3.83,3.66,4.73,3.62.08,0,.13-.03.17-.09,1.23-1.57,2.57-3.35,3.86-5.08,1.54-2.05,3.12-4.17,4.56-5.96.17-.21.49-.25.7-.08.22.17.25.49.08.7-1.43,1.78-3.01,3.89-4.54,5.93-1.29,1.73-2.63,3.51-3.88,5.09-.22.28-.53.45-.89.47-1.27.06-2.99-1.49-5.49-3.9-1.17-1.13-2.95-2.84-3.45-2.84-1.31,1.38-2.44,2.6-3.37,3.61-2.42,2.61-3.57,3.86-4.78,3.86Z"/>
          <path class="cls-15" d="m110.23,212.42c-.24,0-.46-.18-.49-.43-6.24-41.57-3.29-54.85-.92-65.52,1.23-5.54,2.29-10.32,1.85-18.03-.32-5.62-1.13-11.76-1.91-17.7-1.21-9.22-2.46-18.75-1.95-26.65.02-.28.24-.48.53-.47.28.02.48.26.47.53-.5,7.81.74,17.29,1.94,26.46.78,5.95,1.59,12.11,1.91,17.77.45,7.84-.63,12.69-1.87,18.3-2.35,10.59-5.28,23.77.93,65.16.04.27-.15.53-.42.57-.03,0-.05,0-.07,0Z"/>
          <path class="cls-15" d="m131.76,143.23c-3.36,0-4.73-.15-5.46-.87-.49-.48-.55-1.14-.55-1.66,0-2.65-.02-4.86-.04-6.7-.07-5.96-.09-7.97.85-8.91.48-.49,1.14-.55,1.66-.55,2.65,0,4.85-.02,6.69-.04,5.96-.07,7.97-.09,8.91.85.49.48.55,1.14.55,1.66,0,2.65.02,4.85.04,6.69.07,5.96.09,7.97-.85,8.91-.48.49-1.14.55-1.66.55-2.65,0-4.86.02-6.7.04-1.34.01-2.47.03-3.45.03Zm6.5-17.76c-.96,0-2.08.01-3.35.03-1.84.02-4.05.04-6.71.04-.61,0-.82.13-.95.25-.64.65-.61,3.17-.56,8.2.02,1.84.04,4.06.04,6.71,0,.61.13.82.25.95.65.64,3.17.61,8.2.56,1.84-.02,4.06-.04,6.71-.04.61,0,.82-.13.95-.25.64-.65.61-3.17.56-8.2-.02-1.84-.04-4.05-.04-6.71,0-.61-.13-.82-.25-.95-.48-.48-2.01-.58-4.85-.58Z"/>
          <path class="cls-15" d="m125,212.4c-.14,0-.27-.06-.37-.17-.19-.21-.17-.52.04-.71,3.52-3.16,4.98-8.53,3.55-13.04-.08-.26.06-.54.33-.63.27-.08.54.06.63.33,1.54,4.87-.03,10.67-3.84,14.08-.1.09-.22.13-.33.13Z"/>
          <path class="cls-15" d="m93,209.96c-4.95-.4-6.29-5.67-6.92-10.22-.04-.27.15-.53.43-.56.28-.04.53.15.56.43.58,4.18,1.78,9.02,5.97,9.36.28.02.48.26.46.54-.02.26-.24.46-.5.46Z"/>
        </g>
        <g>
          <path class="cls-15" d="m110.05,92.61c-2.7-1.06-.99-3.28.31-3.28,1.66,0,1.34,3.93-.31,3.28Z"/>
          <path class="cls-15" d="m113.51,116.7c-2.7-1.06-.99-3.28.31-3.28,1.66,0,1.34,3.93-.31,3.28Z"/>
          <path class="cls-15" d="m115,141.67c-2.7-1.06-.99-3.28.31-3.28,1.66,0,1.34,3.93-.31,3.28Z"/>
          <path class="cls-15" d="m111.54,163.83c-2.7-1.06-.99-3.28.31-3.28,1.66,0,1.34,3.93-.31,3.28Z"/>
          <path class="cls-15" d="m110.75,187.34c-2.7-1.06-.99-3.28.31-3.28,1.66,0,1.34,3.93-.31,3.28Z"/>
          <path class="cls-15" d="m113.09,210.29c-2.7-1.06-.99-3.28.31-3.28,1.66,0,1.34,3.93-.31,3.28Z"/>
        </g>
      </g>
    </g>
  </g>
</svg>