<?xml version="1.0" encoding="UTF-8"?>
<svg id="Layer_2" data-name="Layer 2" xmlns="http://www.w3.org/2000/svg" viewBox="0 0 182.08 462.12">
  <defs>
    <style>
      .cls-1 {
        fill: #fd9c8d;
      }

      .cls-1, .cls-2, .cls-3, .cls-4, .cls-5, .cls-6, .cls-7, .cls-8, .cls-9, .cls-10, .cls-11 {
        stroke-width: 0px;
      }

      .cls-2 {
        fill: #353b4a;
      }

      .cls-3 {
        fill: #ce8b35;
      }

      .cls-4 {
        fill: #382823;
      }

      .cls-5 {
        fill: #ff9c8a;
      }

      .cls-6 {
        fill: #ee795c;
      }

      .cls-7 {
        fill: #fffffb;
      }

      .cls-8 {
        fill: #2f333e;
      }

      .cls-9 {
        fill: #353b49;
      }

      .cls-10 {
        fill: #f6bb7e;
      }

      .cls-11 {
        fill: #f2e8de;
      }
    </style>
  </defs>
  <g id="Layer_1-2" data-name="Layer 1">
    <g>
      <path class="cls-8" d="m61.27,43.13c-8.1,10.21-11.16,15.82-8.43,21.93,2.76,6.18,76.29,15.89,69.75-3.18-1.42-4.16-5.08-7.57-5.33-10.67-.16-2.03,1.97-3.77,1.79-5.79-.19-2.23-4.77-3.85-6.43-5.42-2.28-2.15-1.06-4.98-2.57-7.65-2.36-4.18-1.68-6.99-2.24-8.2-7.05-15.13-38.5-10.61-44.01-1.15-3.54,6.08,3.06,13.11-2.53,20.14Z"/>
      <path class="cls-1" d="m118.86,91.69c-13.46-9.45-25.99-9.23-20.87-33.75l-23.17-1.41c-.94,18.2.28,19.49-7.54,26.21-1.72,1.48-12.7,7.61-12.7,7.61,17.42,15.09,49.25,13.84,64.28,1.34Z"/>
      <path class="cls-1" d="m65.34,24c-5.95,35.77,24.27,57.05,36.32,28.62C123.4,1.33,70.18-5.11,65.34,24Z"/>
      <path class="cls-8" d="m87.89,12.93c15,2.64,15.73,22.63,17.09,30.26,1.42-5.88,10.5-12.8,6.03-22.57-3.74-8.18-7.01-22.66-23.4-20.39-9.98,1.38-20.75,6.22-22.52,15.5-1.5,7.85-1.95,19.37.58,27.75,1.4-6.53.28-11.36,3.27-17.31,3.74-7.45,11.26-14.61,18.96-13.25Z"/>
      <g>
        <path class="cls-9" d="m75.61,5.48c.19-.6,1.1-.32.91.28-.88,2.85-.48,6.06,1.08,8.6.14.22.07.52-.16.66-.81.5-3.41-4.46-1.84-9.54Z"/>
        <path class="cls-9" d="m98.62,17.22c2.49-.92,4.31-3.41,4.42-6.06.03-.63.98-.59.95.04-.13,3.02-2.2,5.86-5.04,6.91-.59.22-.92-.68-.33-.9Z"/>
        <path class="cls-9" d="m103.41,24.2c1.15,0,2.26-.84,2.58-1.94.18-.6,1.1-.34.92.27-.45,1.51-1.92,2.62-3.49,2.63-.64,0-.63-.95,0-.96Z"/>
        <path class="cls-9" d="m85.04,10.89c-2.25-3.91.93-8.99,1.89-7.96.18.19.17.49-.02.68-1.81,1.7-2.27,4.69-1.05,6.81.31.55-.51,1.02-.83.48Z"/>
        <path class="cls-9" d="m93.06,12.98c.91-2.16,1.73-4.66.87-6.8-.61-1.52,3.35-.75.01,7.17-.24.58-1.13.21-.88-.37Z"/>
        <path class="cls-9" d="m70.29,20.93c-3.07-3.59-1.79-7.45-.76-6.93.23.12.33.41.21.64-.84,1.62-.36,3.74,1.28,5.66.41.48-.32,1.1-.73.62Z"/>
      </g>
      <path class="cls-1" d="m107.19,36.58c-3.48-1.17-3.99,6.2-4.13,9.86-.29,7.22,9.62-8.02,4.13-9.86Z"/>
      <path class="cls-1" d="m63.44,34.56c3.56-.9,3.5,6.48,3.37,10.14-.26,7.22-8.98-8.73-3.37-10.14Z"/>
      <g>
        <path class="cls-4" d="m74.66,38.62c-1.22-.05-2-4.72.96-4.61,1.58.06,1.03,4.68-.96,4.61Z"/>
        <path class="cls-4" d="m95.57,39.42c1.22.05,2.35-4.56-.61-4.67-1.58-.06-1.39,4.59.61,4.67Z"/>
        <path class="cls-2" d="m77.39,28.43c1.93.36,1.65,1.91.17,2.11-1.98.27-2.51-1.09-6.6.45-4.49,1.69.38-3.68,6.43-2.56Z"/>
        <path class="cls-2" d="m93.49,29.23c-1.97,0-1.97,1.57-.56,2.04,1.9.63,2.67-.61,6.41,1.65,4.11,2.48.3-3.69-5.85-3.69Z"/>
        <path class="cls-6" d="m82.32,46.44c4.13,1.87,3.92-.14,2.67-.1-4.15.13.06-1.51.45-8.38.04-.72-.8-.76-.91-.17-.08.41-.18,1.92-.29,2.34-1.38,5.31-3.25,5.71-1.93,6.3Z"/>
        <path class="cls-6" d="m90.56,52.84c.23-.08.42.19.27.38-8.47,10.39-13.68-1.07-12.13-.46,2.45.96,6.93,1.69,11.86.09Z"/>
      </g>
      <path class="cls-6" d="m64.05,38.19c.12-.33.62-.15.5.17-.7,2-.13,3.22.69,3.71.13.08.17.24.09.36-.5.83-2.28-1.38-1.28-4.25Z"/>
      <path class="cls-6" d="m105.58,44c.8-.86.71-2.25.57-3.49-.04-.35.49-.41.53-.06.54,4.64-1.83,4.33-1.1,3.55Z"/>
      <path class="cls-6" d="m76.09,61.65c7.85,7,18.33,3.08,20.84-1.63.99-1.84.54,4.15-8.34,5.73-9.81,1.75-14.77-6.12-12.51-4.1Z"/>
      <g>
        <path class="cls-6" d="m14.73,253.97c1.7-.31,1.73,2.85-.49,2.44-.73-.13-1.31-.75-1.55-1.45-1.17,1.17,1.08,3.24.07,4.5-1.91,2.37-13.16-7.89-6.87-14.41,1.35-1.39,2,.39,2.87,1.43,5.82,6.98,12.91,5.11,5.97,7.49Z"/>
        <path class="cls-5" d="m23.29,236.63c29.85-66.28,30.62-80.91,30.57-109.71-5.57-.88-11.07-2.65-16.61-3.43-2.84,7.89-4.35,34.06-4.18,35.05-2.28,20.49-14.3,73.66-14.3,73.66-2.06.44-5.33,2.88-14.52,8.44-1.44.87-1.59,1.24-1.98,2.92-1.34,5.83-3.44,5.13-1.43,9.41,3.56,7.56,7.3,11.01,7.92,8.29.68-3.01-8.94-9.86-.99-16.24,5.64-4.53,7.75,3.06,5.22,5.89-.69.77-3.09,2.18-2.63,5.36,8.31-1.89,8.42-9.82,10.47-13.9.48-.96,2.24-3.39,2.47-5.74Z"/>
      </g>
      <g>
        <path class="cls-7" d="m52.99,88.33c-13.41,2.84-12.18,2.12-24.73,49.08-1.01,3.79,10.28,9.72,26.75,9.46,10.2-22.29,19.81-39.68,13.98-51.81-2.11-4.39-13.35-7.29-16-6.73Z"/>
        <path class="cls-11" d="m53.98,147.38c-12.8,0-22.61-3.74-25.43-7.36-.73-.94-1-1.89-.77-2.74.95-3.56,1.83-6.85,2.63-9.89q9.79-36.87,22.07-39.46l.41-.09c3-.63,14.35,2.43,16.55,7,5.26,10.95-1.69,25.86-10.5,44.74-1.13,2.43-2.3,4.93-3.47,7.49l-.13.29h-.32c-.35.01-.7.01-1.04.01Zm-.89-58.56l-.41.09q-11.68,2.47-21.31,38.74c-.81,3.04-1.68,6.33-2.63,9.89-.15.55.05,1.18.59,1.87,2.34,3,11.71,7.12,25.35,6.97,1.13-2.46,2.25-4.87,3.34-7.21,8.7-18.64,15.56-33.37,10.51-43.89-1.94-4.03-12.79-7.02-15.44-6.46h0Z"/>
      </g>
      <g>
        <path class="cls-6" d="m168.14,241.03c3.55,1.3,5.36,2.53,7.94,5.3,3.47,3.73,5.51,1.82,4.35.7-6.97-6.78-14.45-9.51-15.23-8.24.9.85,1.89,1.6,2.94,2.25h0Z"/>
        <path class="cls-5" d="m156.55,233.24c20.1,3.42,25.76,11.86,25.53,12.77-.61,2.4-5.22-1.57-10.95-4-10.09-4.29-14.04.66-9.69,2.36,1.53.6,4.88.29,5.67,3.62.14.6,0,2.06-1.36,1.37-3.04-1.55-2.88,1.06-11.9-5.6-3.17-2.34-8.09-3.75-8.86-6.71-3.69-11.5-22.85-69.52-29.71-106.46-1.44-7.74,19.96-12.68,19.63-14.21,4.83,22.5,18.06,115.95,18.06,115.95,0,0,3.27.88,3.59.93Z"/>
      </g>
      <g>
        <path class="cls-7" d="m112.68,85.95c13.66.86,13.25-.58,32.4,43.87,1.86,4.33-14.54,12.37-25.93,14.35-13.32-20.58-25.34-36.39-21.33-49.24,1.45-4.65,12.15-9.15,14.85-8.98Z"/>
        <path class="cls-11" d="m118.91,144.72l-.18-.28c-1.53-2.37-3.05-4.67-4.52-6.91-11.45-17.41-20.49-31.15-16.87-42.75,1.52-4.85,12.28-9.52,15.36-9.33l1.25.08c12.79.76,13.08,1.18,31.58,44.09.32.73.23,1.56-.25,2.45-2.6,4.8-16.5,10.93-26.05,12.59l-.33.06Zm-6.42-58.27c-2.92,0-12.88,4.44-14.19,8.63-3.48,11.14,5.44,24.72,16.75,41.9,1.42,2.16,2.87,4.37,4.34,6.64,10.04-1.82,22.81-7.95,25.02-12.02.33-.62.4-1.13.21-1.58-18.43-42.75-18.66-42.77-30.72-43.49l-1.26-.08s-.1,0-.16,0Z"/>
      </g>
      <g>
        <path class="cls-7" d="m70.39,80.28c3.74,7.85,25.04,11.76,29.45-1.7,13.91,4.39,19.02,8.02,19.02,8.02,1.46,19.84,15.58,76.3.99,86.36-26.01,3.45-44.98,4.97-66.63.38-11.26-4.98-4.04-83.22-3.85-84.22,0,0,7.57-2.34,21.03-8.85Z"/>
        <path class="cls-11" d="m81.05,176.71c-9.53,0-18.44-.87-27.93-2.88l-.1-.03c-11.79-5.21-4.29-84.01-4.14-84.77l.06-.29.29-.09c.08-.02,7.7-2.41,20.96-8.82l.45-.22.22.45c1.98,4.15,9.46,7.27,16.33,6.83,3.59-.23,9.95-1.64,12.19-8.47l.15-.47.47.15c13.83,4.36,18.95,7.94,19.16,8.09l.19.14.02.23c.35,4.8,1.45,11.72,2.71,19.73,3.95,25.02,9.37,59.28-1.94,67.07l-.1.07-.12.02c-15.22,2.02-27.48,3.26-38.86,3.26Zm-27.67-3.85c20.62,4.36,38.52,3.29,66.29-.38,10.66-7.57,5.32-41.34,1.42-66.03-1.25-7.9-2.33-14.74-2.7-19.57-1.03-.67-6.34-3.89-18.22-7.68-1.88,5.13-6.56,8.28-12.91,8.69-7.12.46-14.62-2.63-17.06-6.96-11.6,5.58-18.83,8.06-20.36,8.57-.83,6.36-6.75,78.58,3.56,83.36Z"/>
      </g>
      <path class="cls-5" d="m61.22,439.51c2.67,7.73,12.15,7.68,13.5-1.16l-.11-21.38-16.86-.11,3.48,22.65Z"/>
      <path class="cls-5" d="m107.11,439.46c2.46,7.8,11.93,8.01,13.52-.79l.47-21.37-16.85-.57,2.86,22.74Z"/>
      <g>
        <g>
          <path class="cls-11" d="m35.58,460.89c-.5-.79-.6-1.8-.27-2.67.97-2.54,26.9-19.38,25.91-18.71,4.77,2.96,11.12,1.42,13.5-1.16,1.66,3.41,6.47,15.68,1.73,16.95-2.83.76-38.73,8.91-40.86,5.59Z"/>
          <path class="cls-7" d="m39.37,462.12c-2.24,0-3.78-.28-4.21-.96-.59-.92-.71-2.08-.31-3.12.92-2.42,20.92-15.59,25.5-18.49l-.05-.03.64-.43.04.06c.17-.11.27-.16.29-.16l.36.02.06.2c4.58,2.69,10.53,1.12,12.66-1.2l.5-.54.32.66c1.43,2.92,5.1,12.12,3.34,15.97-.4.88-1.05,1.45-1.94,1.68-.32.08-26.62,6.33-37.2,6.33Zm-3.37-1.5c1.74,2.71,34.42-4.23,40.31-5.8.59-.16,1.01-.53,1.29-1.13,1.38-3.03-1.34-10.78-3.04-14.5-2.72,2.32-8.6,3.67-13.34.91-3.26,2.06-24.65,16.23-25.44,18.3-.28.73-.19,1.58.22,2.22h0Z"/>
        </g>
        <g>
          <path class="cls-7" d="m49.33,454.66c-1.04,0-2.23-.34-3.16-.78-.83-.39-1.87-1.07-2.13-2.05-.14-.53.17-1.08.7-1.23.52-.15,1.08.17,1.23.7.05.13.44.52,1.33.89,1.16.48,2.21.54,2.52.4.51-.22,1.1,0,1.32.51.22.5,0,1.1-.51,1.32-.37.17-.82.24-1.3.24Z"/>
          <path class="cls-7" d="m54.64,450.89c-2.07,0-4.1-1.09-5.21-2.85-.29-.47-.16-1.08.31-1.38.47-.29,1.08-.15,1.38.31.82,1.3,2.46,2.07,3.99,1.89.54-.08,1.05.32,1.12.87.07.55-.32,1.05-.87,1.12-.24.03-.48.04-.72.04Z"/>
          <path class="cls-7" d="m59.32,447.23c-1.86,0-3.72-.7-5.1-1.95-.41-.37-.44-1-.07-1.41.37-.41,1-.44,1.41-.07,1.16,1.05,2.77,1.57,4.33,1.41.55-.06,1.04.34,1.1.89.06.55-.34,1.04-.89,1.1-.26.03-.52.04-.79.04Z"/>
        </g>
      </g>
      <g>
        <g>
          <path class="cls-11" d="m80.9,460.13c-1.44-2.38.78-4.44,3.1-5.93,10.82-6.96,23.11-14.74,23.11-14.74,4.69,3.09,11.08,1.72,13.52-.79,1.38,3.04,6.18,15.83,1.19,17.01-2.87.68-38.86,7.87-40.92,4.46Z"/>
          <path class="cls-7" d="m85.54,461.5c-2.72,0-4.6-.32-5.07-1.1-1.3-2.16-.21-4.38,3.26-6.61,10.69-6.89,22.99-14.67,23.11-14.74l.27-.17.27.18c4.53,2.99,10.66,1.57,12.89-.73l.51-.52.3.67c1.34,2.95,4.76,12.23,2.9,16.03-.44.89-1.13,1.46-2.05,1.68-.31.07-25.3,5.33-36.39,5.33Zm21.56-21.44c-1.86,1.18-13.02,8.25-22.84,14.57-3.95,2.54-3.57,4.22-2.94,5.25,1.68,2.79,34.23-3.23,40.38-4.69.63-.15,1.08-.52,1.38-1.14,1.48-3.02-.99-10.7-2.63-14.54-2.78,2.25-8.68,3.43-13.35.55Z"/>
        </g>
        <g>
          <path class="cls-7" d="m94.17,455.35s-.1,0-.15-.01c-1.18-.18-4.76-.72-5.01-3.72-.05-.55.36-1.03.91-1.08.55-.05,1.03.36,1.08.91.06.67.48,1.48,3.32,1.91.55.08.92.59.84,1.14-.07.5-.5.85-.99.85Z"/>
          <path class="cls-7" d="m99.29,451.5c-2.11-.09-4.13-1.2-5.3-2.91-.31-.46-.2-1.08.26-1.39.45-.31,1.08-.2,1.39.26.83,1.2,2.24,1.98,3.7,2.04.55.02.98.49.96,1.04-.02.54-.46.96-1,.96Z"/>
          <path class="cls-7" d="m103.62,448.04c-1.67,0-3.69-1.07-4.43-2.07-.33-.44-.24-1.07.21-1.4.44-.33,1.07-.24,1.4.21.5.67,2.41,1.49,3.17,1.21.52-.19,1.09.08,1.28.6.19.52-.08,1.09-.6,1.28-.32.12-.67.17-1.04.17Z"/>
        </g>
      </g>
      <g>
        <path class="cls-10" d="m82.39,428.74c-.03,1.18-.99,2.12-2.17,2.12-28.57.14-29.42.93-29.53-1.96-8.07-205.88-12.72-223.08,2.54-255.55,20,.13,46.41.37,66.63-.38,7.65,14.04,13.29,38.2,13.12,48.54l-5.28,206.92c-.03,1.18-.99,2.12-2.16,2.13-28.38.29-29.27,1.07-29.39-1.82l-7.87-191.66c-.7-5.76-5.9,192.68-5.88,191.66Z"/>
        <path class="cls-3" d="m58.2,431.56c-7.56,0-7.94-.45-8.02-2.65-1.53-39.01-2.96-71.77-4.11-98.09-4.96-113.77-5.73-131.26,6.69-157.69l.14-.29,4.35.03c19.47.13,43.7.29,62.58-.41h.31s.15.26.15.26c7.52,13.79,13.36,37.97,13.18,48.79l-5.28,206.92c-.04,1.45-1.21,2.6-2.66,2.62-5.98.06-10.73.14-14.52.21-14.68.25-15.25.26-15.37-2.51l-7.46-181.75c-1.53,39.05-5.25,180.12-5.28,181.75,0,0-.06.48-.06.48-.25,1.22-1.32,2.12-2.61,2.13-6.03.03-10.82.09-14.63.14-3.02.04-5.44.07-7.38.07Zm-4.67-257.72c-12.17,26.05-11.4,43.79-6.46,156.93,1.15,26.32,2.58,59.09,4.11,98.1.07,1.74.47,1.79,14.4,1.62,3.81-.05,8.61-.11,14.64-.14.91,0,1.65-.72,1.68-1.64.04-1.61,1.3-49.63,2.61-95.88.79-27.83,1.45-50,1.97-65.92.99-30.41,1.07-30.42,1.72-30.47.08,0,.5-.02.57.56l7.87,191.7c.07,1.75.47,1.79,14.35,1.55,3.79-.07,8.55-.15,14.53-.21.91,0,1.64-.73,1.67-1.64l5.28-206.92c.18-10.63-5.53-34.32-12.91-48.02-18.86.69-42.94.53-62.31.4l-3.71-.02Z"/>
      </g>
      <g>
        <path class="cls-10" d="m119.85,172.96c-19.51,3.99-44.45,4.15-66.63.38-10.79-8.48,9.17-31.12,10.54-50.62.04-.53.47-.94,1-.94,45.84,0,44.07-.44,44.15.96,1.19,20.24,23.41,41,10.94,50.22Z"/>
        <path class="cls-3" d="m86.33,176.57c-11.1,0-22.47-.91-33.2-2.73l-.12-.02-.1-.08c-6.65-5.23-2.32-15.2,2.69-26.74,3.33-7.67,7.1-16.37,7.66-24.31.06-.8.7-1.41,1.5-1.41,11.01,0,19.28-.03,25.48-.04q19.16-.06,19.17,1.35v.12c.49,8.34,4.67,16.93,8.37,24.52,5.35,11,9.98,20.51,2.37,26.13l-.2.09c-10.15,2.08-21.73,3.12-33.61,3.12Zm-32.9-3.69c22.02,3.72,46.75,3.58,66.21-.38,6.81-5.14,2.37-14.27-2.77-24.82-3.73-7.67-7.96-16.36-8.46-24.89v-.17s0-.09,0-.13c-.45-.29-4.91-.27-18.16-.23-6.2.02-14.47.04-25.48.04-.26,0-.48.21-.5.48-.57,8.11-4.38,16.89-7.74,24.64-4.82,11.1-8.98,20.69-3.08,25.47Z"/>
      </g>
      <g>
        <path class="cls-3" d="m121.02,175.2c-23.58,2.67-56.32,2.76-68.8.09l.99-1.95c-.45-.18-1.55-1.02-2.02-1.93,24.28.99,55.19.33,71.03-.92-1.06,1.46-1.81,2.38-2.38,2.46l1.18,2.24Z"/>
        <path class="cls-3" d="m81.9,177.74c-12.54,0-23.66-.65-29.78-1.96l-.64-.14,1.07-2.1c-.59-.39-1.39-1.11-1.8-1.9l-.39-.76.86.04c24.44.99,55.27.31,70.97-.92l1.08-.08-.63.88c-.91,1.25-1.54,2.03-2.1,2.41l1.27,2.41-.73.08c-12,1.36-26.34,2.04-39.18,2.04Zm-28.93-2.8c12.63,2.47,44.11,2.4,67.27-.15l-1.17-2.22.71-.1c.3-.04.89-.73,1.4-1.39-15.8,1.16-45.22,1.79-68.96.88.45.47.97.84,1.19.92l.5.2-.94,1.85Z"/>
      </g>
      <g>
        <g>
          <path class="cls-3" d="m67.54,123.68l-1.66.25c-.39-11.89-4.81-25.54-5.73-38.97l1.39-.59c1.19,13.4,6.09,31.88,6.01,39.32Z"/>
          <path class="cls-3" d="m65.4,124.5l-.02-.56c-.2-6.1-1.46-12.6-2.78-19.48-1.23-6.36-2.5-12.95-2.95-19.47l-.02-.35,2.35-1,.06.69c.58,6.5,2.06,14.36,3.37,21.29,1.44,7.63,2.68,14.22,2.64,18.08v.43s-2.65.39-2.65.39Zm-4.73-39.23c.47,6.35,1.71,12.77,2.91,18.99,1.29,6.71,2.52,13.06,2.78,19.08l.69-.1c-.05-3.84-1.3-10.47-2.62-17.46-1.27-6.71-2.7-14.29-3.32-20.7l-.43.18Z"/>
        </g>
        <g>
          <path class="cls-3" d="m104.87,124.16l1.66.25c.39-11.89,4.9-27.76,5.83-41.19l-1.21-.53c-1.19,13.4-6.36,34.03-6.28,41.48Z"/>
          <path class="cls-3" d="m107.02,124.99l-2.64-.39v-.43c-.05-3.89,1.34-11.39,2.8-19.33,1.36-7.37,2.9-15.73,3.48-22.19l.06-.7,2.17.96-.02.35c-.45,6.48-1.73,13.56-2.97,20.4-1.37,7.52-2.65,14.63-2.86,20.77l-.02.56Zm-1.64-1.25l.68.1c.26-6.08,1.52-13.02,2.85-20.36,1.21-6.69,2.47-13.6,2.93-19.94l-.25-.11c-.62,6.41-2.11,14.46-3.43,21.59-1.4,7.61-2.73,14.81-2.79,18.71Z"/>
        </g>
      </g>
      <g>
        <path class="cls-7" d="m68.72,123.93c1.66-3.26-3.12-3.09-3.92-1.61-1.13,2.11,2.39,4.61,3.92,1.61Z"/>
        <path class="cls-7" d="m103.46,123.92c-1.66-3.26,3.12-3.09,3.92-1.61,1.13,2.11-2.39,4.61-3.92,1.61Z"/>
      </g>
      <g>
        <path class="cls-3" d="m85.3,156.91c-3,0-6-.05-8.98-.16-1.05-.04-1.47-.5-1.46-1.61.07-6.38.62-9.61.64-9.74l.05-.29.28-.1c4.84-1.66,19.25-1.73,20.78-.74.25.16.32.36.33.5,0,.09.79,9.15-1.17,11.4-.39.45-.81.55-1.1.56-3.11.11-6.24.17-9.37.17Zm-8.86-11.04c-.13.93-.53,4.07-.58,9.28,0,.58.02.58.5.6,6.07.21,12.22.21,18.28-.01.08,0,.22-.03.38-.22,1.3-1.49,1.16-8.07.95-10.46-1.67-.67-14.63-.7-19.52.81Z"/>
        <g>
          <path class="cls-7" d="m75.98,145l-.05-2.69c-.01-.57,20.53-1.01,20.52,0v2.05c-.01.53-20.45,1.64-20.47.64Z"/>
          <path class="cls-7" d="m80.11,145.9c-4.38,0-4.61-.33-4.62-.89l-.06-2.98.29-.19c1.04-.62,19.24-1.04,20.9-.08.31.18.34.44.34.55v2.05c-.01.54-.02.74-6.06,1.14-3.45.23-7.33.38-10.14.4-.22,0-.44,0-.65,0Zm-3.63-1.18c2.13.56,17.12-.2,19.47-.71v-1.45c-2.07-.59-17.15-.32-19.51.09l.04,2.07Z"/>
        </g>
      </g>
      <g>
        <path class="cls-9" d="m64.25,24.31c.05-.63,1-.56.95.07-.13,1.71.15,3.46.79,5.05.45,1.11-2.22,1.38-1.74-5.12Z"/>
        <path class="cls-9" d="m105.9,31.79c1.69-1.32,2.89-3.28,3.3-5.38.12-.62,1.06-.44.94.18-.45,2.32-1.78,4.49-3.65,5.95-.5.39-1.09-.36-.59-.75Z"/>
        <path class="cls-9" d="m106.63,64.53c-6.9-10.23-2.47-12.06-2.75-10.31-.59,3.71,1.81,7.2,3.54,9.78.35.52-.44,1.06-.79.53Z"/>
        <path class="cls-9" d="m117.28,64.28c-1.88-3.91-3.89-4.83-5.04-6.96-2.71-5.01,2.36-7.71,2.12-10.98-.06-.87-.69-1.86-1.6-1.96-.64-.07-.53-1.02.09-.95,1.35.14,4.03,1.9,1.01,7.04-3.96,6.75,1.09,6.76,4.28,13.39.11.24.01.52-.22.64-.24.11-.52.02-.64-.22Z"/>
        <path class="cls-9" d="m109.8,60.17c-.32-.54.49-1.03.82-.49,3.41,5.68,4.12,6.28,3.45,6.68-.67.4-.86-.51-4.27-6.19Z"/>
        <path class="cls-9" d="m55.28,64.18c-4.03-7.68,7.36-20.33,8.48-18.72.16.23.1.54-.12.7-4.81,3.36-10.18,12.42-7.48,17.56.31.59-.58,1.05-.89.47Z"/>
        <path class="cls-9" d="m59.47,65.37c.41-1.55.21-2.64,0-3.7-.87-4.69,3-9.07,3.76-8.4.21.18.23.5.05.71-5.49,6.26-1.56,6.77-2.84,11.65-.17.64-1.14.38-.97-.25Z"/>
        <path class="cls-9" d="m65.27,64.16c-.77-.25.06-1.63.41-2.37.85-1.83,1.82-3.9,1.01-6.12-.52-1.43,3.39-.96-.1,6.54-.65,1.39-.68,2.15-1.32,1.95Z"/>
        <path class="cls-9" d="m69.79,68.02c-.58-.19-.26-.8-.05-1.37.47-1.29,1.26-3.44,1-4.72-.18-.9,2.35-2.35-.32,5.78-.09.27-.37.4-.63.32Z"/>
        <path class="cls-9" d="m99.56,60.22c.28-.02.51.19.53.47.17,2.94,1.25,5.45,2.8,6.56.23.16.28.47.12.7-1.32,1.86-5.42-7.64-3.45-7.73Z"/>
      </g>
      <g>
        <path class="cls-3" d="m88.4,234.7c-.2,0-.38-.12-.46-.31-3.41-8.2-4.99-17.22-4.57-26.09.01-.28.25-.49.52-.48.28.01.49.25.48.52-.41,8.72,1.15,17.6,4.5,25.66.11.25-.01.55-.27.65-.06.03-.13.04-.19.04Z"/>
        <path class="cls-3" d="m44.5,214.98c-.14,0-.29-.06-.39-.18-.18-.21-.15-.53.07-.7l.74-.61c6.52-5.35,9.22-7.57,13.34-34.56.04-.27.31-.46.57-.42.27.04.46.3.42.57-4.18,27.37-6.96,29.65-13.69,35.18l-.74.61c-.09.08-.21.11-.32.11Z"/>
        <path class="cls-3" d="m128.83,214.85c-.08,0-.16-.02-.23-.06-8.56-4.4-9.87-5.07-18.79-36.44-.08-.27.08-.54.34-.62.27-.08.54.08.62.34,8.8,30.95,10.07,31.6,18.29,35.83.25.13.34.43.22.67-.09.17-.26.27-.44.27Z"/>
      </g>
      <path class="cls-10" d="m78.19,175.6c-8.46,0-16.21-.5-24.87-1.73-.27-.04-.46-.29-.42-.57.04-.27.3-.47.57-.42,19.85,2.83,34.94,1.78,65-.31l.86-.06c.29-.02.51.19.53.46.02.28-.19.51-.46.53l-.86.06c-17.06,1.19-29.31,2.04-40.35,2.04Z"/>
      <path class="cls-6" d="m21.91,235.64c-.05,0-.11,0-.16-.03-1.21-.41-2.27-1.28-2.89-2.4-.14-.24-.05-.54.19-.68.24-.13.55-.05.68.19.51.9,1.36,1.61,2.34,1.94.26.09.4.37.31.63-.07.21-.26.34-.47.34Z"/>
      <path class="cls-6" d="m148.27,235.38s-.08,0-.13,0c-.28,0-.49-.24-.49-.51,0-.28.23-.49.51-.49,1.15.04,2.33-.53,3.03-1.48.16-.22.48-.27.7-.11.22.16.27.48.11.7-.86,1.18-2.28,1.89-3.74,1.89Z"/>
    </g>
  </g>
</svg>