<?xml version="1.0" encoding="UTF-8"?>
<svg id="Layer_2" data-name="Layer 2" xmlns="http://www.w3.org/2000/svg" viewBox="0 0 167.34 487.36">
  <defs>
    <style>
      .cls-1 {
        fill: #3d4a61;
      }

      .cls-1, .cls-2, .cls-3, .cls-4, .cls-5, .cls-6, .cls-7, .cls-8, .cls-9, .cls-10, .cls-11, .cls-12 {
        stroke-width: 0px;
      }

      .cls-2 {
        fill: #824b4c;
      }

      .cls-3 {
        fill: #382823;
      }

      .cls-4 {
        fill: #73899a;
      }

      .cls-5 {
        fill: #4d3931;
      }

      .cls-6 {
        fill: #ee795c;
      }

      .cls-7 {
        fill: #fda98b;
      }

      .cls-8 {
        fill: #fff;
      }

      .cls-9 {
        fill: #fffffb;
      }

      .cls-10 {
        fill: #323d4e;
      }

      .cls-11 {
        fill: #e5d7d6;
      }

      .cls-12 {
        fill: #f2e8de;
      }
    </style>
  </defs>
  <g id="Layer_1-2" data-name="Layer 1">
    <g>
      <g>
        <path class="cls-7" d="m73.99,58.65c.14,11.33,3.89,19.73-16.94,29.53,12.4,17.06,24.62,23.37,24.62,23.37,0,0,26.13-11.76,35.11-19.54-11.05-8.04-19.07-9-18.87-19.78.05-2.59-.07-13.16-.14-13.37l-23.77-.21Z"/>
        <path class="cls-7" d="m77.69,70.18c4.57,3.09,9.97,2.43,15.44.93,5.92-1.62,16.47-18.24,13.68-40.04-3.5-27.34-42.85-27.58-41.49,8.94.37,10,4.04,24.53,12.37,30.16Z"/>
        <g>
          <path class="cls-3" d="m91.39,20.14c-.44-.74,1-10.43,1.48-11.47,3.49-7.63,16.47.65,18.37,7.3,1.27,4.43.69,19.15-4.28,30.13-.39-4.56-2.55-10.33-4.05-14.65-4.25-12.24-10.34-9.34-11.52-11.31Z"/>
          <path class="cls-3" d="m95.65,14.09c1.04-3.08,1.63-4.85.24-7.66-.73-1.46-15.24-16.36-30.08,4.92-5.47,7.84-8.48,13.32.22,35.57,1.86-2.45.34-6.76,1.96-9.7,3.39-6.13,11.43-6.21,21.2-10.18,3.15-1.28,5.39-9.78,6.46-12.97Z"/>
          <g>
            <path class="cls-5" d="m92.73,19.24c.02-.07,2.45-6.92,2.11-11.4-.12-1.57,2.81.02-1.36,11.67-.18.5-.94.23-.76-.27Z"/>
            <path class="cls-5" d="m77.79,8.3c-.83-.29,1.34-4.28,5.22-5.28,4.27-1.1,9.62,2.74,8.91,3.54-.15.17-.4.18-.57.03-6.94-6.19-12.11-1.21-13.05,1.46-.07.21-.3.32-.51.25Z"/>
            <path class="cls-5" d="m75.2,20.06c-.6-.55,3.94-5.43,8.58-5.69,3.78-.21,5.24-4.58,7.31-2.28.36.4-.24.93-.6.54-.82-.91-2.14.31-3.05,1.14-3.58,3.28-4.56-1.47-11.69,6.26-.15.16-.41.17-.57.02Z"/>
            <path class="cls-5" d="m74.14,29.21c-.51,0-.54-.78.01-.8,4.15.09,13.27-3.76,14.86-6.77.25-.47.96-.09.71.38-1.51,2.86-10.3,7.3-15.59,7.2Z"/>
            <path class="cls-5" d="m66.44,18.98c.29-.45.96-.01.68.44-1.85,2.86-2.45,6.51-1.62,9.81.21.13.24.41.14.58-1.1,1.94-2.68-5.45.8-10.83Z"/>
            <path class="cls-5" d="m106.97,17.02c-1.31-2.68-4.41-4.59-6.91-5.29-.21-.06-.34-.28-.28-.5.51-1.83,9.59,5.06,7.73,5.97-.2.1-.44.01-.54-.19Z"/>
            <path class="cls-5" d="m101.37,17.06c-.97-1.25-2.34-2.19-3.86-2.66-1.26-.38,1.14-2.15,4.49,2.16.33.42-.31.91-.63.49Z"/>
            <path class="cls-5" d="m104.07,27.47c-.11-1.69-2.86-7.5-6.21-8.24-.22-.05-.35-.26-.31-.48.37-1.67,6.97,3.49,7.32,8.67.04.53-.77.59-.8.05Z"/>
            <path class="cls-5" d="m107.85,31.41l.4-.04-.4.02c-.05-.53,1.26-7.26,1.36-7.83.1-.53.89-.37.79.15-.07.37-1.39,7.22-1.35,7.59-.49.08-.31.06-.8.11Z"/>
          </g>
        </g>
        <path class="cls-3" d="m91.22,35.52c1.16,1.04,4.6.28,6.48.52.93.12,3.48,1.19,4.29.89,2.48-.89-6.11-4.68-10.56-2.99-.57.21-.69,1.15-.22,1.58Z"/>
        <path class="cls-3" d="m81.17,33.8c-4.49-1.54-12.94,2.65-10.42,3.43.82.26,3.32-.92,4.25-1.07,1.86-.31,5.34.3,6.45-.79.46-.45.35-1.35-.28-1.57Z"/>
        <g>
          <path class="cls-7" d="m109.26,40.67c-4.1-1.21-4.36,7.38-4.37,11.65-.02,8.4,10.83-9.75,4.37-11.65Z"/>
          <path class="cls-6" d="m108.39,44.87c-.12-.39-.71-.21-.59.18.72,2.36,0,3.75-.97,4.28-.15.08-.2.27-.12.42.54.99,2.71-1.5,1.68-4.88Z"/>
          <path class="cls-7" d="m63.47,40.55c4.1-1.21,4.36,7.38,4.37,11.65.02,8.4-10.83-9.75-4.37-11.65Z"/>
          <path class="cls-6" d="m64.35,44.75c.12-.39.71-.21.59.18-.72,2.36,0,3.75.97,4.28.15.08.2.27.12.42-.54.99-2.71-1.5-1.68-4.88Z"/>
        </g>
        <g>
          <path class="cls-3" d="m95.86,44.3c1.34,0,2.39-5.11-.86-5.11-1.74,0-1.33,5.11.86,5.11Z"/>
          <path class="cls-3" d="m75.9,44.5c-1.34,0-2.39-5.11.86-5.11,1.74,0,1.33,5.11-.86,5.11Z"/>
        </g>
        <path class="cls-6" d="m97.63,67.79c-.17-.13-.41-.1-.54.07-3.53,4.57-15.96,6.12-21.94-.4-.34-.38-.91.15-.57.52,8.82,9.63,25.26,1.52,23.04-.19Z"/>
        <path class="cls-6" d="m88.12,52.62c.14-.57-.83-.62-1.43-.75-2.22-.49-2.32.59-1.29-8.72.2-1.82.51-2.79-.14-2.84-.61-.04-.45.68-.68,2.75-1.12,10.11-1.14,8.87,3.04,9.86.22.05.44-.08.5-.3Z"/>
        <path class="cls-8" d="m90.66,59.66c.33-1-.68-.59-9.81.12-2.64.2,6.82,8.87,9.81-.12Z"/>
      </g>
      <g>
        <path class="cls-7" d="m53.91,461.39c-5.27,2.66-12.25-3.79-12.25-3.79l-.97-10.48,15.74-.6-2.52,14.87Z"/>
        <path class="cls-10" d="m14.78,481.72c-4.88.73-7-.54-7.77-1.98-1.75-3.27.67-1.53,34.6-23.09,0,0,5.26,5.24,12.61,3.11,12.18,28.73,6.95,14.99-39.43,21.96Z"/>
        <path class="cls-12" d="m27.22,473.34s-.1,0-.15-.02c-2.45-.75-4.02-1.36-5.17-3.34-.14-.24-.06-.54.18-.68.24-.14.54-.06.68.18.93,1.61,2.12,2.12,4.6,2.88.26.08.41.36.33.62-.07.21-.26.35-.48.35Z"/>
        <path class="cls-12" d="m33.96,470.21c-2.76-.14-5.41-1.21-7.49-2.99-.21-.18-.23-.5-.05-.71.18-.21.5-.23.7-.05,1.91,1.64,4.35,2.62,6.86,2.75.28.01.49.25.47.53-.01.27-.23.47-.5.47Z"/>
        <path class="cls-12" d="m39.14,466.59s-.04,0-.06,0c-2.58-.32-5.51-.67-7.88-2.28-.23-.16-.29-.47-.13-.69s.47-.29.69-.13c2.17,1.47,4.97,1.82,7.44,2.12.27.03.47.28.44.56-.03.25-.25.44-.5.44Z"/>
        <path class="cls-7" d="m137.33,461.61c-4.89,3.31-12.63-2.2-12.63-2.2l-2.29-10.27,15.54-2.59-.61,15.06Z"/>
        <path class="cls-10" d="m101.1,486.74c-8.39,2.38-9.72-2.65-7.26-4.33,10.84-7.39,20.55-15.52,30.69-23.94,0,0,5.88,4.53,12.9,1.49,15.73,26.95,8.79,13.99-36.33,26.78Z"/>
        <path class="cls-12" d="m111.64,476.53s-.08,0-.12-.01c-2.49-.62-4.09-1.14-5.34-3.05-.15-.23-.09-.54.15-.69.23-.15.54-.08.69.15,1.02,1.56,2.23,2,4.75,2.63.27.07.43.34.36.61-.06.23-.26.38-.48.38Z"/>
        <path class="cls-12" d="m118.19,473.05c-2.73,0-5.43-.92-7.6-2.59-.22-.17-.26-.48-.09-.7.17-.22.48-.26.7-.09,1.99,1.53,4.47,2.38,6.98,2.38.29,0,.52.22.52.5,0,.28-.24.51-.52.5Z"/>
        <path class="cls-12" d="m123.19,469.15c-2.63-.18-5.58-.38-8.03-1.86-.24-.14-.31-.45-.17-.69.14-.24.45-.31.69-.17,2.25,1.35,5.06,1.55,7.55,1.71.28.02.48.26.46.53-.02.26-.24.47-.5.47Z"/>
      </g>
      <g>
        <path class="cls-4" d="m124.23,200.51c15.71-.41,18.23,253.7,18.23,253.7-5.33,1.74-17.41,2.83-23,2.38-24.5-111.99-33.59-179.49-33.59-179.49,0,0-10.49,122.1-26.16,178.33-8.68,2.01-22.14-2.99-22.14-2.99-.16-1-16.23-218.54,5.4-252.81l81.26.88Z"/>
        <path class="cls-1" d="m122.37,457.19c-1.11,0-2.12-.03-2.96-.1l-.37-.03-.08-.36c-20.79-95.05-30.58-158.71-32.99-175.26-2.04,22.18-11.94,124.44-25.79,174.13l-.08.29-.29.07c-8.73,2.02-21.87-2.8-22.43-3.01l-.27-.1-.05-.29c-.31-1.95-16.19-218.83,5.47-253.16l.15-.24,81.53.88c.59-.03,1.18.25,1.73.78,14.46,13.95,16.91,243.65,17,253.42v.37s-.35.11-.35.11c-4.6,1.5-14.08,2.5-20.23,2.5Zm-2.51-1.07c5.47.36,16.72-.64,22.09-2.27-.12-10.7-2.79-238.93-16.69-252.34-.35-.34-.69-.52-1.02-.5-.02,0-80.99-.88-80.99-.88-21.02,34.38-5.97,242.8-5.21,251.95,1.99.7,13.54,4.56,21.27,2.93,15.44-55.67,25.96-176.73,26.06-177.95l.39-4.52.61,4.5c.09.67,9.35,68.61,33.5,179.08Z"/>
      </g>
      <g>
        <path class="cls-1" d="m85.81,268.67c-.25,0-.47-.19-.5-.45-1.93-19.3-.82-35.37,0-47.1.68-9.81,1.17-16.9-.38-20.86-.1-.26.03-.55.28-.65.26-.1.55.03.65.28,1.63,4.17,1.13,11.35.44,21.29-.81,11.69-1.93,27.71,0,46.93.03.27-.17.52-.45.55-.02,0-.03,0-.05,0Z"/>
        <path class="cls-1" d="m56.56,452.99s-.06,0-.08,0c-.27-.05-.46-.3-.41-.58,12.94-75.76,23.14-143.44,25.99-172.44.03-.27.26-.46.55-.45.27.03.48.27.45.55-2.85,29.02-13.06,96.73-26,172.51-.04.24-.25.42-.49.42Z"/>
        <path class="cls-1" d="m37.08,230.06c-.17,0-.34-.09-.43-.25-.14-.24-.05-.54.19-.68,12.65-7.24,13.01-10.08,14.98-25.86.23-1.84.48-3.85.78-6.07.04-.27.29-.47.56-.43.27.04.47.29.43.56-.29,2.21-.55,4.22-.77,6.06-1.97,15.82-2.39,19.12-15.47,26.6-.08.04-.16.07-.25.07Z"/>
        <path class="cls-1" d="m130.07,230.47c-.07,0-.15-.02-.22-.05-13.5-6.7-14.11-9.97-17.01-25.65-.34-1.82-.71-3.81-1.13-6-.05-.27.12-.53.4-.59.27-.06.53.12.59.4.42,2.19.79,4.19,1.13,6.01,2.89,15.64,3.41,18.46,16.47,24.94.25.12.35.42.23.67-.09.18-.26.28-.45.28Z"/>
        <path class="cls-1" d="m86.02,273.76s-.04,0-.07,0c-.3-.03-.54-.24-.62-.53-.67-2.53-3.01-4.59-5.57-4.89-.27-.03-.47-.28-.44-.56.03-.27.28-.48.56-.44,2.75.33,5.21,2.31,6.19,4.92,2.65-5.03,6.61-6.01,9.27-5.26.27.07.42.35.35.62-.07.27-.35.42-.62.35-2.41-.67-6.05.35-8.43,5.39-.12.25-.36.41-.63.41Z"/>
        <path class="cls-1" d="m84.76,249.32c-1.88,0-3.67-.86-5.18-2.49-3.94-4.25-8.12-16.07-5.65-48.19.02-.28.27-.48.54-.46.28.02.48.26.46.54-2.44,31.76,1.58,43.32,5.38,47.43,1.34,1.44,2.83,2.17,4.45,2.17.28,0,.5.22.5.5s-.22.5-.5.5Z"/>
      </g>
      <g>
        <path class="cls-2" d="m39.46,207.72c31.07,3.03,72.86,2.61,89.33.64,0,0-1.83-8.04-4.57-7.85l-81.26-.88s-2.99,5.28-3.51,8.09Z"/>
        <path class="cls-2" d="m90.33,210.42c-16.35,0-34.78-.62-50.92-2.2l-.54-.05.1-.54c.53-2.86,3.44-8.03,3.56-8.25l.15-.26h.29s81.26.88,81.26.88c2.99-.23,4.85,7.38,5.05,8.24l.12.54-.55.07c-7.79.93-22.11,1.56-38.52,1.56Zm-50.26-3.14c31.8,3.05,72.27,2.44,88.1.65-.74-2.94-2.35-7.04-3.91-6.92l-81-.87c-.55,1.01-2.55,4.73-3.19,7.15Z"/>
      </g>
      <g>
        <path class="cls-4" d="m106.14,213.12c.38,0,.23-14.53.23-14.19,0-.4-2.71-.23-2.36-.23-.38,0-.23,14.53-.23,14.19,0,.4,2.71.23,2.36.23Z"/>
        <path class="cls-4" d="m59.45,212.12c.38,0,.23-14.53.23-14.19,0-.4-2.71-.23-2.36-.23-.38,0-.23,14.53-.23,14.19,0,.4,2.71.23,2.36.23Z"/>
      </g>
      <path class="cls-10" d="m90.39,212.29c-1.68,0-4.29-.18-8.55-.48-2.74-.19-6.15-.43-10.41-.69-.5-.03-1.24-.14-1.77-.75-.87-1-.76-2.58-.42-7.29.09-1.27.2-2.76.31-4.52.03-.42.07-1.19.7-1.74,1.06-.93,2.87-.8,11.59-.2,2.74.19,6.16.43,10.42.69.5.03,1.24.14,1.77.75.87,1,.76,2.58.42,7.29-.09,1.27-.2,2.76-.31,4.52-.03.42-.07,1.19-.69,1.74-.54.47-1.28.67-3.04.67Zm-19.23-3.23s.08.05.38.07c4.26.26,7.68.5,10.43.69,5.96.41,9.56.66,10.13.3-.04,0,0-.09.02-.36.11-1.77.22-3.27.31-4.54.22-3.05.4-5.47.07-5.83,0,0-.08-.05-.38-.07-4.27-.26-7.69-.5-10.43-.69-5.96-.41-9.56-.66-10.13-.3,0-.01,0,.09-.02.36-.11,1.77-.22,3.27-.31,4.54-.22,3.05-.4,5.46-.07,5.83h0Z"/>
      <g>
        <path class="cls-6" d="m149.41,272.02c-1.65-.28-4.28,1.12-2.2,2.49.68.45,2.49.6,3.21.22.03,1.82-4.21,1.56-4.36,3.32-.29,3.34,16.47,3.78,16.45-6.21,0-2.13-1.89-.91-3.37-1.05-9.94-.94-14.7-3.49-9.73,1.22Z"/>
        <path class="cls-7" d="m153.54,255.09c-8.05-25.41-26.18-106.42-26.4-107.43-.48-2.2-.23-3.6,3.43-4.34,22.83-4.66,18.01-11.98,25.55,35.82,3.61,23.09,3.15,51.43,7.21,75.74,5.31,17.62,4.16,16.94,3.18,18.58-3.38,5.65-1.19,6.7-6.04,8.56-8.59,3.28-14.2,3.18-12.61.55,1.75-2.91,14.63-1.01,13.18-12.14-1.03-7.9-8.49-3.48-8.64.69-.04,1.06.67,3.66-1.43,5.75-.28.28-.75.23-.95-.11-4.19-7.1.22-11.25,3.53-21.67Z"/>
      </g>
      <g>
        <path class="cls-6" d="m17.93,268.85c1.65-.28,4.27,1.15,2.19,2.5-.68.45-2.49.58-3.21.21-.04,1.82,4.2,1.58,4.35,3.35.28,3.34-16.49,3.68-16.41-6.3.02-2.13,1.89-.9,3.37-1.03,9.94-.89,14.72-3.4,9.72,1.27Z"/>
        <path class="cls-7" d="m13.89,251.89c8.19-25.36,26.77-106.28,27-107.28.49-2.2.25-3.59-3.4-4.36-22.81-4.78-17.94-12.08-25.75,35.68-3.74,23.06-3.43,51.42-7.63,75.69-5.4,17.59-4.26,16.92-3.29,18.56,3.35,5.67,1.15,6.71,6,8.59,8.57,3.33,14.18,3.26,12.61.62-1.74-2.92-14.62-1.09-13.11-12.21,1.07-7.89,8.51-3.44,8.64.74.03,1.06-.69,3.65,1.4,5.76.27.28.75.24.95-.1,4.23-7.08-.16-11.25-3.41-21.69Z"/>
      </g>
      <g>
        <path class="cls-9" d="m146.3,98.92c6.94,9.37,16.12,48.6,12.43,51.61-9.91,8.09-23.99,12.97-35.26,14.03-10.95-30.44-10.11-64.2-6.41-69.92,6.75-10.43,23.62-3.29,29.23,4.29Z"/>
        <path class="cls-12" d="m123.14,165.09l-.13-.36c-11.34-31.54-9.97-64.78-6.35-70.37,2.22-3.43,5.72-5.32,10.12-5.46,7.7-.23,16.34,4.86,19.93,9.72,6.99,9.45,16.34,49.03,12.35,52.29-9.08,7.41-23.02,12.96-35.53,14.14l-.39.04Zm4.17-75.19c-.17,0-.34,0-.51,0-4.12.13-7.25,1.81-9.31,5-3.42,5.29-4.58,38.5,6.32,69.12,12.22-1.24,25.76-6.66,34.6-13.88,3.28-2.68-5.27-41.13-12.52-50.93-3.37-4.55-11.35-9.32-18.59-9.32Z"/>
      </g>
      <g>
        <path class="cls-9" d="m25.96,98.92c-6.94,9.37-16.12,48.6-12.43,51.61,9.91,8.09,23.99,12.97,35.26,14.03,10.95-30.44,10.11-64.2,6.41-69.92-6.75-10.43-23.62-3.29-29.23,4.29Z"/>
        <path class="cls-12" d="m49.13,165.09l-.39-.04c-12.51-1.18-26.45-6.73-35.53-14.14-3.99-3.26,5.36-42.85,12.35-52.29,3.6-4.86,12.22-9.96,19.93-9.72,4.4.14,7.9,2.02,10.12,5.46,3.62,5.59,4.99,38.83-6.35,70.37l-.13.36Zm-22.76-65.87c-7.25,9.8-15.8,48.25-12.52,50.93,8.84,7.22,22.38,12.64,34.6,13.88,10.91-30.62,9.75-63.83,6.32-69.12-2.06-3.19-5.19-4.87-9.31-5-7.37-.21-15.65,4.65-19.1,9.31h0Z"/>
      </g>
      <g>
        <path class="cls-9" d="m101.64,81.99c-6.55,15.89-27.49,15.66-33.76-.34-9.26,2.82-19.39,5.65-28.66,8.47,2.22,26.54-17.48,107.13,6.84,110.38,28.73,3.84,76.23,3.75,81.26-.88,1.73-1.6,7.96-6.09,7.78-8.44-6.83-89.13-8.32-90.52-5.05-101.5,0,0-10.43-2.4-28.4-7.69Z"/>
        <path class="cls-12" d="m92.99,203.78c-15.63,0-33.5-.97-46.99-2.78-17.23-2.3-13.17-40.61-9.58-74.41,1.54-14.51,3-28.22,2.31-36.43l-.03-.4.39-.12c4.63-1.41,9.56-2.85,14.32-4.23,4.77-1.39,9.7-2.82,14.33-4.24l.44-.13.17.43c2.83,7.22,9.09,11.75,16.34,11.81.05,0,.1,0,.15,0,7.16,0,13.41-4.39,16.34-11.48l.17-.42.43.13c17.75,5.22,28.27,7.66,28.37,7.68l.52.12-.15.51c-2.43,8.17-2.18,11.3.96,49.64,1.02,12.46,2.41,29.54,4.11,51.68.15,1.97-2.95,4.7-6.42,7.56-.63.52-1.17.96-1.52,1.29-2.81,2.59-17.36,3.78-34.67,3.78Zm-53.23-113.29c.62,8.34-.82,21.89-2.34,36.21-3.36,31.69-7.55,71.14,8.72,73.31,30.05,4.01,76.15,3.59,80.85-.75.36-.33.91-.79,1.56-1.32,2.16-1.78,6.18-5.1,6.06-6.71-1.7-22.15-3.09-39.21-4.11-51.68-3.08-37.72-3.39-41.52-1.07-49.5-2.3-.55-12.16-2.95-27.49-7.45-3.17,7.29-9.73,11.71-17.25,11.69-7.52-.07-14.03-4.66-17.09-12.02-4.51,1.37-9.28,2.76-13.91,4.11-4.63,1.35-9.41,2.74-13.93,4.11Z"/>
      </g>
      <path class="cls-11" d="m113.62,151.24c-19.73,3.45-49.08,7.55-59.8,0-2.14-1.51-4.75-2.4-4.75-5.36,0-10.68-1.23-16.06,4.75-16.91,22.86-3.24,59.8,0,59.8,0,2.62,0,4.75,2.4,4.75,5.36,0,11.07,1.21,15.86-4.75,16.91Z"/>
      <g>
        <path class="cls-12" d="m61.27,200.73c-.13,0-.26-.05-.36-.16-4.62-4.88-7.85-10.93-9.33-17.49-.06-.27.11-.54.38-.6.27-.06.54.11.6.38,1.44,6.38,4.58,12.27,9.08,17.02.19.2.18.52-.02.71-.1.09-.22.14-.34.14Z"/>
        <path class="cls-12" d="m107.78,202.28c-.24,0-.45-.17-.49-.42-.04-.27.14-.53.41-.57,7.3-1.2,13.79-7.02,15.78-14.15.07-.27.35-.42.62-.35.27.07.42.35.35.62-2.12,7.61-8.78,13.59-16.58,14.87-.03,0-.05,0-.08,0Z"/>
        <path class="cls-12" d="m81.79,202.93c-1.93-.03-4.77-4.35-5.56-6.18-.11-.25,0-.55.26-.66.26-.11.55,0,.66.26.97,2.24,3.58,5.56,4.64,5.58.06,0,.14,0,.24-.2l5.5-11.57c.12-.25.42-.35.67-.24.25.12.36.42.24.67l-5.5,11.57c-.24.5-.64.77-1.14.77Z"/>
        <path class="cls-12" d="m30.52,156.69c-.07,0-.14-.01-.21-.05-5.58-2.58-11.04-5.56-16.23-8.85-.23-.15-.3-.46-.15-.69.15-.23.46-.3.69-.15,5.16,3.27,10.58,6.23,16.11,8.79.25.12.36.41.24.66-.08.18-.27.29-.45.29Z"/>
        <path class="cls-12" d="m135.9,158.5c-.24,0-.45-.18-.49-.42-.04-.27.14-.53.42-.57,7.62-1.21,14.85-5.26,19.86-11.13.18-.21.5-.24.7-.06.21.18.24.49.06.7-5.15,6.05-12.61,10.23-20.46,11.47-.03,0-.05,0-.08,0Z"/>
        <path class="cls-12" d="m84.11,99.13c-.3,0-.61,0-.92-.02-8.69-.34-16.21-5.46-19.62-13.35-.11-.25,0-.55.26-.66.25-.11.55,0,.66.26,3.26,7.53,10.44,12.42,18.74,12.75,8.27.34,15.78-3.98,19.62-11.23.13-.24.43-.34.68-.21.24.13.34.43.21.68-3.88,7.33-11.34,11.78-19.63,11.78Z"/>
      </g>
    </g>
  </g>
</svg>