<?xml version="1.0" encoding="UTF-8"?>
<svg id="Layer_2" data-name="Layer 2" xmlns="http://www.w3.org/2000/svg" viewBox="0 0 142.69 461.07">
  <defs>
    <style>
      .cls-1 {
        fill: #382823;
      }

      .cls-1, .cls-2, .cls-3, .cls-4, .cls-5, .cls-6, .cls-7, .cls-8, .cls-9, .cls-10, .cls-11, .cls-12, .cls-13 {
        stroke-width: 0px;
      }

      .cls-2 {
        fill: #ec795c;
      }

      .cls-3 {
        fill: #ff9c8a;
      }

      .cls-4 {
        fill: #fd434c;
      }

      .cls-5 {
        fill: #4d3931;
      }

      .cls-6 {
        fill: #ee795c;
      }

      .cls-7 {
        fill: #fff;
      }

      .cls-8 {
        fill: #e95b4b;
      }

      .cls-9 {
        fill: #bd2f2f;
      }

      .cls-10 {
        fill: #fffffb;
      }

      .cls-11 {
        fill: #fb9a8b;
      }

      .cls-12 {
        fill: #323d4d;
      }

      .cls-13 {
        fill: #f2e8de;
      }
    </style>
  </defs>
  <g id="Layer_1-2" data-name="Layer 1">
    <g>
      <path class="cls-4" d="m58.73,64.42c-3.96-2.25,28.73-1.63,25.02,0-8.62,3.78-20.4,2.63-25.02,0Z"/>
      <path class="cls-5" d="m27.65,92.64c2.84-4.7,8.22-8.28,8.72-13.72.46-5.09-3.63-9.44-4.87-14.41-2.52-10.12,6.53-14.62,8.33-17.01,5.36-7.1-3.28-33.54,13.6-44.67,5.6-3.69,13.84-3.91,18.7.67,2.94-.91,6.9-3.44,11.24-2.15,4.77,1.42,12.68,11.67,13.77,18.35,1.24,7.65-2.76,15.87.31,23.01,2.77,6.44,12.32,10.98,10.31,25.15-.24,1.71-3.63,8.34-4.75,9.68-3.53,4.24,2.63,10.97,4.01,16.28l-79.36-1.17Z"/>
      <g>
        <path class="cls-11" d="m104.36,88.9c-13.46-9.25-25.99-9.05-20.87-33.07l-23.17-1.38c-.94,17.83.28,19.1-7.54,25.68-1.72,1.45-12.7,7.46-12.7,7.46,17.42,14.79,49.25,13.57,64.28,1.31Z"/>
        <path class="cls-11" d="m50.58,23.52c-4.67,35.24,26.28,55.02,37.31,26.77C107.8-.7,54.38-5.16,50.58,23.52Z"/>
        <path class="cls-11" d="m92.85,34.38c-3.52-1.02-3.76,6.21-3.78,9.8-.04,7.08,9.33-8.18,3.78-9.8Z"/>
        <path class="cls-11" d="m49.05,33.93c3.53-1.01,3.73,6.23,3.73,9.82,0,7.08-9.29-8.23-3.73-9.82Z"/>
        <path class="cls-1" d="m60.41,37.51c-1.22,0-2.16-4.55.8-4.55,1.58,0,1.2,4.55-.8,4.55Z"/>
        <path class="cls-1" d="m81.34,37.56c1.22,0,2.19-4.54-.77-4.55-1.58,0-1.22,4.55.77,4.55Z"/>
        <path class="cls-5" d="m62.63,27.16c1.96.12,1.87,1.66.42,2.03-1.94.5-2.34-.2-6.5,1.2-4.59,1.55.83-3.57,6.08-3.24Z"/>
        <path class="cls-5" d="m77.92,27.62c-1.97.04-1.94,1.58-.51,2.01,1.91.58,2.64-.01,6.44,1.48,4.51,1.77-.63-3.6-5.93-3.49Z"/>
        <path class="cls-2" d="m68.34,44.9c4.19,1.68,3.91-.27,2.67-.19-4.15.27.01-1.49.15-8.22.01-.71-.82-.72-.91-.13-.06.4-.11,1.88-.2,2.31-1.19,5.25-3.04,5.7-1.7,6.24Z"/>
        <path class="cls-7" d="m76.33,51.01c.39-.11.69.33.44.64-7.59,9.49-13.22-.32-11.93-.76,2.62-.9,6.75,1.41,11.49.12Z"/>
        <path class="cls-2" d="m49.79,37.46c.1-.33.61-.17.51.15-.63,1.99-.01,3.15.82,3.61.13.07.17.23.1.35-.47.83-2.33-1.27-1.43-4.11Z"/>
        <path class="cls-2" d="m91.5,41.7c.77-.87.63-2.23.44-3.43-.05-.34.47-.42.52-.08.7,4.52-1.67,4.31-.97,3.51Z"/>
        <path class="cls-2" d="m61.09,58.61c7.06,7.64,17.9,4.92,20.9.59,1.18-1.68.1,4.1-8.9,4.71-9.94.67-14.03-7.51-12-5.3Z"/>
      </g>
      <g>
        <path class="cls-3" d="m46.85,438.89c2.67,7.58,12.15,7.52,13.5-1.14l-.11-20.94-16.86-.11,3.48,22.19Z"/>
        <path class="cls-3" d="m92.74,438.84c2.46,7.65,11.93,7.84,13.52-.78l.47-20.94-16.85-.56,2.86,22.28Z"/>
        <g>
          <g>
            <path class="cls-13" d="m21.21,459.83c-.5-.77-.6-1.76-.27-2.62.97-2.49,26.9-18.99,25.91-18.33,4.77,2.9,11.12,1.39,13.5-1.14,1.66,3.34,6.47,15.37,1.73,16.61-2.83.74-38.73,8.73-40.86,5.48Z"/>
            <path class="cls-10" d="m25.08,461.07c-2.28,0-3.84-.28-4.29-.96-.59-.9-.71-2.05-.31-3.07.93-2.39,20.89-15.26,25.49-18.11l-.04-.03.65-.43.04.06c.17-.1.27-.16.28-.16,0,0,.36.02.36.02l.05.19c4.59,2.63,10.54,1.09,12.67-1.18l.49-.52.32.64c1.42,2.85,5.08,11.83,3.36,15.63-.4.88-1.06,1.45-1.95,1.68-.32.08-26.48,6.23-37.12,6.23Zm21.77-21.61c-3.2,1.99-24.67,15.94-25.45,17.93-.27.71-.19,1.54.22,2.17,1.74,2.66,34.43-4.14,40.32-5.68.6-.16,1.02-.53,1.3-1.13,1.35-2.98-1.36-10.55-3.05-14.18-2.71,2.28-8.6,3.6-13.34.89Z"/>
          </g>
          <g>
            <path class="cls-10" d="m34.97,453.74c-1.07,0-2.3-.35-3.22-.79-.8-.38-1.81-1.04-2.07-1.99-.15-.53.16-1.07.69-1.22.53-.14,1.07.16,1.22.68.06.13.45.52,1.34.88,1.16.47,2.22.53,2.54.39.5-.22,1.09.01,1.3.51.22.5-.01,1.08-.51,1.3-.37.16-.81.23-1.28.23Z"/>
            <path class="cls-10" d="m40.27,450.05c-2.06,0-4.09-1.06-5.19-2.79-.3-.46-.16-1.07.3-1.37.46-.3,1.07-.16,1.37.3.82,1.28,2.47,2.04,4,1.85.54-.06,1.04.32,1.1.86.07.54-.32,1.04-.86,1.1-.24.03-.48.04-.71.04Z"/>
            <path class="cls-10" d="m44.95,446.47c-1.86,0-3.71-.69-5.09-1.91-.41-.36-.45-.99-.08-1.4.36-.41.99-.45,1.4-.08,1.16,1.03,2.79,1.54,4.35,1.38.55-.06,1.03.34,1.09.88.06.54-.34,1.03-.88,1.09-.26.03-.52.04-.78.04Z"/>
          </g>
        </g>
        <g>
          <g>
            <path class="cls-13" d="m66.53,459.1c-1.44-2.34.78-4.35,3.1-5.81,10.82-6.82,23.11-14.44,23.11-14.44,4.69,3.03,11.08,1.68,13.52-.78,1.38,2.98,6.18,15.51,1.19,16.67-2.87.67-38.86,7.71-40.92,4.37Z"/>
            <path class="cls-10" d="m71.17,460.44c-2.72,0-4.6-.31-5.07-1.08-1.3-2.12-.21-4.3,3.26-6.49,10.69-6.75,22.99-14.37,23.11-14.45l.27-.16.26.17c4.53,2.93,10.67,1.54,12.9-.71l.5-.5.3.64c1.34,2.88,4.74,11.94,2.92,15.68-.44.9-1.13,1.46-2.07,1.68-.31.07-25.3,5.23-36.38,5.23Zm-4.23-1.6c1.68,2.74,34.23-3.16,40.39-4.59.64-.15,1.1-.52,1.4-1.15,1.45-2.97-1.01-10.47-2.65-14.22-2.77,2.2-8.69,3.37-13.35.54-1.84,1.14-13.02,8.08-22.84,14.28-3.94,2.49-3.57,4.12-2.95,5.13h0Z"/>
          </g>
          <g>
            <path class="cls-10" d="m79.8,454.42s-.1,0-.15-.01c-1.3-.19-4.75-.71-5.01-3.66-.05-.54.36-1.02.9-1.07.55-.03,1.02.36,1.07.9.06.65.48,1.45,3.32,1.87.54.08.91.58.83,1.12-.07.49-.5.84-.98.84Z"/>
            <path class="cls-10" d="m84.92,450.64c-2.11-.08-4.12-1.18-5.29-2.85-.31-.45-.21-1.06.24-1.38.45-.31,1.07-.2,1.38.24.83,1.18,2.25,1.95,3.71,2.01.55.02.97.48.95,1.03-.02.53-.46.95-.99.95Z"/>
            <path class="cls-10" d="m89.25,447.26c-1.67,0-3.68-1.05-4.42-2.02-.33-.44-.24-1.06.19-1.39.44-.33,1.06-.24,1.39.19.46.61,2.39,1.48,3.2,1.19.51-.19,1.08.08,1.27.6.18.52-.08,1.08-.6,1.27-.31.11-.66.16-1.03.16Z"/>
          </g>
        </g>
      </g>
      <path class="cls-12" d="m68.16,427.75c-.03,1.15-.99,2.08-2.17,2.08-28.57.14-29.42.91-29.53-1.92-8.77-219.16-8.5-205.02-7.74-210.56,2.19-16.07,6.87-38.58,11.65-48.54,20,.13,42.94-.28,63.16-1.02,5.6,10.06,11.84,32.97,14.57,48.64,1.22,6.99-4.66,212-4.64,211.02-.03,1.15-.99,2.08-2.16,2.09-28.38.28-29.27,1.05-29.39-1.79l-7.87-187.79c-.7-5.64-5.9,188.79-5.88,187.8Z"/>
      <g>
        <path class="cls-10" d="m74.25,228.91c-.19,0-.38-.11-.46-.3-3.41-8.04-4.99-16.88-4.57-25.57.01-.27.25-.49.52-.47.27.01.48.24.47.52-.41,8.54,1.15,17.24,4.5,25.14.11.25-.01.54-.26.65-.06.03-.13.04-.19.04Z"/>
        <path class="cls-10" d="m30.34,209.59c-.14,0-.29-.06-.39-.18-.17-.21-.14-.52.07-.7l.74-.6c6.52-5.24,9.22-7.42,13.33-33.85.04-.27.3-.45.57-.41.27.04.46.3.41.57-4.18,26.82-6.96,29.06-13.69,34.47l-.74.6c-.09.07-.2.11-.31.11Z"/>
        <path class="cls-10" d="m114.68,209.46c-.07,0-.15-.02-.22-.05-8.56-4.31-9.87-4.97-18.79-35.71-.08-.26.07-.54.34-.61.27-.08.54.08.61.34,8.8,30.33,10.07,30.96,18.29,35.1.24.12.34.42.22.66-.09.17-.26.27-.44.27Z"/>
      </g>
      <g>
        <g>
          <path class="cls-6" d="m66.17,236.25c2.44-.2,10.46-1.27,10.78-6.89.42-7.35-11.17-4.54-12.77,2.39-.4,1.73.33,4.63,1.99,4.5Z"/>
          <path class="cls-3" d="m98.31,196l11.94,8.35c-12.89,13.89-31.65,35.13-36.43,34.37-17.54-2.76-2.37-6.34.03-8.19,4.17-3.21-2.96-6.22-5.36-4-1.53,1.41-.91,4.52-3.12,5.28-.8.27-1.7-.08-1.86-.89-.25-1.23,2.34-2.69.98-3.58-.97-.64-.3-4.18,3.19-5.82,21.96-10.36,8.99,10.2,30.62-25.51Z"/>
        </g>
        <g>
          <path class="cls-6" d="m75.81,221.91c-.74-1.53,2.31-2.36,2.49-.15.06.72-.38,1.43-1,1.84,1.44.81,2.85-1.85,4.32-1.21,2.79,1.2-4.21,14.46-12.14,10.16-1.7-.92-.14-1.99.64-3.08,5.23-7.28,1.59-13.52,5.69-7.55Z"/>
          <path class="cls-3" d="m35.03,206.19l9.25-10.19,13.85,22.1c11.65,2.38,16.57.28,20.57,6.57.27.42.06.98-.43,1.1-2.45.56-4.13-1.01-4.95-1.42-3.39-1.68-10.17,2.25-4.34,6.44,8.22,5.9,12.35-4.95,15.43-5.07,2.79-.11.42,4.31-5.96,9.6-3.6,2.99-3.48.83-9.45,1.04-3.59.13.16,1.56-33.97-30.16Z"/>
          <path class="cls-6" d="m74.32,237.32c-.8,0-1.46-.23-2.09-.44-.6-.2-1.12-.38-1.67-.29-2.88.46-4.62.31-5.17-.45-.27-.37-.18-.79-.08-.97.06-.12.21-.17.33-.11.12.06.17.21.11.33,0,.01-.11.25.04.46.2.27,1.05.82,4.68.24.67-.11,1.27.1,1.91.31,2.01.68,4.76,1.62,12.57-8.61.5-.65.57-1.31.17-1.67-.36-.33-1.07-.35-1.74.25-8.63,7.77-13.18,6.26-14.73,5.24-1.71-1.11-2.46-3.23-1.83-5.16.63-1.91,2.39-2.97,4.71-2.83.82.05,1.54.42,2.23.78.39.2.79.41,1.19.55,2.66.94,3.43.59,3.64.4.14-.13.18-.35.1-.63-.36-1.31-3-3.67-6.32-4.39-.13-.03-.22-.16-.19-.29.03-.13.16-.22.29-.19,3.28.71,6.23,3.09,6.69,4.74.16.59-.04.94-.24,1.12-.6.56-2,.46-4.14-.29-.44-.15-.85-.37-1.26-.58-.68-.35-1.32-.69-2.03-.73-2.09-.12-3.66.81-4.21,2.49-.56,1.71.11,3.6,1.63,4.59,3.03,1.98,8.32.04,14.13-5.2.89-.8,1.88-.73,2.41-.25.45.42.69,1.28-.12,2.34-5.83,7.63-8.91,9.21-11.03,9.21Z"/>
        </g>
      </g>
      <g>
        <path class="cls-10" d="m57.13,76.71c5.82,5.75,21.34,5.75,28.91.6.6-.41-1.87-1.14,23.8,8.81,3.66,20.53,5.84,71.31-6.33,81.67-14.93,12.72-53.14,10.86-63.16,1.02-15.03-14.78-7.07-58.04-5.2-83.85.75-1.06,21.11-9.09,21.97-8.25Z"/>
        <path class="cls-13" d="m70.5,177.23c-12.85,0-25.2-2.87-30.49-8.07-12.55-12.33-9.33-43.86-6.74-69.2.55-5.4,1.07-10.49,1.4-15.04v-.14s.09-.11.09-.11c.88-1.24,18.88-8.24,21.89-8.51.29-.02.61-.02.83.19,5.54,5.47,20.61,5.76,28.29.54q.42-.54,9.01,2.82c3.44,1.35,8.32,3.25,15.25,5.94l.26.1.05.27c3.27,18.31,6.21,71.31-6.49,82.14-7.3,6.22-20.57,9.06-33.34,9.06Zm-34.86-92.04c-.33,4.52-.85,9.55-1.39,14.88-2.56,25.12-5.75,56.39,6.45,68.39,10.3,10.12,48.13,11.19,62.49-1.04,11.55-9.84,10.16-58.43,6.21-80.93-6.79-2.63-11.59-4.51-14.99-5.84-5.35-2.09-7.43-2.9-7.98-3.02-.03.03-.07.07-.12.1-7.96,5.41-23.59,5.08-29.46-.58-2.08-.19-19.5,6.79-21.22,8.05Z"/>
      </g>
      <g>
        <path class="cls-8" d="m10.09,110.36c-17.58,71.93-14.63,57.5,40.41,112.23,1.44,1.43,10.69-4.55,9.55-6.57l-31.15-54.86c6.36-24.59-4.5-50.46,13.01-70.43,2.19-2.5,14.82-14.44,14.82-14.44-33.03,9.61-40.42,8.61-46.64,34.07Z"/>
        <path class="cls-9" d="m51.19,223.29c-.43,0-.79-.11-1.04-.35-8.95-8.9-16.67-16.1-22.86-21.89Q-5.18,170.74,9.17,112.04l.44-1.8c5.58-22.82,12.16-24.66,36.63-31.49,3.14-.88,6.58-1.84,10.36-2.93l1.97-.57-1.49,1.41c-.13.12-12.64,11.95-14.79,14.4-10.77,12.28-10.69,26.75-10.6,42.06.05,9.18.11,18.68-2.26,27.97l31.05,54.69c.78,1.38-1.44,3.37-2.84,4.44-1.79,1.37-4.72,3.08-6.45,3.08ZM10.09,110.36l.48.12-.44,1.8q-14.21,58.13,17.83,88.05c6.2,5.79,13.92,13,22.88,21.91.43.42,3.37-.67,6.19-2.82,2.22-1.7,2.76-2.84,2.58-3.16l-31.25-55.03.05-.19c2.39-9.23,2.33-18.73,2.28-27.91-.09-15.51-.18-30.16,10.84-42.72,1.75-2,9.96-9.83,13.38-13.07-3.02.87-5.82,1.65-8.41,2.37-24.03,6.71-30.49,8.51-35.93,30.77l-.48-.12Z"/>
      </g>
      <g>
        <path class="cls-8" d="m132.91,111.05c17.57,71.91,13.03,52.06-39.07,113.16-1.25,1.46-9.99-6.71-9.07-8.4l29.33-53.97c-6.36-24.59,4.5-50.46-13.01-70.43-1.53-1.74-14.64-14.39-14.64-14.39,32.84,9.58,40.24,8.58,46.46,34.02Z"/>
        <path class="cls-9" d="m93.41,224.89c-.61,0-1.46-.38-2.57-1.13-2.31-1.59-7.46-6.42-6.51-8.17l29.24-53.8c-2.37-9.29-2.31-18.79-2.26-27.98.09-15.31.17-29.78-10.6-42.06-1.5-1.71-14.48-14.23-14.61-14.36l-1.44-1.39,1.93.56c3.76,1.1,7.18,2.05,10.31,2.93,24.36,6.81,30.91,8.64,36.49,31.45l.24.97q13.64,55.8-12.25,82.83c-7.13,7.45-16.01,16.72-27.16,29.8-.2.23-.47.35-.81.35Zm-5.18-146.83c3.46,3.35,12,11.62,13.23,13.03,11.02,12.56,10.93,27.21,10.84,42.72-.05,9.18-.11,18.68,2.28,27.91l.05.19-.09.17-29.33,53.97c-.13.28.58,1.77,2.9,4.08,2.81,2.8,4.99,3.93,5.37,3.75,11.16-13.09,20.05-22.38,27.19-29.83q25.51-26.64,12-81.91l-.24-.97c-5.44-22.25-11.87-24.04-35.79-30.73-2.59-.72-5.39-1.51-8.41-2.38Z"/>
      </g>
      <g>
        <path class="cls-8" d="m87.17,77.24c-6.99,6.43-25.55,7.37-31.55-.62,6.1-23.85-1.57-4.19,27.58-12.04.91-.24.71.44,3.97,12.66Z"/>
        <path class="cls-9" d="m70.8,82.83c-.96,0-1.92-.04-2.88-.13-5.79-.53-10.3-2.58-12.71-5.79l-.14-.19.06-.23c.59-2.29,1.04-4.17,1.42-5.72,1.14-4.71,1.53-6.29,2.5-6.79.68-.35,1.4-.05,2.48.39,2.65,1.08,8.17,3.32,21.53-.28.14-.04.46-.12.77.06.55.32.74,1.07,1.8,5.25.47,1.84,1.1,4.33,2,7.7l.08.29-.22.2c-3.5,3.22-10.08,5.23-16.7,5.23Zm-14.65-6.33c2.27,2.87,6.47,4.72,11.86,5.21,7.12.65,14.7-1.25,18.6-4.64-.86-3.23-1.47-5.63-1.93-7.42-.73-2.86-1.13-4.44-1.36-4.65-13.68,3.74-19.41,1.41-22.16.29-.81-.33-1.39-.56-1.66-.43-.56.29-1.04,2.24-1.99,6.14-.36,1.5-.81,3.31-1.36,5.5Z"/>
      </g>
      <path class="cls-5" d="m101.14,48.19c-2.61-7.6,4.61-29.12-4.85-41.43-8.6-11.19-29.7-7.05-24.08,2.08,25.7,41.82,9.04,21.13,28.93,39.35Z"/>
      <path class="cls-5" d="m39.83,47.5c2.75-8,1.35-31.83,8.21-40.74,8.09-10.53,23.76-6.23,24.56-3.26.29,1.87,2.29,6.2.7,7.28-18.88,12.9-18.25,16.59-20.75,28.46-1.07,5.06-12.38,8.08-12.72,8.26Z"/>
      <g>
        <path class="cls-1" d="m72.27,3.21c.06-.53.87-.43.81.09-.26,2.16-.41,4.4.85,5.92.81.98-2.6,1.81-1.66-6.02Z"/>
        <path class="cls-1" d="m55.97,4.13c4.79-5.28,16.17-1.4,14.95-.02-.15.17-.41.18-.58.04-2.17-1.86-10.2-3.4-13.77.52-.36.4-.97-.14-.61-.53Z"/>
        <path class="cls-1" d="m71.35,5.9c.55.02.48.84-.04.8-1.62-.07-3.26.22-4.74.84-1.09.45-1-1.9,4.78-1.64Z"/>
        <path class="cls-1" d="m57.46,18.24c2.8-5.14,11.13-4.69,13.5-9.63.23-.48.97-.13.74.34-2.55,5.3-10.9,4.85-13.52,9.66-.25.47-.97.09-.72-.38Z"/>
        <path class="cls-1" d="m79.79,18.55c-2.33-2.92-1.14-9.26-5.27-9.61-2.05-.17,2.88-3.36,4.49,5.26.26,1.37.57,2.79,1.42,3.86.33.42-.31.91-.64.49Z"/>
        <path class="cls-1" d="m75.02,6.07c-.57.09-1.53-1.62,3-.4,1.03.28,2,.54,2.95.33.52-.12.71.66.18.78-2.15.48-4.2-1-6.13-.71Z"/>
        <path class="cls-1" d="m75.47,3.05c3.1-1.89,6.92-2.51,10.47-1.72.53.12.34.9-.18.78-3.35-.75-6.94-.16-9.86,1.62-.46.28-.89-.4-.43-.68Z"/>
        <path class="cls-1" d="m49.19,11.79c.32-.42.98.06.65.48-2.9,3.79-4.43,8.49-4.3,13.22.07,2.76-3.24-4.72,3.65-13.7Z"/>
        <path class="cls-1" d="m44.93,38.96c2.67-.6,7.41-5.21,6.82-10.64-.06-.53.76-.6.81-.08.62,5.73-4.33,10.79-7.45,11.5-.52.12-.71-.66-.18-.78Z"/>
        <path class="cls-1" d="m85.37,25.47c0-.53.82-.53.82,0,0,1.13.34,6.99,6.97,11.84.18.13.22.38.08.56-.74.98-7.87-5.61-7.87-12.4Z"/>
        <path class="cls-1" d="m94.71,31.34c-2.22-3.75.46-8.25.7-11.9.3-4.38-2.83-8.84-7.11-10.15-.22-.07-.33-.29-.27-.5.41-1.3,8.71,2.96,8.19,10.7-.25,3.69-2.82,8.05-.81,11.44.27.46-.44.86-.71.4Z"/>
        <path class="cls-1" d="m40.32,78.3c3.17-17.99-15.74-17.17,5.5-30.69.45-.29.9.38.44.67-20.65,13.14-1.87,11.57-5.14,30.16-.09.52-.9.39-.8-.14Z"/>
        <path class="cls-1" d="m52.87,74.58c1.55-2.21-1.31-7.44.73-9.44.38-.37.96.19.58.57-1.61,1.58,1.14,6.81-.63,9.33-.31.44-.98-.02-.67-.45Z"/>
        <path class="cls-1" d="m46.47,74.42c3.98-6.36-1.91-9.02,1.84-15.54.27-.46.98-.07.71.39-3.54,6.17,2.34,8.87-1.85,15.57-.28.45-.98.03-.7-.42Z"/>
        <path class="cls-1" d="m86.57,63.43c.05-.53.86-.45.81.07-.3,3.15-.85,8.03,2,11.2,1.22,1.35-4.02,1.49-2.81-11.27Z"/>
        <path class="cls-1" d="m94.98,76.26c-3.89-5.31.68-6.91-1.75-16-.14-.51.65-.71.79-.2,2.48,9.28-2.01,10.77,1.62,15.74.31.43-.35.9-.66.47Z"/>
        <path class="cls-1" d="m101.52,65.93c6.54-10.81-3.92-18.73-6.92-18.73-.54,0-.54-.8,0-.8,3.65,0,14.48,8.59,7.62,19.94-2.2,3.64-3.53,9.65-1.82,13.01.1.2.02.44-.18.54-1.33.65-2.77-7.21,1.3-13.95Z"/>
      </g>
    </g>
  </g>
</svg>