<?xml version="1.0" encoding="UTF-8"?>
<svg id="Layer_2" data-name="Layer 2" xmlns="http://www.w3.org/2000/svg" viewBox="0 0 163.48 469.07">
  <defs>
    <style>
      .cls-1 {
        fill: #ce8b35;
      }

      .cls-1, .cls-2, .cls-3, .cls-4, .cls-5, .cls-6, .cls-7, .cls-8, .cls-9, .cls-10, .cls-11, .cls-12, .cls-13, .cls-14, .cls-15, .cls-16, .cls-17 {
        stroke-width: 0px;
      }

      .cls-2 {
        fill: #ffba58;
      }

      .cls-3 {
        fill: #1f2930;
      }

      .cls-4 {
        fill: #382823;
      }

      .cls-5 {
        fill: #682c1c;
      }

      .cls-6 {
        fill: #ff9c8a;
      }

      .cls-7 {
        fill: #2c3945;
      }

      .cls-8 {
        fill: #242c37;
      }

      .cls-9 {
        fill: #07191d;
      }

      .cls-10 {
        fill: #475978;
      }

      .cls-11 {
        fill: #e6501f;
      }

      .cls-12 {
        fill: #fffffb;
      }

      .cls-13 {
        fill: #d7d7d7;
      }

      .cls-14 {
        fill: #f07957;
      }

      .cls-15 {
        fill: #7b3b23;
      }

      .cls-16 {
        fill: #46535b;
      }

      .cls-17 {
        fill: #fbad3c;
      }
    </style>
  </defs>
  <g id="Layer_1-2" data-name="Layer 1">
    <g>
      <path class="cls-5" d="m50.88,72.5c1.69,4,3.79,6.08,4.91,13.62.15,1.03.49,1.29,1.72,1.04,10.57-2.13,43.19,1.38,44.12-9.68.32-3.74-2.02-19.61-3.74-22.94-2.78-5.35-18.56-12.6-24.46-13.33-15.09-1.86-29.18,15.6-22.54,31.29Z"/>
      <path class="cls-9" d="m92.38,83.57c1.64,1.36-9.14,14.58-18.8,14.58s-19.07-11.95-17.98-13.84c.36-.62,9.49-5.06,19.15-5.06s16.61,3.48,17.63,4.32Z"/>
      <g>
        <path class="cls-6" d="m109.51,96.91c-14.75-10.12-28.12-9.35-23.63-37.3l-24.8-.61c-.28,20.63,1.08,22.03-7.01,29.97-1.78,1.75-13.26,9.14-13.26,9.14,19.21,16.34,53.15,13.59,68.7-1.2Z"/>
        <path class="cls-6" d="m43.79,34.36c4.04,40.83,41.22,54.95,45.55,20.31C97.17-7.86,40.51,1.13,43.79,34.36Z"/>
        <path class="cls-6" d="m90.48,35.49c-3.92-.23-2.35,7.96-1.46,12,1.75,7.96,7.63-11.64,1.46-12Z"/>
        <path class="cls-6" d="m46.73,56c-6.79-8.95.42-17.51,4.46.51,1.06,4.73-3.44.84-4.46-.51Z"/>
        <path class="cls-4" d="m57.55,47.51c-1.27.32-3.4-4.55-.32-5.32,1.64-.41,2.4,4.8.32,5.32Z"/>
        <path class="cls-4" d="m79.32,42.08c1.27-.32,1.13-5.68-1.95-4.91-1.64.41-.13,5.43,1.95,4.91Z"/>
        <path class="cls-14" d="m67.66,53.73c4.79.79,4-1.33,2.72-.91-4.24,1.39-.36-1.67-1.92-9.28-.16-.8-1.04-.59-.98.09.04.47.36,2.14.37,2.64.09,6.21-1.72,7.2-.19,7.46Z"/>
        <path class="cls-14" d="m78.3,58.7c-5.58,13.28-14.47,3.3-12.5,2.78,11.32-3.03,13.08-4.15,12.5-2.78Z"/>
        <path class="cls-14" d="m46.5,50.24c.03-.4.59-.35.57.04-.15,2.4.78,3.55,1.76,3.84,1.61.47-2.67,1.64-2.33-3.88Z"/>
        <path class="cls-14" d="m90.93,44.07c.58-1.18.09-2.67-.41-3.98-.14-.37.39-.59.53-.22,1.87,4.91-.64,5.26-.12,4.2Z"/>
        <path class="cls-14" d="m62.35,71.46c-.42-.28-.03-.95.4-.68,8.12,5.33,17.01,4.12,21.62-2.93.28-.43.9.02.62.45-4.86,7.42-14.16,8.72-22.64,3.15Z"/>
        <path class="cls-5" d="m57.43,36.67c2-.22,2.17,1.47.78,2.14-14.85,7.09-5.73-1.6-.78-2.14Z"/>
        <path class="cls-5" d="m73.58,32.12c-1.86.8-1.26,2.38.26,2.28,16.26-1.12,4.35-4.26-.26-2.28Z"/>
      </g>
      <path class="cls-12" d="m37.51,97.35c-.03,21.64,3.43,61.12,9.45,81.63,3.62,12.35,54.62,9.55,56.19-1.19,3.09-21.18,9.6-58.48,9.56-81.01l-21.11-10.67c-5.96,12.25-30.69,11.75-35.99,1.28l-18.1,9.96Z"/>
      <g>
        <path class="cls-17" d="m59.84,94.76c-.5-.46.17-1.26.66-.79,14.47,13.46,17.16,15.52,19.67,12.06,9.2-12.68,11.68-17.97,11.71-18.02.42-.9,4.58-2.71-10.92,18.66-3.25,4.47-7.09,1.26-21.13-11.91Z"/>
        <path class="cls-11" d="m77.84,110.02c-2.11,0-2.11-3.38,0-3.38s2.11,3.38,0,3.38Z"/>
        <path class="cls-11" d="m82.53,104.47c-1.09,0-1.09-1.75,0-1.75s1.09,1.75,0,1.75Z"/>
        <path class="cls-11" d="m72.2,106.22c-1.64,0-1.64-2.62,0-2.62s1.64,2.62,0,2.62Z"/>
      </g>
      <path class="cls-6" d="m60.87,445.36c2.61,8.22,12.09,8.24,13.5-1.12l.06-22.64-16.86-.26,3.3,24.02Z"/>
      <path class="cls-2" d="m75.82,441.62c-8.71,3.1-20.59,2.47-21-.74-29.96-235.04-43.01-232.16-5.64-256.11l27.01,1.8c5.94,38.98,1.26,254.47-.38,255.05Z"/>
      <path class="cls-9" d="m37.51,97.35c-5.55,2.19-6.81,6.02-9.6,9.59-12.64,16.15-9.19,24.57-18.41,36.73-5.4,7.12-8.5,15.93-9.45,24.97-.85,8.04,10.88,25.5,15.48,31.89,7.23,10.05,7.2,12.83,11.41,12.83,0,0,.12-10.34,8.65-17.36-4.82-15.45-6.43-18.21-10.18-25.09,22.93-40.15,27.99-44.65,29.04-56.71.99-11.37-6.15-21.1-16.94-16.85Z"/>
      <path class="cls-8" d="m35.06,467.79c-.5-.84-.58-1.91-.24-2.83.99-2.69,27.05-20.3,26.05-19.6,4.74,3.18,11.11,1.59,13.5-1.12,1.64,3.62,6.34,16.67,1.59,17.97-2.84.78-38.8,9.11-40.91,5.58Z"/>
      <path class="cls-6" d="m109.87,445.76c2.61,8.22,12.09,8.24,13.5-1.12l.06-22.64-16.86-.26,3.3,24.02Z"/>
      <path class="cls-8" d="m84.06,468.19c-1.48-2.5.7-4.72,2.99-6.35,10.68-7.6,22.82-16.08,22.82-16.08,4.74,3.18,11.11,1.59,13.5-1.12,1.44,3.19,6.48,16.64,1.51,17.99-2.86.78-38.7,9.13-40.83,5.55Z"/>
      <path class="cls-2" d="m107.74,443.36c7.23,1.41,19.35-1.66,19.52-4.87,13.1-252.94-17.07-256.05-17.07-256.05l-34,4.13c-3,46.48,27.1,255.93,31.55,256.79Z"/>
      <path class="cls-9" d="m70.04,179.05c-27.11-82.02-28.35-83.12-22.58-87.58,2-1.55,8.13-7.16,8.13-7.16,2.8,1.59,27.77,49.52,14.45,94.74Z"/>
      <path class="cls-16" d="m44.06,115.23c-.13,0-.25-.05-.35-.14-.21-.19-.22-.52-.02-.73l11.16-11.82-12.71-1.07c-.28-.02-.49-.27-.47-.56.02-.28.27-.5.56-.47l14.83,1.25-12.62,13.37c-.1.11-.24.16-.37.16Z"/>
      <path class="cls-16" d="m70.04,179.56s-.04,0-.05,0c-.28-.03-.49-.28-.46-.57l.12-1.17c.99-9.29,3.31-31.04-3.81-38.89l.2-.18-.23.11c-.39-.7-11.13-14.99-22.08-23.75-.22-.18-.26-.5-.08-.72.18-.22.5-.26.72-.08,9.56,7.65,20.58,21.18,22.2,23.96,7.45,8.17,5.1,30.24,4.1,39.67l-.12,1.16c-.03.26-.25.46-.51.46Z"/>
      <path class="cls-7" d="m42.18,100.96l13.77,1.16-11.89,12.59c7.37,5.68,23.32,22.49,25.9,31.07,3.68,12.22-.53,40.51-4.44,53.07-10.4,1.29-21.43-1.85-33.41-4.6-6.17-48.21-.16-90.38-.04-93.11.09-1.97,19.16-15.33,23.52-16.84l-13.42,16.65Z"/>
      <path class="cls-9" d="m83.6,189.85s28.88-71.85,28.7-73.84c-.3-3.35-2.17-18.92-4.67-20.84-2-1.55-15.26-11.59-15.26-11.59-3.03,7.73-10.67,86.68-8.77,106.28Z"/>
      <path class="cls-16" d="m108.13,115.46c-.13,0-.26-.05-.36-.15l-13.75-13.72,11.45-5.44c.26-.12.56-.01.69.24.12.26.01.56-.24.69l-10.13,4.81,12.71,12.69c.2.2.2.53,0,.73-.1.1-.23.15-.36.15Z"/>
      <path class="cls-16" d="m83.36,179.3c-.32-.02-.53-.26-.51-.55,2.06-32.66,9.98-43.58,24.37-63.42l.5-.69c.17-.23.49-.28.72-.11.23.17.28.49.11.72l-.5.69c-14.27,19.68-22.14,30.52-24.17,62.88-.02.27-.24.48-.51.48Z"/>
      <path class="cls-16" d="m105.69,97.14c-.13,0-.26-.05-.36-.15l-12.26-12.03c-.2-.2-.21-.52,0-.73.2-.2.52-.21.73,0l12.26,12.03c.2.2.21.52,0,.73-.1.1-.23.15-.37.15Z"/>
      <path class="cls-1" d="m120.7,210.04c-.18,0-.35-.09-.44-.26-4.45-7.62-10.69-12.73-17.56-14.39-.28-.07-.45-.34-.38-.62.07-.28.35-.45.62-.38,7.15,1.72,13.62,7.01,18.21,14.87.14.25.06.56-.18.7-.08.05-.17.07-.26.07Z"/>
      <path class="cls-7" d="m105.69,96.62l-10.79,5.12,13.23,13.2c-5.47,7.03-17.01,23.44-19.59,32.02-3.68,12.22-7.65,40.39-3.74,52.94,13.42-.92,28.96-3.23,39.11-7.65,6.17-48.21-6.72-94.55-6.84-97.28-.09-1.97-20.33-9.9-24.69-11.41l13.31,13.05Z"/>
      <path class="cls-9" d="m63.28,195.25c-.24,0-.46-.17-.5-.42l-4.92-25.76c-1.05-.84-1.43-1.69-1.12-2.52,1.17-3.19,13.19-3.88,16.86-3.67.28.02.5.26.48.54-.02.28-.26.5-.54.48-4.87-.28-15.06.9-15.83,3-.18.49.41,1.07.94,1.46l.16.12,5,26.14c.05.28-.13.55-.41.6-.03,0-.07,0-.1,0Z"/>
      <path class="cls-1" d="m73,234.05c-.62,0-1.32-.03-2.09-.09-.28-.02-.5-.27-.47-.55s.27-.49.55-.47c3.21.24,4.94-.02,5.79-.88.7-.71.91-1.93.72-4.22-.4-4.77-.82-11.41-1.22-17.83-.54-8.66-1.16-18.44-1.55-19.83-.02-.02-.03-.03-.05-.05-.19-.21-.17-.54.05-.73.15-.13.39-.17.57-.1.59.25.78,1.05,2.01,20.64.4,6.42.82,13.05,1.22,17.81.16,1.92.15,3.86-1.01,5.03-.86.87-2.23,1.27-4.51,1.27Z"/>
      <path class="cls-16" d="m91.21,171.79c-.2,0-.38-.11-.47-.3-.12-.26,0-.56.26-.68,8.72-3.91,30.91-10.88,31.13-10.95.27-.08.56.07.65.34.08.27-.07.56-.34.64-.22.07-22.35,7.02-31.02,10.91-.07.03-.14.05-.21.05Z"/>
      <path class="cls-9" d="m113.47,92.41s9.67,2.06,18.5,17.86c3.47,6.22,11.18,13.44,16.82,24.76,3.05,6.12,7.06,14.86,11.77,21.43,13.73,19.14-25.23,23.36-28,24.85-4.08,2.19-17.43,6.55-25.16,6.16-7.11-.36-13.89,1.15-17.86,1.15-2.53-3.57-4.73-9.03-3.9-13.72,13.58-5.75,34.66-14.33,48.78-17.93-13.14-9.93-14.69-13.04-14.69-13.04-3.21-14.04-6.26-42.7-6.26-51.52Z"/>
      <path class="cls-6" d="m88.17,180.08c-.22-.57-.02-1.31-.34-1.91-.39-.74-1.11-1.32-1.82-1.82-1.72-1.23-3.64-2.04-5.71-2.66-1.37-.41-2.73-.85-4.13-1.16-.72-.16-2.18-.68-2.8-.4-.63.29-.97,1.44-.66,1.99,5.2,9.25-5.44-1.41,3.81,2.47,1.71.72,2.43,3.15,4.27,3.48,1.97.36,5.21-.81,7.39,0Z"/>
      <g>
        <path class="cls-13" d="m79.07,194.04c-1.89,3.09-12.25,4.71-15.42.5l-5.07-26.61c6.88,3.86,18.31,1.74,22.31-1.86l-1.82,27.98Z"/>
        <path class="cls-11" d="m79.97,163.82c.95.72-5.66,3.84-10.42,4.07-4.6.22-11.69-1.57-11.05-2.44,1.51-2.04,19.73-2.95,21.46-1.63Z"/>
        <path class="cls-10" d="m60.96,165.46c-1.29-.21,5.62-1.47,8.31-1.62,17.61-1.02,2.89,3.46-8.31,1.62Z"/>
        <path class="cls-10" d="m81.79,165.65c-.43-.96-.72-1.15-1.82-1.83-4.85,3.21-14.64,4.07-21.46,1.63-6.28,5.07,18.32,8.14,23.28.2Z"/>
      </g>
      <path class="cls-15" d="m83.78,36.71c-1.73,16.12,4.75,16.87,5.25,20.66.73,5.57-8.09,5.07,6.38,25.64,2.5,3.55,23.21-1.26,23.58-4.73.71-6.74,3.45-14.25-.96-19.57-1.71-2.07-4.88-3.39-6.12-5.65-1.95-3.56,1.37-8.28.22-12.1-1.86-6.21-14.45-7.62-15.89-13.94-.73-3.21,2.47-14.19-6.84-22.42-12.04-10.64-37.31-1.19-26.6,11.57,0,0,23.47-2.64,20.99,20.54Z"/>
      <path class="cls-15" d="m51.43,47.94c8.03,13.82,2.46,17.41,3.53,21.07.74,2.55,11.95,8.04,3.68,24-2.1,4.05-20.69,11.39-22.41,8.41-3.34-5.79-8.84-11.34-6.98-18.15.72-2.64,3.05-5.26,3.27-7.87.34-4.1-4.56-6.88-5.05-10.85-.81-6.46,10.02-13.4,8.79-19.77-.63-3.24-6.98-11.32-2.8-23.38,6.66-19.19,33.14-24.81,29.9-5.27-1.65,6.45-25.87,7.84-11.94,31.8Z"/>
      <g>
        <path class="cls-5" d="m62.87,13.93c.23-2.26-.36-4.61-1.64-6.44-.37-.54.4-1.14.77-.6,1.41,2.03,2.08,4.64,1.82,7.15-.07.67-1.02.56-.95-.11Z"/>
        <path class="cls-5" d="m63.77,6.5c2.34-3.04,6.21-4.6,9.86-3.98.63.11.47,1.11-.15,1-3.32-.56-6.84.86-8.97,3.62-.4.52-1.14-.12-.74-.64Z"/>
        <path class="cls-5" d="m65.07,9.71c-.61-.14-.42-1.13.2-.99,1.23.29,2.23-2.33,4.1-1.35.57.3.14,1.2-.42.91-1.17-.62-2.06,1.85-3.88,1.43Z"/>
        <path class="cls-5" d="m76.42,15.71c-4.95-3.17-4.35-3.2-9.77-2.85-.59.04-1.24.2-1.28-.42-.04-.62.63-.55,1.22-.59,5.72-.37,5.19-.3,10.33,2.99.54.35.05,1.21-.49.87Z"/>
        <path class="cls-5" d="m59.11,7.66c-2.31-2.14-8.3-.68-9.29,1.03-.33.57-1.15.05-.82-.53,1.33-2.31,8.02-3.79,10.73-1.27.48.44-.15,1.2-.63.76Z"/>
        <path class="cls-5" d="m56.05,12.67c-.56-.31-.12-1.21.44-.9,1.32.73,2.4-2.81,4.78-1.28.54.35.05,1.21-.5.86-1.7-1.1-2.58,2.49-4.72,1.31Z"/>
        <path class="cls-5" d="m52.59,22.4c1.62-3.65,9.18-5.2,7.94-8.23-.63-1.54,2.8-.35.09,2.86-2.11,2.49-5.9,2.97-7.16,5.8-.27.61-1.13.17-.86-.43Z"/>
        <path class="cls-5" d="m37.09,33.97c-4.47-6.89,3.18-15.83,3.52-17.9.11-.66,1.05-.49.94.17-.39,2.39-7.75,10.89-3.67,17.16.36.55-.43,1.13-.79.57Z"/>
        <path class="cls-5" d="m50.44,62.93c2.41-17.9-11.05-15.08-4.97-32.68.22-.63,1.12-.28.9.35-5.73,16.57,7.41,14.7,5.01,32.48-.09.66-1.04.52-.95-.14Z"/>
        <path class="cls-5" d="m95.89,36.03c-10.8-6.4-7.93-12.04-7.47-16.81.67-6.95-3.46-13.21-6.34-13.35-.63-.03-.59-1.04.04-1.01,3.64.18,7.95,7.2,7.24,14.46-.47,4.84-3.18,9.8,6.99,15.83.55.33.09,1.21-.47.88Z"/>
        <path class="cls-5" d="m99.27,77.34c-13.09-7.93,1.28-10.96-6-20.53-2.27-2.98-8.11-7.6-6.6-13.22.17-.64,1.09-.37.92.28-1.35,5,4.12,9.26,6.43,12.3,7.82,10.28-6.61,12.81,5.73,20.29.55.33.07,1.21-.47.88Z"/>
        <path class="cls-5" d="m114.13,69.3c-2.64-15.74-10.23-5.31-9.36-19.74.12-2.06.54-6.12-2.29-7.83-.58-.35-1-.36-1.11-.31-1.02.46-1.04-2.14,1.58-.57,3.31,2,2.91,6.42,2.77,8.78-.84,13.9,6.57,2.93,9.35,19.5.11.66-.83.84-.94.18Z"/>
        <path class="cls-5" d="m108.57,75.96c-2.12-6.58-3.51-5.35-6.48-8.65-2.14-2.38-2.94-5.96-2.02-9.1.19-.64,1.1-.34.91.3-.8,2.76-.08,6.02,1.8,8.11,2.83,3.15,4.47,2.13,6.69,9.02.2.63-.7.96-.9.33Z"/>
        <path class="cls-5" d="m38.02,88.2c-.93-6.84,3.47-10.83-2-17.93-4.9-6.37-2.67-9.8,3.22-21.17.3-.59,1.14-.1.84.49-13.46,25.98,2.04,13.32-.77,32.28-.33,2.24-1.49,8.79,2.18,10.3.25.1.37.39.27.66-.38,1.04-3.22-.73-3.74-4.62Z"/>
        <path class="cls-5" d="m53.36,83.12c.89-4.49,1.72-8.73-8.11-12.57-.59-.23-.26-1.18.33-.95,10.6,4.14,9.64,9.01,8.71,13.72-.35,1.78-1.01,4.68.21,5.56,1.27.91-2.87,3-1.14-5.77Z"/>
        <path class="cls-5" d="m48.45,95.18c-.9-3.69-1.1-4.69-1.64-5.7-.83-1.58-4.04-4.33-2.66-9.1.19-.64,1.1-.34.91.3-1.22,4.22,1.68,6.61,2.58,8.31.6,1.14.81,2.17,1.73,5.94.16.65-.77.9-.93.25Z"/>
      </g>
      <g>
        <path class="cls-3" d="m29.97,163.53c-.2,0-.38-.16-.39-.37-.87-18.83-.04-29.83,1.11-45.05.36-4.74.76-10.12,1.16-16.27.01-.21.19-.38.41-.36.21.01.37.2.36.41-.4,6.15-.8,11.53-1.16,16.28-1.19,15.76-1.98,26.18-1.11,44.96,0,.21-.15.39-.37.4h-.02Z"/>
        <path class="cls-3" d="m17.6,172.85c-.12,0-.24-.05-.31-.16-.13-.17-.09-.41.08-.54l.15-.11c1.1-.82,3.08-2.33,5.22-2.27-1.95-1.64-4.24-4.2-3.41-6.69.07-.2.29-.31.49-.25.2.07.31.29.25.49-.94,2.83,3.36,6.1,4.7,7.03.27.19.34.39.2.6-.2.31-.52.13-.67.04-2.29-1.32-4.91.62-6.32,1.67l-.15.11c-.07.05-.15.08-.23.08Z"/>
        <path class="cls-3" d="m15.49,153.81c-.09,0-.17-.03-.24-.09-2.5-2.02-2.19-5.5-1.77-10.33.06-.7.12-1.44.18-2.21.02-.21.21-.37.41-.36.21.02.37.2.36.41-.06.77-.12,1.51-.18,2.22-.4,4.58-.69,7.9,1.49,9.66.17.13.19.38.06.54-.08.09-.19.14-.3.14Z"/>
        <path class="cls-3" d="m21.83,140.03c-.17,0-.32-.11-.37-.27-1.84-6.1-2.07-12.62-.68-18.85.05-.21.26-.34.46-.29.21.05.34.25.29.46-1.37,6.1-1.14,12.48.66,18.46.06.2-.05.42-.26.48-.04.01-.07.02-.11.02Z"/>
        <path class="cls-3" d="m123.02,147.93c-.1,0-.21-.04-.29-.13l-3.37-3.75c-1.87-5.49-6.68-49.59-6.25-50.85.07-.2.29-.31.49-.24.2.07.3.28.25.47-.25,1.54,4.22,44.19,6.22,50.29l3.23,3.56c.14.16.13.4-.03.54-.07.07-.17.1-.26.1Z"/>
        <path class="cls-3" d="m142.37,163.09c-.18,0-.34-.12-.38-.3-.62-2.81-2.94-5.13-5.62-5.65l-.32-.06-.04-.36c0-.84,4.68-3.29,8.66-3.99.21-.03.41.1.45.31.04.21-.1.41-.31.45-3.49.61-6.56,2.29-7.65,3.05,2.7.79,4.95,3.21,5.59,6.09.05.21-.08.41-.29.46-.03,0-.06,0-.08,0Z"/>
      </g>
      <path class="cls-1" d="m27.67,217.1s-.08,0-.12-.01c-.28-.06-.45-.34-.39-.62,2-8.73,4.22-16.31,11.05-20.64.24-.15.56-.08.71.16.15.24.08.56-.16.71-6.5,4.12-8.65,11.49-10.6,20-.05.24-.27.4-.5.4Z"/>
      <path class="cls-1" d="m79.54,252.02c-.38,0-.55-.34-.94-1.15-.65-1.35-2-4.16-4.05-4.86-.85-.29-1.74-.19-2.7.3-.25.13-.56.03-.69-.23-.13-.25-.03-.56.23-.69,1.21-.61,2.39-.73,3.5-.35,2.29.78,3.74,3.52,4.5,5.08,1.23-4.89,3.37-6.65,5.01-7.26,1.81-.67,3.65-.16,4.68.64.22.18.26.5.09.72-.17.22-.5.26-.72.09-.6-.47-2.04-1.09-3.68-.49-1.52.56-3.57,2.36-4.63,7.7l-.07.36-.42.13s-.06,0-.09,0Z"/>
      <path class="cls-1" d="m74.29,439.04c-.29,0-.52-.23-.51-.52,0-1.15.69-115.29,2.46-183.06,0-.28.24-.49.53-.5.28,0,.51.24.5.53-1.77,67.76-2.45,181.89-2.46,183.04,0,.28-.23.51-.51.51Z"/>
      <path class="cls-1" d="m124,437.73c-.31-.01-.53-.25-.51-.54.06-1.51,6.19-152.1-3.95-218.66-.04-.28.15-.54.43-.59.29-.04.54.15.59.43,10.15,66.65,4.02,217.34,3.96,218.85-.01.28-.24.49-.51.49Z"/>
      <path class="cls-6" d="m60.46,186.91l-.39-1.81c-.12-.55.3-1.11.91-1.13,3.33-.14,6.53,0,7.39-.28-2.68.13-5.34-.03-7.69.07-.51.02-.97-.3-1.07-.76l-.29-1.35c-.12-.57.33-1.11.96-1.14,3.25-.14,11.28-.35,17.08-1.25,8.85-1.36,8.27-2.12,10.06-2.1.37,0,1.73,5.31,1.88,5.62.37.76.32,2.03.22,2.67-.56,3.38-4.06,3.59-4.92,3.95-3.49,1.47-.83,2.77-9.4,3.71-3.73.41-8.82,1.07-12.29,1.13-.5,0-.94-.31-1.03-.77l-.17-.81c-.11-.52.25-1.02.8-1.12,2.22-.41,5.14-.67,7.53-1.07-.07,0-3.84.5-7.7.79-.52.04-1-.29-1.1-.76l-.34-1.6c-.12-.55.3-1.08.91-1.13,2.76-.23,5.55-.55,6.98-.65-1.56-.16-4.38.34-7.24.53-.52.04-.98-.29-1.08-.76Z"/>
    </g>
  </g>
</svg>