<?xml version="1.0" encoding="UTF-8"?>
<svg xmlns="http://www.w3.org/2000/svg" viewBox="0 0 192.38 107.76">
  <defs>
    <style>
      .cls-1 {
        fill: #3e464c;
      }

      .cls-1, .cls-2, .cls-3, .cls-4, .cls-5, .cls-6, .cls-7, .cls-8, .cls-9, .cls-10, .cls-11, .cls-12, .cls-13, .cls-14, .cls-15, .cls-16 {
        stroke-width: 0px;
      }

      .cls-2 {
        fill: #b2b2b2;
      }

      .cls-3 {
        fill: #352e35;
      }

      .cls-4 {
        fill: #d8d0e8;
      }

      .cls-4, .cls-9 {
        mix-blend-mode: soft-light;
      }

      .cls-17 {
        isolation: isolate;
      }

      .cls-5 {
        fill: #e0e0e0;
      }

      .cls-18 {
        stroke: #352e35;
        stroke-dasharray: 0 0 0 .96;
        stroke-width: .96px;
      }

      .cls-18, .cls-19, .cls-20, .cls-21, .cls-22, .cls-23 {
        fill: none;
      }

      .cls-18, .cls-19, .cls-21, .cls-22, .cls-23 {
        stroke-linecap: round;
        stroke-linejoin: round;
      }

      .cls-6 {
        fill: #f39200;
      }

      .cls-7 {
        fill: #dadada;
      }

      .cls-8 {
        fill: #5c5c5b;
      }

      .cls-19 {
        stroke-dasharray: 0 0 0 1.86;
      }

      .cls-19, .cls-22 {
        stroke: #929292;
        stroke-width: .64px;
      }

      .cls-9 {
        fill: #fff;
      }

      .cls-10 {
        fill: #8a8989;
      }

      .cls-20 {
        stroke-miterlimit: 10;
      }

      .cls-20, .cls-21 {
        stroke: #f39200;
        stroke-width: 3.52px;
      }

      .cls-11 {
        fill: #c6c6c6;
      }

      .cls-12 {
        fill: #ad3f2a;
      }

      .cls-13 {
        fill: #fcc000;
      }

      .cls-22 {
        stroke-dasharray: 0 0 0 1.86;
      }

      .cls-23 {
        stroke: #c6c6c6;
        stroke-width: .35px;
      }

      .cls-14 {
        fill: #b4b4b4;
      }

      .cls-15 {
        fill: #8e8e8d;
      }

      .cls-16 {
        fill: #ededed;
        mix-blend-mode: multiply;
      }
    </style>
  </defs>
  <g class="cls-17">
    <g id="Layer_2" data-name="Layer 2">
      <g id="Capa_1" data-name="Capa 1">
        <g>
          <path class="cls-11" d="m37.42,35.52c-8.39,0-16.09,2.97-22.11,7.91-2.12,1.74-4.03,3.73-5.69,5.92-.76,1-1.47,2.05-2.12,3.14-.85,1.42-1.6,2.91-2.25,4.46h0c-1.72,4.12-2.67,8.64-2.67,13.38,0,19.23,15.59,34.82,34.82,34.82,7.81,0,15.02-2.57,20.83-6.91,2.27-1.69,4.32-3.66,6.12-5.85.82-1,1.59-2.05,2.29-3.14h0c.93-1.43,1.75-2.93,2.46-4.49,2-4.4,3.12-9.28,3.12-14.43,0-19.23-15.59-34.82-34.82-34.82Z"/>
          <path class="cls-5" d="m64.36,92.4c-1.79,2.19-3.85,4.15-6.12,5.85l-21.03-28.42,27.14,22.58Z"/>
          <path class="cls-5" d="m69.12,84.77c-.71,1.56-1.53,3.06-2.46,4.49l-29.43-19.43,31.9,14.95Z"/>
          <path class="cls-5" d="m37.2,69.79l-27.57-20.43c1.66-2.19,3.57-4.18,5.69-5.92l21.88,26.35Z"/>
          <path class="cls-5" d="m37.2,69.79l-31.93-12.83h0c.64-1.55,1.39-3.04,2.25-4.46l29.69,17.29Z"/>
          <path class="cls-5" d="m65.32,50.55c1.62,2.32,2.95,4.83,3.97,7.47l-33.06,12.52,29.1-19.99Z"/>
          <path class="cls-5" d="m59.27,43.9c1.31,1.11,2.52,2.31,3.65,3.59l-26.69,23.05,23.05-26.64Z"/>
          <path class="cls-5" d="m36.18,70.55l-27.15,20.99c-1.66-2.19-3.06-4.57-4.16-7.08l31.3-13.9Z"/>
          <path class="cls-5" d="m36.18,70.55l-21.02,27.25h0c-1.31-1.04-2.54-2.17-3.68-3.37l24.7-23.87Z"/>
          <path class="cls-1" d="m37.42,32.92C16.75,32.92,0,49.67,0,70.34s16.75,37.42,37.42,37.42,37.42-16.75,37.42-37.42-16.75-37.42-37.42-37.42Zm0,71.54c-18.84,0-34.12-15.27-34.12-34.12s15.28-34.12,34.12-34.12,34.12,15.28,34.12,34.12-15.27,34.12-34.12,34.12Z"/>
          <path class="cls-13" d="m37.42,34.39C17.56,34.39,1.47,50.48,1.47,70.34s16.1,35.95,35.96,35.95,35.95-16.1,35.95-35.95-16.1-35.96-35.95-35.96Zm0,71.43c-19.59,0-35.47-15.88-35.47-35.47s15.88-35.47,35.47-35.47,35.47,15.88,35.47,35.47-15.88,35.47-35.47,35.47Z"/>
          <path class="cls-3" d="m62.95,6.75c.45.69,1.79,1.39,1.39,1.44-.4.05-1.86-.08-2.6-1.4-.4-.72.13-1.52.53-1.57.4-.05.11.64.68,1.54Z"/>
          <path class="cls-15" d="m94,68.73c5.46-7.8,7.75-10.61,8.33-10.2.59.41-3.1,6.15-6.72,11.33-1.58,2.25-3.21,3.82-3.66,3.51-.45-.31.47-2.39,2.04-4.64Z"/>
          <g>
            <path class="cls-10" d="m105.34,59.01c.05.7-.47,1.31-1.17,1.36l-6.18.48c-.7.05-1.31-.47-1.36-1.17h0c-.05-.7.47-1.31,1.17-1.36l6.18-.48c.7-.05,1.31.47,1.36,1.17h0Z"/>
            <path class="cls-8" d="m104.46,58.4c.01.18-.12.34-.3.36l-6.37.5c-.18.01-.34-.12-.36-.3h0c-.01-.18.12-.34.3-.36l6.37-.5c.18-.01.34.12.35.3h0Z"/>
            <path class="cls-8" d="m100.31,59.81c.01.18-.12.34-.3.35l-1.76.14c-.18.01-.34-.12-.35-.3h0c-.01-.18.12-.34.3-.35l1.75-.14c.18-.01.34.12.35.3h0Z"/>
            <path class="cls-8" d="m101.44,59.73c.02.24-.16.45-.4.47-.24.02-.45-.16-.47-.4-.02-.24.16-.45.4-.47.24-.02.45.16.47.4Z"/>
            <path class="cls-8" d="m104.11,59.52c.01.18-.12.34-.3.35l-1.75.14c-.18.01-.34-.12-.35-.3h0c-.01-.18.12-.34.3-.35l1.75-.14c.18-.01.34.12.35.3h0Z"/>
          </g>
          <line class="cls-21" x1="72.24" y1="23.06" x2="136.27" y2="16.95"/>
          <line class="cls-21" x1="92.94" y1="72.27" x2="136.59" y2="21.75"/>
          <rect class="cls-11" x="67.29" y="10.14" width="2.84" height="9.48" transform="translate(-.35 28.02) rotate(-22.99)"/>
          <path class="cls-3" d="m68.72,11.28l-2.63,1.11-1.64-3.87s-5.23.69-5.88-2.53c-.65-3.21,1.36-1.8,1.76,0,.56,2.55,3.76,2.1,4.85,1.67,1.09-.43,1.48-1.25,1.47-1.96-.01-.71,2.03-1.3,2.06-.14.03,1.16-1.66,1.79-1.66,1.79l1.66,3.91Z"/>
          <rect class="cls-14" x="65.32" y="9.9" width="3.93" height="3.41" transform="translate(.81 27.2) rotate(-22.99)"/>
          <rect class="cls-6" x="135.98" y="13.89" width="4.58" height="11.03" transform="translate(-1.26 24.56) rotate(-10.1)"/>
          <path class="cls-7" d="m140.44,6.54c.42-.02,12.9-.09,19.75-.13v-2.88c-6.96.08-21.15.17-21.92.17-3.61,0-4.27,2.24-3.91,4.75.22,1.59.88,4.81.88,4.81l3.49-.78s-.4-2.61-.5-3.36c-.13-1.06-.02-2.44,2.2-2.58Z"/>
          <path class="cls-12" d="m164.27,1.38c-.9.81-1.78,1.96-3.68,1.98-2.36.03-5.67.06-9.03.08v3.18c3.37-.02,6.84-.04,9.35-.06,2.1-.01,3.99-1.95,5.03-3.06,1.05-1.1-.78-2.94-1.67-2.13Z"/>
          <rect class="cls-16" x="136" y="14.11" width="2.05" height="11.02" transform="translate(-1.32 24.33) rotate(-10.1)"/>
          <rect class="cls-4" x="139.77" y="13.52" width=".53" height="11.03" transform="translate(-1.17 24.9) rotate(-10.12)"/>
          <rect class="cls-4" x="139.34" y="13.65" width=".26" height="11.02" transform="translate(-1.21 24.47) rotate(-9.99)"/>
          <rect class="cls-16" x="136.01" y="14.17" width="1.31" height="11.02" transform="translate(-1.33 24.34) rotate(-10.13)"/>
          <rect class="cls-14" x="134.65" y="12.45" width="5.42" height="4.27" transform="translate(-.43 24.33) rotate(-10.11)"/>
          <line class="cls-20" x1="92.94" y1="72.27" x2="70.03" y2="17.81"/>
          <g>
            <g>
              <line class="cls-23" x1="154.02" y1="67.41" x2="159.93" y2="36.73"/>
              <line class="cls-23" x1="156.77" y1="67.41" x2="150.85" y2="36.73"/>
            </g>
            <g>
              <line class="cls-23" x1="156.77" y1="73.03" x2="150.85" y2="103.7"/>
              <line class="cls-23" x1="154.02" y1="73.03" x2="159.93" y2="103.7"/>
            </g>
            <g>
              <line class="cls-23" x1="158.2" y1="68.84" x2="188.87" y2="74.76"/>
              <line class="cls-23" x1="158.2" y1="71.59" x2="188.87" y2="65.68"/>
            </g>
            <g>
              <line class="cls-23" x1="152.59" y1="71.59" x2="121.91" y2="65.68"/>
              <line class="cls-23" x1="152.59" y1="68.84" x2="121.91" y2="74.76"/>
            </g>
            <g>
              <line class="cls-23" x1="156.41" y1="67.26" x2="182.28" y2="49.75"/>
              <line class="cls-23" x1="158.35" y1="69.2" x2="175.86" y2="43.33"/>
            </g>
            <g>
              <line class="cls-23" x1="154.38" y1="73.17" x2="128.51" y2="90.68"/>
              <line class="cls-23" x1="152.44" y1="71.23" x2="134.93" y2="97.1"/>
            </g>
            <g>
              <line class="cls-23" x1="158.35" y1="71.23" x2="175.86" y2="97.1"/>
              <line class="cls-23" x1="156.41" y1="73.17" x2="182.28" y2="90.68"/>
            </g>
            <g>
              <line class="cls-23" x1="152.44" y1="69.2" x2="134.93" y2="43.33"/>
              <line class="cls-23" x1="154.38" y1="67.26" x2="128.51" y2="49.75"/>
            </g>
            <g>
              <line class="cls-23" x1="157.49" y1="67.9" x2="188.16" y2="61.96"/>
              <line class="cls-23" x1="158.51" y1="70.45" x2="184.77" y2="53.53"/>
            </g>
            <g>
              <line class="cls-23" x1="153.3" y1="72.54" x2="122.63" y2="78.48"/>
              <line class="cls-23" x1="152.28" y1="69.99" x2="126.01" y2="86.9"/>
            </g>
            <g>
              <line class="cls-23" x1="157.71" y1="72.31" x2="163.65" y2="102.98"/>
              <line class="cls-23" x1="155.16" y1="73.33" x2="172.08" y2="99.6"/>
            </g>
            <g>
              <line class="cls-23" x1="153.07" y1="68.12" x2="147.13" y2="37.45"/>
              <line class="cls-23" x1="155.62" y1="67.1" x2="138.71" y2="40.83"/>
            </g>
            <g>
              <line class="cls-23" x1="158.51" y1="70.02" x2="184.62" y2="87.17"/>
              <line class="cls-23" x1="157.46" y1="72.56" x2="188.08" y2="78.78"/>
            </g>
            <g>
              <line class="cls-23" x1="152.27" y1="70.42" x2="126.16" y2="53.26"/>
              <line class="cls-23" x1="153.32" y1="67.88" x2="122.71" y2="61.66"/>
            </g>
            <g>
              <line class="cls-23" x1="155.59" y1="73.34" x2="138.44" y2="99.45"/>
              <line class="cls-23" x1="153.05" y1="72.29" x2="146.83" y2="102.9"/>
            </g>
            <g>
              <line class="cls-23" x1="155.19" y1="67.1" x2="172.35" y2="40.99"/>
              <line class="cls-23" x1="157.73" y1="68.15" x2="163.95" y2="37.53"/>
            </g>
          </g>
          <path class="cls-1" d="m154.96,32.92c-20.67,0-37.42,16.75-37.42,37.42s16.75,37.42,37.42,37.42,37.42-16.75,37.42-37.42-16.75-37.42-37.42-37.42Zm0,71.54c-18.84,0-34.12-15.27-34.12-34.12s15.27-34.12,34.12-34.12,34.12,15.28,34.12,34.12-15.28,34.12-34.12,34.12Z"/>
          <path class="cls-11" d="m154.96,35.52c-19.23,0-34.82,15.59-34.82,34.82s15.59,34.82,34.82,34.82,34.82-15.59,34.82-34.82-15.59-34.82-34.82-34.82Zm0,67.77c-18.2,0-32.95-14.75-32.95-32.95s14.75-32.95,32.95-32.95,32.95,14.75,32.95,32.95-14.75,32.95-32.95,32.95Z"/>
          <path class="cls-13" d="m154.96,34.39c-19.86,0-35.96,16.1-35.96,35.96s16.1,35.95,35.96,35.95,35.96-16.1,35.96-35.95-16.1-35.96-35.96-35.96Zm0,71.43c-19.59,0-35.47-15.88-35.47-35.47s15.88-35.47,35.47-35.47,35.47,15.88,35.47,35.47-15.88,35.47-35.47,35.47Z"/>
          <g>
            <path class="cls-11" d="m92.94,60.83c-6.32,0-11.44,5.12-11.44,11.44s5.12,11.44,11.44,11.44,11.44-5.12,11.44-11.44-5.12-11.44-11.44-11.44Zm4.44,5.61c-1.04,1.56-2.88,3.94-4.44,3.94s-3.43-2.42-4.46-3.97c-.49-.74.08-1.88.56-2.12,1.18-.58,2.5-.9,3.9-.9s2.69.32,3.86.88c.5.24,1.09,1.41.58,2.17Zm-13.32,5.83c0-1.49.37-2.89,1.01-4.12.21-.4,1.29-.76,2.05-.18,1.56,1.19,3.93,3.17,3.93,4.29s-2.23,2.99-3.79,4.19c-.83.64-2.13.09-2.39-.46-.53-1.13-.82-2.4-.82-3.73Zm4.7,5.56c1.13-1.55,2.91-3.67,4.18-3.67,1.36,0,3.31,2.44,4.41,4,.52.73-.12,1.92-.66,2.16-1.14.53-2.41.83-3.76.83-1.14,0-2.24-.22-3.24-.61-.73-.28-1.59-1.82-.94-2.71Zm9.99-1.28c-1.56-1.21-3.93-3.21-3.93-4.28s2.59-3.25,4.13-4.43c.66-.5,1.66-.06,1.87.36.63,1.22.99,2.6.99,4.07,0,1.38-.31,2.68-.87,3.84-.24.5-1.43,1.03-2.19.44Z"/>
            <path class="cls-10" d="m94.57,72.27c0,.9-.73,1.62-1.62,1.62s-1.63-.73-1.63-1.62.73-1.63,1.63-1.63,1.62.73,1.62,1.63Z"/>
          </g>
          <path class="cls-6" d="m41.65,66.99s.81.02,2.22.04c1.41.05,3.43.13,5.84.22,1.21.04,2.52.12,3.9.19,1.38.08,2.84.16,4.35.25,3.02.17,6.23.41,9.45.64,3.21.24,6.42.52,9.44.77,1.5.16,2.96.28,4.33.44,1.37.17,2.68.32,3.87.5,4.79.66,7.96,1.46,7.96,1.46.42.11.68.53.57.95-.08.34-.38.57-.71.59,0,0-3.25.23-8.09.05-1.21-.03-2.52-.11-3.9-.18-1.38-.07-2.84-.21-4.34-.32-3.01-.28-6.22-.56-9.42-.89-3.21-.33-6.41-.66-9.41-1.01-1.5-.18-2.95-.35-4.33-.51-1.37-.18-2.68-.32-3.87-.49-2.4-.33-4.39-.61-5.79-.8-1.4-.22-2.19-.34-2.19-.34-.43-.07-.72-.46-.65-.89.06-.39.4-.67.79-.66Z"/>
          <path class="cls-6" d="m35.88,69.2s.67-.65,1.74-1.85c1.07-1.2,2.57-2.95,4.26-5.13.84-1.09,1.74-2.28,2.67-3.55.93-1.28,1.91-2.62,2.92-4.01,2.02-2.78,4.18-5.75,6.34-8.72,2.18-2.96,4.27-5.97,6.27-8.77,1.99-2.81,3.86-5.41,5.42-7.69,1.57-2.26,2.87-4.15,3.79-5.47.9-1.33,1.42-2.09,1.42-2.09.6-.88,1.79-1.11,2.67-.51.88.6,1.11,1.79.51,2.67-.03.04-.06.08-.09.12,0,0-.57.72-1.57,1.97-.99,1.26-2.4,3.07-4.1,5.24-1.71,2.16-3.64,4.73-5.73,7.46-2.08,2.74-4.34,5.64-6.52,8.59-2.19,2.94-4.39,5.88-6.44,8.64-1.03,1.38-2.02,2.71-2.96,3.98-.95,1.26-1.81,2.48-2.6,3.6-1.58,2.25-2.8,4.2-3.63,5.59-.83,1.38-1.25,2.21-1.25,2.21-.49.96-1.66,1.34-2.61.85-.96-.49-1.34-1.66-.85-2.61.1-.19.23-.37.37-.51Z"/>
          <path class="cls-6" d="m34.43,74.81c1.45.8,2.46-.95,1.19-1.8-.86-.58-1.42-1.56-1.42-2.67,0-1.78,1.44-3.22,3.22-3.22s3.14,1.37,3.22,3.08c0,2.05,2.16,2.09,2.16-.02-.09-2.89-2.46-5.22-5.37-5.22s-5.38,2.41-5.38,5.38c0,1.86.95,3.51,2.39,4.47Z"/>
          <path class="cls-6" d="m153.21,71.55s-.06-.18-.16-.51c-.11-.34-.28-.84-.5-1.43-.22-.61-.5-1.33-.84-2.15-.17-.41-.35-.84-.54-1.3-.2-.45-.42-.92-.64-1.42-.45-.98-.96-2.04-1.5-3.15-.55-1.11-1.1-2.29-1.67-3.52-.58-1.22-1.11-2.52-1.7-3.81-.56-1.31-1.13-2.64-1.67-3.98-.51-1.35-1.08-2.69-1.56-4.03-.48-1.35-1-2.65-1.39-3.96-.42-1.3-.88-2.54-1.2-3.75-.33-1.21-.72-2.34-.98-3.41-.27-1.07-.52-2.05-.73-2.93-.21-.88-.32-1.66-.47-2.29-.27-1.28-.42-2.01-.42-2.01-.3-1.44.62-2.84,2.06-3.14,1.43-.3,2.84.62,3.14,2.06.02.12.04.24.05.35v.16s.05.69.13,1.88c.05.6.09,1.33.19,2.17.12.84.25,1.78.39,2.81.13,1.03.38,2.14.61,3.32.21,1.18.55,2.41.86,3.69.31,1.28.73,2.58,1.11,3.91.37,1.33.87,2.66,1.31,3.99.47,1.33.98,2.65,1.47,3.95.53,1.29,1.04,2.56,1.58,3.77.53,1.21,1.05,2.39,1.57,3.49.5,1.11,1.04,2.12,1.54,3.06.51.93,1.03,1.76,1.5,2.48.49.71.92,1.33,1.31,1.82.38.5.7.86.92,1.1.23.24.36.37.36.37h0c.94.99.9,2.55-.09,3.49-.99.94-2.55.9-3.48-.09-.27-.28-.46-.62-.57-.97Z"/>
          <path class="cls-6" d="m152.29,74.81c1.45.8,2.46-.95,1.19-1.8-.86-.58-1.42-1.56-1.42-2.67,0-1.78,1.44-3.22,3.22-3.22s3.14,1.37,3.22,3.08c0,2.05,2.16,2.09,2.16-.02-.09-2.89-2.46-5.22-5.37-5.22s-5.38,2.41-5.38,5.38c0,1.86.95,3.51,2.39,4.47Z"/>
          <circle class="cls-2" cx="155.28" cy="70.34" r="3.73"/>
          <path class="cls-10" d="m157.06,70.34c0,.98-.8,1.78-1.78,1.78s-1.78-.8-1.78-1.78.8-1.78,1.78-1.78,1.78.8,1.78,1.78Z"/>
          <path class="cls-22" d="m157.94,70.34c0,1.47-1.19,2.66-2.66,2.66s-2.66-1.19-2.66-2.66,1.19-2.66,2.66-2.66,2.66,1.19,2.66,2.66Z"/>
          <path class="cls-3" d="m73.27,3.12c-9.37,0-18.03-4.97-20.88-2.37-1.22,1.11,2.35,5.25,5.25,5.25h15.16c2.08,0,2.56-2.88.47-2.88Z"/>
          <rect class="cls-14" x="136.44" y="21.73" width="5.42" height="4.27" transform="translate(-2.03 24.8) rotate(-10.11)"/>
          <rect class="cls-16" x="134.67" y="12.66" width="3.1" height="4.27" transform="translate(-.48 24.11) rotate(-10.1)"/>
          <rect class="cls-16" x="134.68" y="12.79" width="1.55" height="4.27" transform="translate(-.52 23.97) rotate(-10.1)"/>
          <rect class="cls-16" x="136.47" y="21.96" width="2.76" height="4.27" transform="translate(-2.09 24.56) rotate(-10.1)"/>
          <rect class="cls-9" x="140.91" y="21.36" width=".64" height="4.27" transform="translate(-1.93 25.13) rotate(-10.1)"/>
          <rect class="cls-9" x="140.46" y="21.47" width=".29" height="4.27" transform="translate(-1.96 25.28) rotate(-10.2)"/>
          <rect class="cls-16" x="136.48" y="22.09" width="1.24" height="4.27" transform="translate(-2.12 24.46) rotate(-10.12)"/>
          <rect class="cls-9" x="139.06" y="12.09" width=".64" height="4.27" transform="translate(-.33 24.77) rotate(-10.14)"/>
          <rect class="cls-9" x="138.62" y="12.2" width=".29" height="4.27" transform="translate(-.36 24.56) rotate(-10.1)"/>
          <path class="cls-18" d="m92.83,60.7c-6.03,0-53.21,5.01-55.22,5.01-2.56,0-4.63,2.07-4.63,4.63s2.07,4.63,4.63,4.63c2.02,0,49.41,9.08,55.22,9.08,6.45,0,11.68-5.23,11.68-11.68s-5.23-11.68-11.68-11.68Z"/>
          <circle class="cls-2" cx="37.42" cy="70.34" r="3.73"/>
          <path class="cls-10" d="m39.2,70.34c0,.98-.8,1.78-1.78,1.78s-1.78-.8-1.78-1.78.8-1.78,1.78-1.78,1.78.8,1.78,1.78Z"/>
          <path class="cls-19" d="m40.09,70.34c0,1.47-1.19,2.66-2.66,2.66s-2.66-1.19-2.66-2.66,1.19-2.66,2.66-2.66,2.66,1.19,2.66,2.66Z"/>
          <path class="cls-15" d="m90.77,76.64c-5.22,7.96-7.42,10.84-8.02,10.44-.6-.39,2.91-6.24,6.38-11.52,1.51-2.3,3.1-3.92,3.55-3.62.46.3-.4,2.4-1.9,4.7Z"/>
          <g>
            <path class="cls-10" d="m87.6,86.17c.03.7-.51,1.29-1.21,1.32l-6.2.28c-.7.03-1.29-.51-1.33-1.21h0c-.03-.7.51-1.29,1.21-1.32l6.2-.28c.7-.03,1.29.51,1.32,1.21h0Z"/>
            <path class="cls-8" d="m86.73,85.64c0,.18-.13.34-.32.35l-6.39.29c-.18,0-.34-.13-.35-.31h0c0-.18.13-.34.32-.35l6.39-.29c.18,0,.34.13.34.32h0Z"/>
            <path class="cls-8" d="m82.54,86.81c0,.18-.13.34-.32.34l-1.76.08c-.18,0-.34-.13-.35-.31h0c0-.18.13-.34.32-.35l1.76-.08c.18,0,.34.13.35.32h0Z"/>
            <path class="cls-8" d="m83.67,86.76c.01.24-.18.44-.42.46-.24,0-.44-.18-.45-.42-.01-.24.18-.44.42-.46.24-.01.44.18.46.42Z"/>
            <path class="cls-8" d="m86.35,86.64c0,.18-.13.34-.31.34l-1.76.08c-.18,0-.34-.13-.35-.31h0c0-.18.13-.34.32-.34l1.76-.08c.18,0,.34.13.34.32h0Z"/>
          </g>
        </g>
      </g>
    </g>
  </g>
</svg>