<?xml version="1.0" encoding="UTF-8"?>
<svg xmlns="http://www.w3.org/2000/svg" viewBox="0 0 158.51 112.43">
  <defs>
    <style>
      .cls-1 {
        stroke-dasharray: 0 0 0 1.86;
      }

      .cls-1, .cls-2, .cls-3, .cls-4, .cls-5, .cls-6 {
        fill: none;
      }

      .cls-1, .cls-3, .cls-4, .cls-5, .cls-6 {
        stroke-linecap: round;
        stroke-linejoin: round;
      }

      .cls-1, .cls-5 {
        stroke: #929292;
        stroke-width: .64px;
      }

      .cls-7 {
        fill: #3e464c;
      }

      .cls-7, .cls-8, .cls-9, .cls-10, .cls-11, .cls-12, .cls-13, .cls-14, .cls-15, .cls-16, .cls-17, .cls-18, .cls-19, .cls-20, .cls-21, .cls-22, .cls-23 {
        stroke-width: 0px;
      }

      .cls-8 {
        fill: #b2b2b2;
      }

      .cls-2 {
        stroke-miterlimit: 10;
        stroke-width: 4.8px;
      }

      .cls-2, .cls-3 {
        stroke: #7c5da4;
      }

      .cls-9 {
        fill: #d8d0e8;
      }

      .cls-9, .cls-14 {
        mix-blend-mode: soft-light;
      }

      .cls-3 {
        stroke-width: 4.48px;
      }

      .cls-24 {
        isolation: isolate;
      }

      .cls-10 {
        fill: #353c41;
      }

      .cls-4 {
        stroke: #c6c6c6;
        stroke-width: .32px;
      }

      .cls-11 {
        fill: #4f3030;
      }

      .cls-12 {
        fill: #dadada;
      }

      .cls-13 {
        fill: #5c5c5b;
      }

      .cls-14 {
        fill: #fff;
      }

      .cls-15 {
        fill: #583636;
      }

      .cls-16 {
        fill: #8a8989;
      }

      .cls-17 {
        fill: #c6c6c6;
      }

      .cls-5 {
        stroke-dasharray: 0 0 0 1.86;
      }

      .cls-18 {
        fill: #7c5da4;
      }

      .cls-19 {
        fill: #b4b4b4;
      }

      .cls-20 {
        fill: #462a29;
      }

      .cls-6 {
        stroke: #7e7e7d;
        stroke-dasharray: 0 0 0 .96;
        stroke-width: .96px;
      }

      .cls-21 {
        fill: #8e8e8d;
      }

      .cls-22 {
        fill: #ededed;
        mix-blend-mode: multiply;
      }

      .cls-23 {
        fill: #b7b6b6;
      }
    </style>
  </defs>
  <g class="cls-24">
    <g id="Layer_2" data-name="Layer 2">
      <g id="Capa_1" data-name="Capa 1">
        <g>
          <path class="cls-18" d="m31.7,79.67s.69-.05,1.9-.13c1.21-.07,2.93-.15,5-.21,1.04-.04,2.16-.05,3.34-.07,1.19-.03,2.43-.04,3.73-.03,1.29,0,2.63-.02,3.98.01,1.36.02,2.73.05,4.11.07,1.38.01,2.75.08,4.11.12,1.35.05,2.69.1,3.98.14,2.58.12,4.98.34,7.04.62,1.03.14,1.97.3,2.8.45.83.14,1.56.32,2.15.44,1.19.28,1.87.5,1.87.5.61.2.94.85.75,1.46-.13.4-.46.69-.85.77,0,0-.7.16-1.91.34-.61.08-1.34.18-2.19.25-.84.08-1.79.16-2.83.21-2.07.1-4.48.11-7.06,0-1.29-.07-2.62-.14-3.97-.21-1.35-.08-2.73-.13-4.1-.24-1.37-.1-2.75-.19-4.1-.29-1.35-.09-2.68-.23-3.97-.33-1.29-.11-2.53-.22-3.71-.35-1.18-.13-2.29-.23-3.32-.36-2.06-.24-3.77-.47-4.97-.65-1.2-.19-1.88-.3-1.88-.3-.61-.1-1.03-.67-.94-1.29.08-.53.52-.91,1.03-.95Z"/>
          <path class="cls-18" d="m30.32,78.79s1.31-.64,3.52-1.89c1.11-.61,2.44-1.39,3.95-2.29,1.52-.9,3.21-1.94,5.04-3.11,1.83-1.17,3.8-2.44,5.86-3.83,2.06-1.38,4.24-2.84,6.48-4.35,4.5-3.02,9.3-6.24,14.09-9.46,4.81-3.2,9.55-6.51,14.03-9.56,4.47-3.07,8.65-5.9,12.2-8.4,3.55-2.48,6.51-4.55,8.59-6,2.06-1.46,3.24-2.3,3.24-2.3,1.08-.77,2.58-.51,3.34.57.77,1.08.51,2.58-.57,3.34-.04.03-.08.06-.12.08,0,0-1.23.76-3.38,2.1-2.14,1.35-5.19,3.28-8.86,5.59-3.68,2.3-7.91,5.06-12.47,8-4.55,2.95-9.43,6.04-14.24,9.24-4.83,3.18-9.66,6.35-14.18,9.33-2.26,1.49-4.45,2.93-6.52,4.29-2.08,1.36-4.01,2.69-5.8,3.92-1.78,1.24-3.4,2.4-4.81,3.44-1.42,1.05-2.65,1.97-3.64,2.76-2,1.56-3.1,2.51-3.1,2.51-1.01.88-2.53.77-3.41-.23-.88-1.01-.77-2.53.23-3.41.16-.14.34-.26.52-.35Z"/>
          <path class="cls-23" d="m109.44,24.92l-1.97.38s-.56-2.99-.86-4.85c-.3-1.85-.57-3.4,1.48-4.32,1.21-.55,2.59-1.04,4.38-1.84,1.22-.55,2.05-1.86,1.95-2.97-.1-1.11-.34-3.12-.45-4.07-.11-.95-.76-1.89-2.73-1.52-1.97.36-9.06,1.67-9.06,1.67l-1.35-2.83s7.13-1.3,10.27-2.07c3.14-.78,5.65.77,5.65,2.98s.46,4.78.67,7.45c.21,2.66-.65,3.31-2.32,4.09-2.14.99-6.53,2.97-6.53,2.97l.88,4.94Z"/>
          <rect class="cls-20" x="98.34" y="3.77" width="10.46" height="3.81" transform="translate(1.04 21.41) rotate(-11.86)"/>
          <rect class="cls-15" x="107.47" y="2.49" width="1.23" height="4.48" transform="translate(1.33 22.3) rotate(-11.85)"/>
          <path class="cls-21" d="m76.72,79.18c5.45-7.8,7.75-10.61,8.33-10.2.59.41-3.1,6.15-6.72,11.33-1.57,2.25-3.21,3.82-3.66,3.51-.45-.31.47-2.39,2.04-4.64Z"/>
          <g>
            <path class="cls-16" d="m88.06,69.46c.05.7-.47,1.31-1.17,1.36l-6.18.48c-.7.05-1.31-.47-1.36-1.17h0c-.05-.7.47-1.31,1.17-1.36l6.18-.48c.7-.05,1.31.47,1.36,1.17h0Z"/>
            <path class="cls-13" d="m87.17,68.84c.01.18-.12.34-.3.36l-6.37.5c-.18.01-.34-.12-.35-.3h0c-.01-.18.12-.34.3-.36l6.37-.5c.18-.01.34.12.35.3h0Z"/>
            <path class="cls-13" d="m83.03,70.26c.01.18-.12.34-.3.35l-1.76.14c-.18.01-.34-.12-.35-.3h0c-.01-.18.12-.34.3-.35l1.75-.14c.18-.01.34.12.35.3h0Z"/>
            <path class="cls-13" d="m84.15,70.17c.02.24-.16.45-.4.47-.24.02-.45-.16-.47-.4-.02-.24.16-.45.4-.47.24-.02.45.16.47.4Z"/>
            <path class="cls-13" d="m86.82,69.96c.01.18-.12.34-.3.35l-1.76.14c-.18.01-.34-.12-.35-.3h0c-.01-.18.12-.34.3-.36l1.75-.14c.18-.01.34.12.36.3h0Z"/>
          </g>
          <line class="cls-3" x1="75.66" y1="82.71" x2="110.79" y2="35.49"/>
          <g>
            <g>
              <line class="cls-4" x1="30.8" y1="78.12" x2="36.17" y2="50.24"/>
              <line class="cls-4" x1="33.29" y1="78.12" x2="27.92" y2="50.24"/>
            </g>
            <g>
              <line class="cls-4" x1="33.29" y1="83.22" x2="27.92" y2="111.11"/>
              <line class="cls-4" x1="30.8" y1="83.22" x2="36.17" y2="111.11"/>
            </g>
            <g>
              <line class="cls-4" x1="34.6" y1="79.43" x2="62.48" y2="84.8"/>
              <line class="cls-4" x1="34.6" y1="81.92" x2="62.48" y2="76.55"/>
            </g>
            <g>
              <line class="cls-4" x1="29.49" y1="81.92" x2="1.61" y2="76.55"/>
              <line class="cls-4" x1="29.49" y1="79.43" x2="1.61" y2="84.8"/>
            </g>
            <g>
              <line class="cls-4" x1="32.97" y1="77.99" x2="56.48" y2="62.07"/>
              <line class="cls-4" x1="34.73" y1="79.75" x2="50.65" y2="56.24"/>
            </g>
            <g>
              <line class="cls-4" x1="31.12" y1="83.36" x2="7.61" y2="99.28"/>
              <line class="cls-4" x1="29.36" y1="81.6" x2="13.44" y2="105.11"/>
            </g>
            <g>
              <line class="cls-4" x1="34.73" y1="81.6" x2="50.65" y2="105.11"/>
              <line class="cls-4" x1="32.97" y1="83.36" x2="56.48" y2="99.28"/>
            </g>
            <g>
              <line class="cls-4" x1="29.36" y1="79.75" x2="13.44" y2="56.24"/>
              <line class="cls-4" x1="31.12" y1="77.99" x2="7.61" y2="62.07"/>
            </g>
            <g>
              <line class="cls-4" x1="33.95" y1="78.57" x2="61.82" y2="73.17"/>
              <line class="cls-4" x1="34.88" y1="80.88" x2="58.75" y2="65.51"/>
            </g>
            <g>
              <line class="cls-4" x1="30.14" y1="82.78" x2="2.27" y2="88.18"/>
              <line class="cls-4" x1="29.21" y1="80.47" x2="5.34" y2="95.84"/>
            </g>
            <g>
              <line class="cls-4" x1="34.15" y1="82.58" x2="39.55" y2="110.45"/>
              <line class="cls-4" x1="31.84" y1="83.51" x2="47.21" y2="107.38"/>
            </g>
            <g>
              <line class="cls-4" x1="29.94" y1="78.77" x2="24.54" y2="50.9"/>
              <line class="cls-4" x1="32.25" y1="77.84" x2="16.88" y2="53.97"/>
            </g>
            <g>
              <line class="cls-4" x1="34.88" y1="80.49" x2="58.61" y2="96.08"/>
              <line class="cls-4" x1="33.93" y1="82.8" x2="61.75" y2="88.45"/>
            </g>
            <g>
              <line class="cls-4" x1="29.21" y1="80.86" x2="5.48" y2="65.26"/>
              <line class="cls-4" x1="30.16" y1="78.55" x2="2.34" y2="72.89"/>
            </g>
            <g>
              <line class="cls-4" x1="32.23" y1="83.51" x2="16.63" y2="107.24"/>
              <line class="cls-4" x1="29.92" y1="82.56" x2="24.26" y2="110.38"/>
            </g>
            <g>
              <line class="cls-4" x1="31.86" y1="77.84" x2="47.45" y2="54.11"/>
              <line class="cls-4" x1="34.17" y1="78.79" x2="39.83" y2="50.97"/>
            </g>
          </g>
          <rect class="cls-17" x="60.25" y="46.12" width="3.38" height="8.84" transform="translate(-14.82 28.2) rotate(-22.99)"/>
          <path class="cls-17" d="m62.29,47.48l-2.7,1.15-1.69-3.98-5.41-2.38,3.66-.25s1.11,1.74,2.5,1.51c1.38-.23,1.52-1.78,1.52-1.78l2.12-.14-1.71,1.85,1.71,4.03Z"/>
          <rect class="cls-19" x="58.26" y="45.91" width="4.67" height="3.18" transform="translate(-13.73 27.43) rotate(-22.98)"/>
          <rect class="cls-18" x="108.29" y="24.36" width="5.3" height="11.02" transform="translate(-3.52 19.93) rotate(-10.11)"/>
          <path class="cls-12" d="m112.72,25.28l-3.63.65s-.63-3.35-.96-5.41c-.33-2.07-.41-3.33,1.88-4.36,1.36-.61,4.09-1.84,6.09-2.74,1.37-.62,2.29-2.08,2.18-3.32-.12-1.24-.38-3.48-.51-4.55-.13-1.06-.85-2.11-3.04-1.7-2.2.41-10.12,1.87-10.12,1.87l-1.51-3.16s7.97-1.45,11.47-2.31c3.51-.87,6.31.86,6.31,3.33s.51,5.34.75,8.32-.73,3.7-2.6,4.57c-2.39,1.11-7.29,3.32-7.29,3.32l.98,5.51Z"/>
          <rect class="cls-22" x="108.32" y="24.61" width="2.37" height="11.02" transform="translate(-3.59 19.69) rotate(-10.11)"/>
          <rect class="cls-9" x="112.68" y="23.94" width=".61" height="11.03" transform="translate(-3.42 20.3) rotate(-10.12)"/>
          <rect class="cls-9" x="112.18" y="24.09" width=".31" height="11.03" transform="translate(-3.45 20.17) rotate(-10.11)"/>
          <rect class="cls-22" x="108.32" y="24.69" width="1.51" height="11.03" transform="translate(-3.61 19.6) rotate(-10.1)"/>
          <rect class="cls-19" x="106.89" y="22.92" width="6.27" height="4.27" transform="translate(-2.69 19.69) rotate(-10.11)"/>
          <line class="cls-2" x1="75.66" y1="82.71" x2="61.82" y2="50.24"/>
          <path class="cls-7" d="m31.65,49.14C14.17,49.14,0,63.31,0,80.79s14.17,31.65,31.65,31.65,31.65-14.17,31.65-31.65-14.17-31.65-31.65-31.65Zm0,59.3c-15.27,0-27.66-12.38-27.66-27.66s12.38-27.66,27.66-27.66,27.66,12.38,27.66,27.66-12.38,27.66-27.66,27.66Z"/>
          <path class="cls-17" d="m31.65,52.56c-15.59,0-28.23,12.64-28.23,28.23s12.64,28.23,28.23,28.23,28.23-12.64,28.23-28.23-12.64-28.23-28.23-28.23Zm0,53.47c-13.94,0-25.24-11.3-25.24-25.24s11.3-25.24,25.24-25.24,25.24,11.3,25.24,25.24-11.3,25.24-25.24,25.24Z"/>
          <g>
            <g>
              <line class="cls-4" x1="126.01" y1="78.12" x2="131.38" y2="50.24"/>
              <line class="cls-4" x1="128.5" y1="78.12" x2="123.13" y2="50.24"/>
            </g>
            <g>
              <line class="cls-4" x1="128.5" y1="83.22" x2="123.13" y2="111.11"/>
              <line class="cls-4" x1="126.01" y1="83.22" x2="131.38" y2="111.11"/>
            </g>
            <g>
              <line class="cls-4" x1="129.81" y1="79.43" x2="157.69" y2="84.8"/>
              <line class="cls-4" x1="129.81" y1="81.92" x2="157.69" y2="76.55"/>
            </g>
            <g>
              <line class="cls-4" x1="124.7" y1="81.92" x2="96.82" y2="76.55"/>
              <line class="cls-4" x1="124.7" y1="79.43" x2="96.82" y2="84.8"/>
            </g>
            <g>
              <line class="cls-4" x1="128.18" y1="77.99" x2="151.69" y2="62.07"/>
              <line class="cls-4" x1="129.94" y1="79.75" x2="145.86" y2="56.24"/>
            </g>
            <g>
              <line class="cls-4" x1="126.33" y1="83.36" x2="102.82" y2="99.28"/>
              <line class="cls-4" x1="124.57" y1="81.6" x2="108.65" y2="105.11"/>
            </g>
            <g>
              <line class="cls-4" x1="129.94" y1="81.6" x2="145.86" y2="105.11"/>
              <line class="cls-4" x1="128.18" y1="83.36" x2="151.69" y2="99.28"/>
            </g>
            <g>
              <line class="cls-4" x1="124.57" y1="79.75" x2="108.65" y2="56.24"/>
              <line class="cls-4" x1="126.33" y1="77.99" x2="102.82" y2="62.07"/>
            </g>
            <g>
              <line class="cls-4" x1="129.16" y1="78.57" x2="157.03" y2="73.17"/>
              <line class="cls-4" x1="130.09" y1="80.88" x2="153.96" y2="65.51"/>
            </g>
            <g>
              <line class="cls-4" x1="125.35" y1="82.78" x2="97.48" y2="88.18"/>
              <line class="cls-4" x1="124.42" y1="80.47" x2="100.55" y2="95.84"/>
            </g>
            <g>
              <line class="cls-4" x1="129.36" y1="82.58" x2="134.76" y2="110.45"/>
              <line class="cls-4" x1="127.05" y1="83.51" x2="142.42" y2="107.38"/>
            </g>
            <g>
              <line class="cls-4" x1="125.15" y1="78.77" x2="119.75" y2="50.9"/>
              <line class="cls-4" x1="127.46" y1="77.84" x2="112.09" y2="53.97"/>
            </g>
            <g>
              <line class="cls-4" x1="130.09" y1="80.49" x2="153.82" y2="96.08"/>
              <line class="cls-4" x1="129.14" y1="82.8" x2="156.96" y2="88.45"/>
            </g>
            <g>
              <line class="cls-4" x1="124.42" y1="80.86" x2="100.69" y2="65.26"/>
              <line class="cls-4" x1="125.37" y1="78.55" x2="97.55" y2="72.89"/>
            </g>
            <g>
              <line class="cls-4" x1="127.44" y1="83.51" x2="111.85" y2="107.24"/>
              <line class="cls-4" x1="125.13" y1="82.56" x2="119.47" y2="110.38"/>
            </g>
            <g>
              <line class="cls-4" x1="127.07" y1="77.84" x2="142.66" y2="54.11"/>
              <line class="cls-4" x1="129.38" y1="78.79" x2="135.04" y2="50.97"/>
            </g>
          </g>
          <path class="cls-7" d="m126.86,49.14c-17.48,0-31.65,14.17-31.65,31.65s14.17,31.65,31.65,31.65,31.65-14.17,31.65-31.65-14.17-31.65-31.65-31.65Zm0,59.3c-15.27,0-27.66-12.38-27.66-27.66s12.38-27.66,27.66-27.66,27.66,12.38,27.66,27.66-12.38,27.66-27.66,27.66Z"/>
          <path class="cls-17" d="m126.86,52.56c-15.59,0-28.23,12.64-28.23,28.23s12.64,28.23,28.23,28.23,28.23-12.64,28.23-28.23-12.64-28.23-28.23-28.23Zm0,53.47c-13.94,0-25.24-11.3-25.24-25.24s11.3-25.24,25.24-25.24,25.24,11.3,25.24,25.24-11.3,25.24-25.24,25.24Z"/>
          <g>
            <path class="cls-17" d="m76.62,71.28c-6.32,0-11.43,5.12-11.43,11.44s5.12,11.43,11.43,11.43,11.44-5.12,11.44-11.43-5.12-11.44-11.44-11.44Zm4.44,5.61c-1.04,1.56-2.88,3.94-4.44,3.94s-3.43-2.42-4.46-3.97c-.49-.74.08-1.88.56-2.12,1.18-.58,2.5-.9,3.9-.9s2.69.32,3.86.88c.49.24,1.09,1.41.58,2.17Zm-13.32,5.83c0-1.49.37-2.89,1.01-4.12.21-.4,1.29-.76,2.05-.18,1.56,1.19,3.93,3.17,3.93,4.3s-2.23,2.99-3.79,4.19c-.83.64-2.13.08-2.38-.46-.53-1.13-.82-2.4-.82-3.73Zm4.7,5.56c1.13-1.55,2.91-3.67,4.18-3.67,1.36,0,3.31,2.44,4.41,4,.52.73-.12,1.91-.66,2.16-1.14.53-2.41.83-3.76.83-1.14,0-2.24-.22-3.24-.61-.72-.28-1.59-1.82-.94-2.71Zm9.99-1.28c-1.56-1.21-3.93-3.21-3.93-4.28s2.59-3.25,4.13-4.43c.66-.5,1.66-.05,1.87.36.63,1.22.99,2.6.99,4.07,0,1.38-.31,2.68-.87,3.84-.24.5-1.43,1.03-2.19.44Z"/>
            <path class="cls-16" d="m78.24,82.71c0,.9-.73,1.62-1.63,1.62s-1.62-.73-1.62-1.62.73-1.63,1.62-1.63,1.63.73,1.63,1.63Z"/>
          </g>
          <path class="cls-18" d="m28.65,85.26c1.45.8,2.46-.96,1.19-1.8-.86-.58-1.42-1.56-1.42-2.67,0-1.78,1.44-3.22,3.22-3.22s3.14,1.37,3.22,3.08c0,2.05,2.16,2.09,2.16-.02-.09-2.89-2.46-5.22-5.37-5.22s-5.38,2.41-5.38,5.38c0,1.86.95,3.51,2.39,4.47Z"/>
          <path class="cls-18" d="m126.02,82s-.06-.18-.16-.51c-.11-.34-.28-.83-.5-1.43-.22-.61-.5-1.33-.84-2.15-.17-.41-.35-.84-.54-1.3-.2-.45-.41-.92-.64-1.42-.45-.98-.96-2.04-1.5-3.15-.55-1.11-1.1-2.29-1.67-3.52-.58-1.22-1.11-2.52-1.7-3.81-.56-1.31-1.13-2.64-1.67-3.98-.51-1.35-1.08-2.69-1.56-4.03-.48-1.34-1-2.65-1.39-3.96-.42-1.3-.88-2.54-1.2-3.75-.33-1.21-.72-2.34-.98-3.41-.27-1.07-.52-2.05-.73-2.93-.21-.88-.32-1.66-.47-2.29-.27-1.28-.42-2.01-.42-2.01-.3-1.43.62-2.84,2.06-3.14,1.43-.3,2.84.62,3.14,2.06.02.12.04.24.05.35v.16s.05.69.13,1.88c.04.6.09,1.33.19,2.17.12.84.25,1.78.39,2.81.13,1.03.38,2.14.61,3.32.21,1.18.55,2.41.86,3.69.3,1.28.73,2.58,1.11,3.91.37,1.33.87,2.66,1.31,3.99.47,1.33.98,2.65,1.47,3.95.53,1.29,1.04,2.56,1.58,3.77.53,1.21,1.05,2.39,1.57,3.49.5,1.11,1.04,2.13,1.54,3.06.51.93,1.03,1.76,1.5,2.48.49.71.92,1.33,1.31,1.82.38.5.7.86.92,1.1.23.24.36.37.36.37h0c.94.99.9,2.55-.09,3.49-.99.94-2.55.9-3.48-.09-.27-.28-.46-.62-.57-.97Z"/>
          <path class="cls-18" d="m125.09,85.26c1.45.8,2.46-.96,1.19-1.8-.86-.58-1.42-1.56-1.42-2.67,0-1.78,1.44-3.22,3.22-3.22s3.14,1.37,3.22,3.08c0,2.05,2.16,2.09,2.16-.02-.09-2.89-2.46-5.22-5.37-5.22s-5.38,2.41-5.38,5.38c0,1.86.95,3.51,2.39,4.47Z"/>
          <path class="cls-8" d="m131.81,80.79c0,2.06-1.67,3.73-3.73,3.73s-3.73-1.67-3.73-3.73,1.67-3.73,3.73-3.73,3.73,1.67,3.73,3.73Z"/>
          <path class="cls-16" d="m129.86,80.79c0,.98-.8,1.78-1.78,1.78s-1.78-.79-1.78-1.78.8-1.78,1.78-1.78,1.78.8,1.78,1.78Z"/>
          <path class="cls-1" d="m130.75,80.79c0,1.47-1.19,2.66-2.66,2.66s-2.66-1.19-2.66-2.66,1.19-2.66,2.66-2.66,2.66,1.19,2.66,2.66Z"/>
          <path class="cls-10" d="m67.96,37.38c-10.37,2.13-22.17-1.98-23.64,2.11-1.02,2.85,3.79,5.27,7,4.61,2.26-.46,15.46-3.17,16.77-3.44,2.3-.47,2.17-3.76-.13-3.29Z"/>
          <rect class="cls-19" x="108.7" y="32.19" width="6.27" height="4.27" transform="translate(-4.29 20.16) rotate(-10.11)"/>
          <rect class="cls-22" x="106.91" y="23.16" width="3.59" height="4.27" transform="translate(-2.75 19.48) rotate(-10.11)"/>
          <rect class="cls-22" x="106.92" y="23.32" width="1.79" height="4.27" transform="translate(-2.79 19.34) rotate(-10.12)"/>
          <rect class="cls-22" x="108.73" y="32.46" width="3.19" height="4.27" transform="translate(-4.36 19.89) rotate(-10.1)"/>
          <rect class="cls-14" x="113.88" y="31.76" width=".74" height="4.27" transform="translate(-4.18 20.57) rotate(-10.1)"/>
          <rect class="cls-14" x="113.36" y="31.89" width=".33" height="4.27" transform="translate(-4.21 20.41) rotate(-10.09)"/>
          <rect class="cls-22" x="108.75" y="32.62" width="1.44" height="4.27" transform="translate(-4.4 19.75) rotate(-10.11)"/>
          <rect class="cls-14" x="112" y="22.51" width=".74" height="4.27" transform="translate(-2.58 20.07) rotate(-10.09)"/>
          <rect class="cls-14" x="111.48" y="22.64" width=".33" height="4.27" transform="translate(-2.62 19.99) rotate(-10.11)"/>
          <rect class="cls-11" x="100.33" y="1.66" width="11.68" height="4.26" transform="translate(1.49 21.9) rotate(-11.86)"/>
          <rect class="cls-15" x="110.53" y=".23" width="1.37" height="5" transform="translate(1.82 22.94) rotate(-11.87)"/>
          <path class="cls-6" d="m76.19,71.15c-6.03,0-42.34,5.01-44.35,5.01-2.56,0-4.63,2.07-4.63,4.63s2.07,4.63,4.63,4.63c2.01,0,38.54,9.08,44.35,9.08,6.45,0,11.68-5.23,11.68-11.68s-5.23-11.68-11.68-11.68Z"/>
          <path class="cls-8" d="m35.38,80.79c0,2.06-1.67,3.73-3.73,3.73s-3.73-1.67-3.73-3.73,1.67-3.73,3.73-3.73,3.73,1.67,3.73,3.73Z"/>
          <path class="cls-16" d="m33.43,80.79c0,.98-.8,1.78-1.78,1.78s-1.78-.79-1.78-1.78.8-1.78,1.78-1.78,1.78.8,1.78,1.78Z"/>
          <path class="cls-5" d="m34.31,80.79c0,1.47-1.19,2.66-2.66,2.66s-2.66-1.19-2.66-2.66,1.19-2.66,2.66-2.66,2.66,1.19,2.66,2.66Z"/>
          <path class="cls-21" d="m74.45,87.09c-5.22,7.96-7.42,10.84-8.02,10.44-.6-.39,2.91-6.24,6.38-11.52,1.51-2.3,3.1-3.92,3.55-3.62.45.3-.4,2.4-1.9,4.7Z"/>
          <g>
            <path class="cls-16" d="m71.27,96.62c.03.7-.51,1.29-1.21,1.32l-6.2.28c-.7.03-1.29-.51-1.32-1.21h0c-.03-.7.51-1.29,1.21-1.33l6.2-.28c.7-.03,1.29.51,1.32,1.21h0Z"/>
            <path class="cls-13" d="m70.41,96.09c0,.18-.13.34-.32.35l-6.39.29c-.18,0-.34-.13-.34-.31h0c0-.18.13-.34.32-.35l6.39-.29c.18,0,.34.13.35.32h0Z"/>
            <path class="cls-13" d="m66.22,97.26c0,.18-.13.34-.32.35l-1.76.08c-.18,0-.34-.13-.34-.32h0c0-.18.13-.34.31-.35l1.76-.08c.18,0,.34.13.35.32h0Z"/>
            <path class="cls-13" d="m67.34,97.2c.01.24-.18.44-.42.46-.24.01-.44-.18-.46-.42-.01-.24.17-.44.42-.45.24-.01.44.18.46.42Z"/>
            <path class="cls-13" d="m70.02,97.08c0,.18-.13.34-.32.35l-1.76.08c-.18,0-.34-.13-.34-.32h0c0-.18.13-.34.31-.34l1.76-.08c.18,0,.34.13.34.32h0Z"/>
          </g>
        </g>
      </g>
    </g>
  </g>
</svg>