<?xml version="1.0" encoding="UTF-8"?>
<svg xmlns="http://www.w3.org/2000/svg" viewBox="0 0 117.91 51.91">
  <defs>
    <style>
      .cls-1 {
        fill: #ed6d05;
      }

      .cls-1, .cls-2, .cls-3, .cls-4, .cls-5, .cls-6, .cls-7, .cls-8, .cls-9, .cls-10, .cls-11, .cls-12, .cls-13 {
        stroke-width: 0px;
      }

      .cls-2 {
        fill: #e94e1b;
      }

      .cls-3 {
        fill: #352e35;
      }

      .cls-4 {
        fill: #949494;
      }

      .cls-5 {
        fill: #1d171b;
      }

      .cls-14 {
        isolation: isolate;
      }

      .cls-6 {
        fill: #f18815;
      }

      .cls-7 {
        fill: #bebebe;
      }

      .cls-8 {
        fill: #dadada;
      }

      .cls-9 {
        fill: #dfd3da;
        mix-blend-mode: multiply;
      }

      .cls-10 {
        fill: #706f6f;
      }

      .cls-11 {
        fill: #fff;
        mix-blend-mode: soft-light;
      }

      .cls-12 {
        fill: #283e44;
      }

      .cls-13 {
        fill: #ffcd00;
      }
    </style>
  </defs>
  <g class="cls-14">
    <g id="Layer_2" data-name="Layer 2">
      <g id="Capa_1" data-name="Capa 1">
        <g>
          <path class="cls-8" d="m57.24,0h-8.75c-1.25,0-2.51,4.01-2.51,4.01h14.37s-.89-4.01-3.11-4.01Z"/>
          <path class="cls-7" d="m48.49,0c-1.25,0-2.51,4.01-2.51,4.01h5.43s-1.67-4.01-2.92-4.01Z"/>
          <path class="cls-13" d="m85.8,14.85c-3.13-1.27-9.19-6.14-14.87-9.37-3.34-1.91-5.74-2.16-5.74-2.16,0,0-32.12.51-33.28.51-6.13,0-26.52,10.7-26.52,10.7l-2.58.31s-.57,1.87-.99,3.61c-.25,1.02-1.81,2-1.81,2.53v13.7c0,1.38,4.63,6.83,6.16,6.83h101.16c3.41,0,7.5-5.23,9.54-7.73,1.25-1.52,1.23-4.69-.58-8.33-3.89-7.83-27.43-9.37-30.49-10.61Z"/>
          <path class="cls-12" d="m77.24,14.9c-2.43-3.05-5.51-6.24-7.81-8.88-.46-.75.21-1.29,1.5-.55,5.18,2.95,11.97,7.9,15.5,9.71,0,0,.74,1.46-.58,1.46h-5.21c-1.6,0-2.5-.61-3.4-1.74Z"/>
          <path class="cls-9" d="m117.57,31.16c-.05,1.16-.27,2.1-.7,2.63-2.05,2.5-6.14,7.73-9.54,7.73H6.16c-1.53,0-6.16-5.46-6.16-6.83v-3.52h117.57Z"/>
          <path class="cls-1" d="m32,41.51c0-6.84-5.57-12.39-12.43-12.39s-12.43,5.55-12.43,12.39h24.87Z"/>
          <g>
            <path class="cls-3" d="m9.17,41.51c0,5.74,4.65,10.4,10.4,10.4s10.4-4.66,10.4-10.4-4.66-10.4-10.4-10.4-10.4,4.65-10.4,10.4Z"/>
            <path class="cls-10" d="m13.49,41.51c0,3.36,2.72,6.08,6.08,6.08s6.08-2.72,6.08-6.08-2.72-6.08-6.08-6.08-6.08,2.72-6.08,6.08Z"/>
          </g>
          <path class="cls-1" d="m101.76,41.51c0-7-5.7-12.67-12.72-12.67s-12.72,5.67-12.72,12.67h25.44Z"/>
          <path class="cls-3" d="m78.7,41.51c0,5.74,4.65,10.4,10.4,10.4s10.4-4.66,10.4-10.4-4.65-10.4-10.4-10.4-10.4,4.65-10.4,10.4Z"/>
          <path class="cls-10" d="m83.02,41.51c0,3.36,2.72,6.08,6.08,6.08s6.08-2.72,6.08-6.08-2.72-6.08-6.08-6.08-6.08,2.72-6.08,6.08Z"/>
          <path class="cls-4" d="m84.27,41.51c0,2.67,2.16,4.83,4.83,4.83s4.83-2.16,4.83-4.83-2.16-4.83-4.83-4.83-4.83,2.16-4.83,4.83Z"/>
          <path class="cls-4" d="m14.74,41.51c0,2.67,2.16,4.83,4.83,4.83s4.83-2.16,4.83-4.83-2.16-4.83-4.83-4.83-4.83,2.16-4.83,4.83Z"/>
          <path class="cls-2" d="m110.61,30.9c1.82.74,6.32.84,6.94.61.62-.23.42-5.03-.42-4.89-.84.13-4.96.76-7.42,1.53-1.96.62-.92,2,.9,2.74Z"/>
          <path class="cls-6" d="m109.71,28.16c.65-.2,1.41-.39,2.19-.57.15,1.44.8,2.81,1.83,3.92-1.19-.11-2.37-.31-3.11-.61-1.82-.74-2.86-2.13-.9-2.74Z"/>
          <path class="cls-3" d="m38.06,22.54c0,.63.51,1.15,1.15,1.15h5.63c.63,0,1.15-.51,1.15-1.15h0c0-.63-.51-1.15-1.15-1.15h-5.63c-.63,0-1.15.51-1.15,1.15h0Z"/>
          <path class="cls-5" d="m39.05,22.26c0,.47.39.86.86.86h4.22c.47,0,.86-.38.86-.86h0c0-.47-.38-.86-.86-.86h-4.22c-.47,0-.86.39-.86.86h0Z"/>
          <path class="cls-2" d="m0,26.71c1.16.16,4.63.64,6.78,1.23,1.86.51.87,1.65-.85,2.25-1.41.5-4.52.65-5.92.58v-4.06Z"/>
          <path class="cls-6" d="m6.78,27.94c-.61-.17-1.33-.32-2.07-.47-.14,1.18-.76,2.31-1.73,3.23,1.12-.09,2.25-.25,2.95-.5,1.72-.61,2.71-1.75.85-2.25Z"/>
          <path class="cls-12" d="m47.82,5.69v13.14h23.07l.36-.82,1.62-3.72s-4.29-6.75-4.75-7.62c-.45-.88-1.34-.98-1.96-.98h-18.34Z"/>
          <path class="cls-12" d="m28.24,18.83h16.75V5.69h-13.31c-.33,0-.77.06-1.11.45-.12.12-.23.31-.32.53-.06.17-.21.51-.4.95-.84,1.89-2.59,5.7-3.04,6.67-.55,1.2.28,4.54,1.43,4.54Z"/>
          <path class="cls-12" d="m17.2,18.83c-2.69-2.19-5.14-4.69-5.14-4.69,1.93-.75,17.4-8.01,17.4-8.01,0,0-5.75,8.36-7.01,10.51-1.18,2-3.25,3.81-5.25,2.19Z"/>
          <path class="cls-9" d="m73.27,17.46c-.32,2.08-.58,3.77.69,3.94.7.09,2.99-1.33,3.31-3.41.32-2.08-1.46-4.04-2.16-4.14-1.26-.17-1.52,1.52-1.84,3.6Z"/>
          <polygon class="cls-11" points="54.78 5.69 67.82 18.83 70.9 18.83 71.25 18.02 59.02 5.69 54.78 5.69"/>
          <polygon class="cls-11" points="50.04 5.69 63.07 18.83 65.54 18.83 52.52 5.69 50.04 5.69"/>
          <polygon class="cls-11" points="31.9 5.69 41.36 18.83 44.44 18.83 34.98 5.69 31.9 5.69"/>
          <path class="cls-11" d="m29.85,7.63l8.06,11.2h1.8l-9.13-12.69c-.12.12-.23.31-.32.53-.06.17-.21.51-.4.95Z"/>
          <g>
            <rect class="cls-12" x="29.69" y="28.71" width="2.41" height="2.41"/>
            <rect class="cls-12" x="32.1" y="31.12" width="2.41" height="2.41"/>
            <rect class="cls-12" x="34.5" y="28.71" width="2.41" height="2.41"/>
            <rect class="cls-12" x="36.91" y="31.12" width="2.41" height="2.41"/>
            <rect class="cls-12" x="39.32" y="28.71" width="2.41" height="2.41"/>
            <rect class="cls-12" x="41.73" y="31.12" width="2.41" height="2.41"/>
            <rect class="cls-12" x="44.13" y="28.71" width="2.41" height="2.41"/>
            <rect class="cls-12" x="46.54" y="31.12" width="2.41" height="2.41"/>
            <rect class="cls-12" x="48.95" y="28.71" width="2.41" height="2.41"/>
            <rect class="cls-12" x="51.35" y="31.12" width="2.41" height="2.41"/>
            <rect class="cls-12" x="53.76" y="28.71" width="2.41" height="2.41"/>
            <rect class="cls-12" x="56.17" y="31.12" width="2.41" height="2.41"/>
            <rect class="cls-12" x="58.57" y="28.71" width="2.41" height="2.41"/>
            <rect class="cls-12" x="60.98" y="31.12" width="2.41" height="2.41"/>
            <rect class="cls-12" x="63.39" y="28.71" width="2.41" height="2.41"/>
            <rect class="cls-12" x="65.79" y="31.12" width="2.41" height="2.41"/>
            <rect class="cls-12" x="68.2" y="28.71" width="2.41" height="2.41"/>
            <rect class="cls-12" x="70.61" y="31.12" width="2.41" height="2.41"/>
            <rect class="cls-12" x="73.02" y="28.71" width="2.41" height="2.41"/>
            <rect class="cls-12" x="75.42" y="31.12" width="2.41" height="2.41"/>
          </g>
        </g>
      </g>
    </g>
  </g>
</svg>