<?xml version="1.0" encoding="UTF-8"?>
<svg id="Layer_2" data-name="Layer 2" xmlns="http://www.w3.org/2000/svg" viewBox="0 0 2692.57 2151.44">
  <defs>
    <style>
      .cls-1 {
        fill: #6b184e;
      }

      .cls-1, .cls-2, .cls-3, .cls-4, .cls-5 {
        stroke-width: 0px;
      }

      .cls-6 {
        opacity: .4;
      }

      .cls-2 {
        fill: #1e276a;
      }

      .cls-3 {
        fill: #fff;
      }

      .cls-7 {
        opacity: .3;
      }

      .cls-8 {
        opacity: .55;
      }

      .cls-4 {
        fill: #e03d6b;
      }

      .cls-5 {
        fill: #22a7f0;
      }
    </style>
  </defs>
  <g id="Layer_1-2" data-name="Layer 1">
    <g>
      <path class="cls-5" d="m339.99,297.16L23.43,1414.7c-12.97,45.79,22.98,90.61,70.53,88.28,315.35-15.6,594.62,52.31,877.82,215.24,37.97,21.84,67.59,56.65,79.89,98.68,12.27,42.14,45.37,77.24,90.67,90.07,45.41,12.86,92.01.28,124.65-29.26,32.19-29.2,75.61-42.91,119-40.42,238.15,13.74,473.03,80.86,688.12,186.52,59.66,29.26,117.84,61.49,174.09,96.38,39.25,24.3,90.91,4.4,103.51-40.09l317.54-1120.99c7.77-27.43-1.93-57.01-24.77-74.2-21.67-16.35-43.37-32-65.14-46.97-350.62-241.63-712.01-308.07-1062.25-253.95C1171.87,313.45,782.49,196.5,398.14,247.14c-27.63,3.66-50.54,23.19-58.15,50.02Z"/>
      <g class="cls-7">
        <path class="cls-2" d="m339.99,297.16L23.43,1414.7c-12.97,45.79,22.98,90.61,70.53,88.28,315.35-15.6,594.62,52.31,877.82,215.24,37.97,21.84,67.59,56.65,79.89,98.68,12.27,42.14,45.37,77.24,90.67,90.07,45.41,12.86,92.01.28,124.65-29.26,32.19-29.2,75.61-42.91,119-40.42,123.84,7.14,246.8,28.73,366.5,62.64,6.37,1.8,12.78,3.68,19.14,5.54,4.74,1.4,9.47,2.8,14.19,4.25,4.99,1.53,9.93,3.05,14.9,4.63,4.83,1.48,9.64,3.02,14.46,4.56,6.15,1.97,12.33,4.02,18.52,6.06.63.24,1.28.42,1.91.66,6.46,2.12,12.83,4.33,19.2,6.55.32.09.65.18.96.33,6.64,2.29,13.21,4.62,19.83,7.02,6.77,2.44,13.49,4.87,20.24,7.42,6.92,2.54,13.81,5.19,20.7,7.85,6.53,2.49,13.09,5.05,19.57,7.7,6.67,2.59,13.37,5.3,20,8.06,13.32,5.47,26.55,11.08,39.71,16.91,5.35,2.33,10.69,4.66,15.96,7.09,3.21,1.43,6.47,2.88,9.67,4.37,4.75,2.16,9.51,4.33,14.24,6.54,6.3,2.89,12.58,5.84,18.79,8.82.09.08.15.1.2.12,6.54,3.08,13,6.19,19.44,9.41l.05.02c59.66,29.26,117.78,61.48,174.04,96.37,39.25,24.3,90.91,4.4,103.51-40.09l2.89-10.2c-20.61,10.38-46.19,10.48-67.98-2.98-13.89-8.62-27.91-17.08-42.04-25.37-29.11-17.08-32.39-57.85-6.17-79.09l29.07-23.56,311.86-1100.96c-350.62-241.63-712.01-308.07-1062.25-253.95C1171.87,313.45,782.49,196.5,398.14,247.14c-8.05,1.04-15.67,3.43-22.63,7-.14.08-.26.1-.35.19-.89.45-1.79.95-2.69,1.46-2.7,1.51-5.29,3.23-7.69,5.11-1.03.76-2.01,1.53-2.93,2.32-2.36,1.96-4.62,4.17-6.68,6.51-.49.5-.93,1.02-1.38,1.59-2.51,2.9-4.77,6.12-6.76,9.46-1.09,1.79-2.03,3.68-2.92,5.59-.35.6-.65,1.27-.91,1.96-.42.87-.79,1.76-1.12,2.72-.35.83-.64,1.63-.92,2.42-.41,1.23-.81,2.45-1.16,3.69Z"/>
      </g>
      <g class="cls-8">
        <path class="cls-3" d="m2620.66,945.36l-317.54,1120.99c-8.27,29.21-33.38,47.82-60.78,50.26,1.94,1.19,3.93,2.4,5.87,3.59,39.25,24.3,90.91,4.4,103.51-40.09l317.54-1120.99c7.77-27.43-1.93-57.01-24.77-74.2-180.15-135.95-363.49-224.4-547.08-272.84,167.28,50.65,334.24,135.15,498.49,259.08,22.83,17.2,32.53,46.78,24.77,74.2Z"/>
      </g>
      <path class="cls-2" d="m2284.73,2151.44c-16.5,0-32.85-4.59-47.43-13.62-268.33-166.39-563.11-263.15-852.49-279.82-38.96-2.26-76.85,10.54-103.92,35.07-39.32,35.63-93.22,48.28-144.19,33.84-50.86-14.41-90.09-53.36-104.94-104.2-10.43-35.72-35.4-66.45-70.28-86.52-278.95-160.45-554.3-228-866.48-212.51-29.59,1.39-56.97-10.97-75.33-34.05-18.27-22.97-24.17-52.35-16.17-80.59L320.05,291.51h0c9.82-34.67,39.4-60.15,75.37-64.92,389-51.25,778.63,64.77,1127.4,335.57,403.8-60.09,785.33,42.92,1134.16,306.21,29.34,22.1,42.29,60.84,32.22,96.4l-317.54,1120.99c-7.78,27.47-27.5,49.16-54.12,59.48-10.68,4.15-21.78,6.2-32.81,6.2Zm-908.65-335.15c3.7,0,7.4.1,11.11.32,296.26,17.07,597.77,115.96,871.94,285.98,13.16,8.14,28.98,9.61,43.41,4.01,14.38-5.58,25.03-17.29,29.23-32.13l317.54-1120.99c5.44-19.21-1.51-40.11-17.29-52-342.12-258.21-716.15-358.13-1111.75-296.99-5.65.89-11.43-.63-15.95-4.17C1162.71,332.6,781.16,217.59,400.84,267.69c-19.54,2.59-35.6,16.38-40.91,35.12L43.37,1420.34c-4.32,15.23-1.13,31.08,8.73,43.48,9.96,12.51,24.91,19.3,40.85,18.45,320.49-15.83,603.05,53.39,889.19,217.99,44.21,25.42,75.96,64.79,89.41,110.83,10.82,37.06,39.4,65.44,76.45,75.94,37.11,10.51,76.39,1.29,105.05-24.67,32.64-29.58,76.97-46.06,123.03-46.06Z"/>
      <g>
        <path class="cls-3" d="m2184.36,1703.8c-317.16-284.91-771.86-267.58-994.66,36.11l323.56-1142.25c187.79-296.75,695.81-356.92,994.66-36.11l-323.56,1142.25Z"/>
        <path class="cls-2" d="m1182.75,1754.11l328.12-1157.95c87.83-138.78,251.64-232.02,438.19-249.39,212.05-19.76,416.47,57.83,560.9,212.87l1.08,1.15-.43,1.52-324.79,1146.58-3.35-3.01c-163.85-147.18-373.03-219.7-573.98-198.93-170.54,17.62-318.48,100.94-416.55,234.61l-9.2,12.54Zm333.09-1155.29l-319.36,1127.41c98.95-127.93,244.47-207.61,411.44-224.86,201.12-20.75,410.44,51.11,574.96,197.34l321.9-1136.41c-143.17-152.98-345.46-229.52-555.2-209.95-184.68,17.2-346.79,109.33-433.75,246.46Z"/>
      </g>
      <path class="cls-2" d="m1189.65,1760.65c-3.07,0-6.18-.68-9.09-2.1-9.01-4.4-13.57-14.62-10.84-24.27l323.56-1142.26c.54-1.92,1.36-3.75,2.43-5.43,90.8-143.45,259.66-239.77,451.71-257.65,217.58-20.26,427.43,59.38,575.66,218.5,4.94,5.31,6.75,12.8,4.78,19.78l-323.56,1142.26c-1.95,6.88-7.31,12.28-14.18,14.26-6.87,1.99-14.28.29-19.61-4.49-160.07-143.8-364.17-214.7-560.11-194.45-165.46,17.08-308.95,97.84-404.02,227.4-4.01,5.47-10.29,8.47-16.72,8.47Zm486.92-280.71c175.01,0,351.45,66.06,496.71,186.91l311.48-1099.6c-138.9-144.02-332.69-215.77-533.49-197.05-178.23,16.59-334.58,104.75-418.94,236.04l-297.25,1049.36c97.97-96.92,226.75-157.14,371.05-172.04,23.39-2.42,46.91-3.61,70.43-3.61Z"/>
      <g>
        <path class="cls-3" d="m1513.23,597.66l-323.56,1142.26c62.9-188.71,197.43-308.25,360.26-355.57l.02-.05c168.52-49.08,367.39-20.8,548.33,88.07l323.56-1142.26c-166.66-130.85-372.71-147.57-549.46-84.08-162.26,58.26-299.77,184.2-359.15,351.62Z"/>
        <path class="cls-2" d="m1192.32,1740.81l-5.36-1.66,323.62-1142.43c56.95-160.56,191.85-292.64,360.85-353.33,90.71-32.59,187.46-43.3,279.82-30.98,100.09,13.35,191.71,52.21,272.31,115.49l1.48,1.16-325.08,1147.61-3.14-1.89c-175.16-105.4-373.57-137.51-544.62-88.21l-1.49.48c-171.69,49.89-298.97,175.52-358.38,353.76Zm323.58-1142.3l-307.08,1084.06c66.28-149.61,184.78-255.24,338.81-300.47h0s1.52-.5,1.52-.5c171.88-50.05,371.19-18.53,547.41,86.48l322.05-1136.93c-155.32-121.14-353.95-151.23-545.29-82.48-167.4,60.11-301.02,190.89-357.42,349.83Z"/>
      </g>
      <path class="cls-2" d="m1189.7,1760.64c-2.02,0-4.08-.3-6.11-.92-10.76-3.32-16.91-14.62-13.84-25.46l323.56-1142.25c.12-.43.26-.86.41-1.28,63.82-179.93,216.96-320.71,409.63-376.57,187.65-54.41,381.29-18.09,531.27,99.64,6.61,5.19,9.43,13.86,7.14,21.95l-323.56,1142.25c-1.76,6.21-6.31,11.25-12.32,13.62-6,2.37-12.77,1.82-18.31-1.51-185.74-111.74-392.55-138.79-567.43-74.2-147.57,54.5-257.95,171.89-310.81,330.55-2.89,8.67-10.97,14.18-19.66,14.18Zm343.31-1156.67l-269.51,951.45c62.37-81.14,144.81-142.38,242.3-178.39,179.38-66.25,389.3-42.77,579.8,64l312.45-1103.02c-137.75-102.69-313.02-133.36-483.15-84.03-179.67,52.09-322.38,182.89-381.89,349.99Z"/>
      <g>
        <path class="cls-3" d="m1189.66,1739.92c334.66-187.14,694.72-17.55,1077.82,198.98l-83.13-235.09c-317.18-284.94-771.84-267.57-994.69,36.11Z"/>
        <path class="cls-2" d="m2272.62,1945.04l-6.52-3.69c-375-211.97-739.4-386.69-1075.07-198.97l-11.27,6.3,7.64-10.41c99.05-134.98,248.42-219.11,420.58-236.88,202.49-20.9,413.25,52.12,578.25,200.35l.53.47.24.67,85.62,242.16Zm-773.16-288.2c245.33,0,501.54,128.49,762.88,275.94l-80.39-227.35c-163.75-146.85-372.69-219.19-573.39-198.47-166.13,17.15-310.81,96.64-408.87,224.29,97.75-52.22,197.85-74.41,299.77-74.41Z"/>
      </g>
      <g>
        <polygon class="cls-3" points="2507.92 561.55 2184.35 1703.81 2267.48 1938.9 2579.31 838.05 2507.92 561.55"/>
        <path class="cls-2" d="m2267.77,1948.16l-86.36-244.25.24-.86,326.39-1152.23,74.17,287.28-.2.73-314.24,1109.34Zm-80.47-244.44l79.89,225.93,309.22-1091.63-68.62-265.73-320.49,1131.43Z"/>
      </g>
      <path class="cls-2" d="m2267.48,1959.63c-3.5,0-7.01-.88-10.2-2.69-370.38-209.35-729.96-382.09-1057.5-198.94-8.52,4.77-19.19,2.94-25.65-4.37s-6.95-18.12-1.18-25.99c102.08-139.11,255.93-225.81,433.18-244.11,207.54-21.45,423.3,53.24,592.07,204.84,2.58,2.32,4.53,5.24,5.69,8.51l83.12,235.09c2.88,8.15.4,17.23-6.22,22.79-3.82,3.2-8.55,4.85-13.33,4.85Zm-767.94-320.93c236.02,0,480.64,116.35,730.04,255.16l-62.98-178.13c-159.48-141.46-361.86-211.05-556.19-190.95-132.06,13.63-250.11,67.83-340.73,155.01,75.59-28.52,152.27-41.09,229.87-41.09Z"/>
      <path class="cls-2" d="m2267.48,1959.63c-8.75,0-16.6-5.52-19.54-13.82l-83.12-235.09c-1.43-4.04-1.57-8.43-.4-12.56l323.56-1142.26c2.55-9.01,10.65-15.01,20.19-15.08,9.36.11,17.49,6.48,19.82,15.54l71.4,276.51c.92,3.56.87,7.29-.13,10.83l-311.84,1100.85c-2.46,8.69-10.26,14.78-19.28,15.07-.22,0-.44,0-.66,0Zm-61.38-256.51l59.2,167.44,292.55-1032.76-50.85-196.94-300.9,1062.25Z"/>
      <g>
        <path class="cls-3" d="m685.3,45.26l-323.56,1142.26c249.71-45.39,484.78,25.98,640.56,170.37,105.87,98.17,175.06,230.1,187.37,382.03l323.56-1142.26c-1.75-146.19-72.32-286.62-184.59-392.26l-.05-.02C1171.25,57.23,931.95-22.69,685.3,45.26Z"/>
        <path class="cls-2" d="m1188.12,1755.65l-1.26-15.51c-11.88-146.62-76.37-278.09-186.48-380.2-161.33-149.54-399.91-212.96-638.14-169.66l-4.43.81,1.23-4.33L683.03,42.98l1.52-.42c117.09-32.25,240.4-32.59,356.63-.98,107.91,29.35,207.76,85.11,288.82,161.28l.57.49c116.18,109.32,183.78,253.03,185.47,394.27v.41s-.11.39-.11.39l-327.8,1157.23Zm-678.59-584.34c187.81,0,365.68,64.96,494.67,184.52,107.4,99.59,171.8,226.86,186.86,368.87l319.36-1127.41c-1.79-139.39-68.54-281.25-183.19-389.37l-.56-.49C1154.21,45.04,915.42-14.67,687.57,47.55l-321.91,1136.42c48.16-8.49,96.35-12.65,143.88-12.65Z"/>
      </g>
      <path class="cls-2" d="m1189.68,1760.65c-.67,0-1.35-.03-2.04-.1-9.98-.98-17.83-8.96-18.64-18.96-12.98-160.15-92.76-304.15-224.66-405.47-156.17-119.97-367.18-166.69-578.9-128.21-7.06,1.27-14.24-1.16-19.05-6.46-4.81-5.3-6.55-12.7-4.6-19.59L665.36,39.61c1.98-6.97,7.45-12.41,14.44-14.33,209.67-57.74,430.1-15.51,604.76,115.89,154.12,115.95,247.35,286.51,249.4,456.24.02,1.99-.24,3.98-.78,5.9l-323.56,1142.26c-2.54,8.99-10.75,15.08-19.93,15.08Zm-679.26-607.36c169.77,0,331.57,51.93,459.18,149.96,115.01,88.35,193.05,207.14,225.62,341.02l297.24-1049.34c-2.94-156-89.8-313.04-232.83-420.64C1098.45,53.02,895.83,12.48,702.03,62.26l-311.48,1099.6c40.16-5.73,80.24-8.56,119.87-8.56Z"/>
      <g class="cls-6">
        <path class="cls-2" d="m1654.22,509.59c149.43-133.71,380.32-173.35,564.41-92.24,2.36,1.06,3.42,3.83,2.37,6.19-.96,2.16-3.37,3.22-5.57,2.59-47.12-13.38-95.12-21.84-143.37-24.43-96.43-4.94-193.24,12.16-282.7,48.59-44.91,17.91-87.9,40.67-129.48,66.75-4.41,2.89-10.06-3.42-5.66-7.45h0Z"/>
      </g>
      <g class="cls-6">
        <path class="cls-2" d="m2037.86,502.72c38.21-6.47,77.21,1.57,113.01,15.01,11.91,4.65,23.55,10.04,34.44,17.02,3.42,2.05,1.34,7.67-2.57,7.03-37.01-5.52-72.88-13.21-109.29-21.22-12.01-2.95-24.06-5.94-36.18-10.38-3.65-1.19-3.17-6.88.59-7.46h0Z"/>
      </g>
      <g class="cls-6">
        <path class="cls-2" d="m1621.21,626.12c75.67-77.04,196.31-122.5,303.69-122.31,5.37.04,6.38,8.04,1.06,9.29-52.44,12.65-104.43,28.17-154.14,48.79-24.75,10.25-49.02,21.56-73.04,33.62-24.1,11.96-47.65,25.09-71.92,38.06-4.55,2.53-9.42-3.66-5.66-7.45h0Z"/>
      </g>
      <g class="cls-6">
        <path class="cls-2" d="m1585.84,750.96c149.43-133.71,380.32-173.35,564.41-92.24,2.36,1.06,3.42,3.83,2.37,6.19-.96,2.16-3.37,3.22-5.57,2.59-47.12-13.38-95.12-21.84-143.37-24.43-96.43-4.94-193.24,12.16-282.7,48.59-44.91,17.91-87.9,40.67-129.48,66.75-4.41,2.89-10.06-3.42-5.66-7.45h0Z"/>
      </g>
      <g class="cls-6">
        <path class="cls-2" d="m1551.99,870.48c149.43-133.71,380.32-173.35,564.41-92.24,2.36,1.06,3.42,3.83,2.37,6.19-.96,2.16-3.37,3.22-5.57,2.59-47.12-13.38-95.12-21.84-143.37-24.43-96.43-4.94-193.24,12.16-282.7,48.59-44.91,17.91-87.9,40.67-129.48,66.75-4.41,2.89-10.06-3.42-5.66-7.45h0Z"/>
      </g>
      <g class="cls-6">
        <path class="cls-2" d="m1702.59,964.84c112.61-47.82,248.03-42.12,357.89,10.8,4.85,2.41,2.17,10.11-3.21,8.79-86.3-21.47-175-28.84-263.48-20.83-29.43,2.27-58.75,6.29-88.65,10.24-5.2.78-7.53-6.88-2.55-9h0Z"/>
      </g>
      <g class="cls-6">
        <path class="cls-2" d="m1496.64,1068.63c11.1-16.65,26.63-28.74,43.43-38.88,16.83-9.93,34.66-18.06,54.07-21.77,3.72-.8,6.18,4.23,3.35,6.69-21.4,19.08-44.9,34.51-69.77,48.43-8.38,4.36-16.91,8.54-26.55,11.49-3.43,1.19-6.57-3.02-4.53-5.96h0Z"/>
      </g>
      <g class="cls-6">
        <path class="cls-2" d="m1455.81,1210.02c149.43-133.71,380.32-173.35,564.41-92.24,2.36,1.06,3.42,3.83,2.37,6.19-.96,2.16-3.37,3.22-5.57,2.59-47.12-13.38-95.12-21.84-143.37-24.43-96.43-4.94-193.24,12.16-282.7,48.59-44.91,17.91-87.9,40.67-129.48,66.75-4.41,2.89-10.06-3.42-5.66-7.45h0Z"/>
      </g>
      <g class="cls-6">
        <path class="cls-2" d="m1434.35,599.42c-51.26-107.54-125.75-202.34-219.12-276.12-30.97-24.7-63.89-47.05-98.11-68-2.22-1.35-2.92-4.23-1.57-6.45,1.2-1.98,3.64-2.74,5.73-1.93,113.81,45.71,212.78,130.27,275.22,235.99,20.53,35.58,37.05,73.63,46.67,113.36,1.21,5.26-6.27,8.27-8.81,3.15h0Z"/>
        <path class="cls-2" d="m1403.51,708.29c-52.19-110.08-129.21-206.63-225.63-280.86-31.99-24.85-66-47.2-101.36-68-2.24-1.31-2.99-4.18-1.69-6.42,1.17-2,3.61-2.81,5.71-2.03,117.03,45.09,219.21,130.66,283.62,238.44,21.19,36.27,38.23,75.12,48.15,115.72,1.22,5.26-6.27,8.29-8.81,3.15h0Z"/>
        <path class="cls-2" d="m994.28,508.37c-25.45-3.32-49.2-10.3-73.51-17.44-24.16-7.31-48.06-14.26-71.78-23.55-3.75-1.36-2.75-7.3,1.21-7.38,38.76-1.34,77.53,7.09,113.13,22.1,11.78,5.29,23.26,11.32,33.76,19.34,3.13,2.24.94,7.52-2.82,6.93h0Z"/>
        <path class="cls-2" d="m1356.61,873.85c-60.75-124.92-150.06-230.2-261.3-313.05-4.36-3.26-.11-10.49,4.92-7.95,124.89,63.23,231.76,180.02,265.19,317.86,1.18,5.21-6.35,8.11-8.81,3.15h0Z"/>
        <path class="cls-2" d="m1321.44,998c-68.71-154.63-195.45-279.07-347.95-350.68-50.79-24-104.45-42.09-159.82-54.86-2.52-.57-4.11-3.08-3.54-5.6.53-2.33,2.73-3.86,5.05-3.63,57.34,5.91,113.94,20.85,167.61,42.96,107.42,44.36,203.64,118.18,271.5,212.82,33.71,47.44,60.53,100.09,75.94,155.84,1.3,5.24-6.17,8.63-8.81,3.15h0Z"/>
        <path class="cls-2" d="m1287.55,1117.64c-68.71-154.63-195.45-279.07-347.95-350.68-50.79-24-104.45-42.1-159.82-54.86-2.52-.57-4.11-3.08-3.54-5.6.53-2.33,2.73-3.86,5.05-3.63,57.34,5.91,113.94,20.85,167.61,42.96,107.42,44.36,203.64,118.18,271.5,212.82,33.71,47.44,60.53,100.09,75.94,155.84,1.3,5.24-6.17,8.63-8.81,3.15h0Z"/>
        <path class="cls-2" d="m1235.51,1404.23c-68.71-154.63-195.45-279.07-347.95-350.68-50.79-24-104.45-42.09-159.82-54.86-2.52-.57-4.11-3.08-3.54-5.6.53-2.33,2.73-3.86,5.05-3.63,57.34,5.91,113.94,20.85,167.61,42.96,107.42,44.36,203.64,118.18,271.5,212.82,33.71,47.44,60.53,100.09,75.94,155.84,1.3,5.24-6.17,8.63-8.81,3.15h0Z"/>
        <path class="cls-2" d="m1036.21,221.86c-48.97-12.39-96.36-28-147.46-26.21-2.1-.03-3.78-1.75-3.75-3.85.02-1.53.94-2.83,2.25-3.42,12.36-5.5,25.91-8.79,39.54-9.64,13.61-.89,27.38-.07,40.67,2.59,13.31,2.55,26.29,6.56,38.54,12.13,12.3,5.77,23.91,12.5,33.93,21.92,1.53,1.48,1.58,3.92.1,5.45-1.03,1.06-2.5,1.4-3.83,1.04h0Z"/>
      </g>
      <g>
        <path class="cls-3" d="m167.66,1344.09c439.75,16.55,835.26,60.98,1022,395.82-30.43-375.42-408.43-628.66-827.93-552.39l-194.07,156.57Z"/>
        <path class="cls-2" d="m1193.5,1752.57l-6.29-11.28c-187.3-335.84-589.19-378.19-1019.66-394.39l-7.49-.28,200.46-161.73.7-.13c218.27-39.68,436.02,8.69,597.45,132.7,137.24,105.42,220.26,255.38,233.78,422.24l1.04,12.87Zm-1018.25-410.99c424.43,16.29,820.2,59.58,1010.42,385.7-16.53-160.08-98-303.64-230.42-405.36-160-122.91-375.87-170.91-592.32-131.76l-187.69,151.42Z"/>
      </g>
      <g>
        <polygon class="cls-3" points="479.5 243.24 167.66 1344.09 361.73 1187.53 685.3 45.26 479.5 243.24"/>
        <path class="cls-2" d="m162.56,1351.82l2.4-8.49L477.01,241.75l.55-.52,213.27-205.17-2.82,9.97-323.81,1143.12-.69.56-200.94,162.11ZM481.99,244.74L172.76,1336.37l186.51-150.47L679.77,54.47l-197.79,190.27Z"/>
      </g>
      <g class="cls-7">
        <path class="cls-2" d="m167.66,1344.09c439.75,16.55,835.26,60.98,1022,395.82-30.43-375.42-408.43-628.66-827.93-552.39l-194.07,156.57Z"/>
      </g>
      <g class="cls-7">
        <polygon class="cls-2" points="479.5 243.24 167.66 1344.09 361.73 1187.53 685.3 45.26 479.5 243.24"/>
      </g>
      <path class="cls-2" d="m1189.66,1760.65c-7.36,0-14.37-3.94-18.1-10.63-182.77-327.71-579.53-369.21-1004.68-385.21-8.64-.33-16.17-5.98-18.89-14.18-2.72-8.2-.07-17.24,6.66-22.67l194.07-156.57c2.7-2.17,5.89-3.64,9.31-4.26,223.21-40.59,446.13,9.03,611.57,136.12,141.3,108.54,226.79,263.03,240.73,435,.79,9.72-5.31,18.67-14.64,21.51-1.99.61-4.02.89-6.02.89Zm-966.1-435.02c378.88,16.76,729.91,62.89,929.53,321.15-31.41-121.75-103.48-229.79-208.75-310.65-154.9-118.99-363.73-165.94-573.73-129.13l-147.05,118.64Z"/>
      <path class="cls-2" d="m167.66,1364.82c-3.96,0-7.94-1.14-11.42-3.44-7.53-4.98-10.98-14.25-8.52-22.94L459.56,237.6c1-3.54,2.92-6.74,5.57-9.29L670.93,30.33c6.75-6.49,17.01-7.65,25.03-2.84,8.03,4.82,11.83,14.42,9.28,23.42l-323.56,1142.26c-1.17,4.13-3.59,7.79-6.93,10.48l-194.07,156.57c-3.78,3.05-8.39,4.59-13.02,4.59ZM497.91,254.29L205.36,1287.05l138.23-111.52L644.49,113.28l-146.58,141.01Z"/>
      <g class="cls-7">
        <path class="cls-1" d="m1995.81,1987.46c-13.16-5.83-26.39-11.44-39.71-16.91,13.31,5.52,26.53,11.13,39.71,16.91Z"/>
        <path class="cls-2" d="m1994.69,1990.03c-12.45-5.45-25.42-10.98-39.66-16.88l2.14-5.19c14.12,5.8,27.13,11.34,39.78,16.94h0s0,0,0,0l-2.27,5.13Z"/>
      </g>
      <g class="cls-7">
        <path class="cls-2" d="m1328.58,205.38l-324.25,1144.69s-.73,2.77-2.04,7.82c105.87,98.17,175.06,230.1,187.37,382.03l323.56-1142.26c-1.75-146.19-72.32-286.62-184.59-392.26l-.05-.02Z"/>
      </g>
      <g class="cls-7">
        <path class="cls-2" d="m1940.24,1398.87l-39.2,138.38c-254.07-79.57-479.67-33.08-673.1,155.81,123.14-289.86,360.58-387.92,712.3-294.19Z"/>
      </g>
      <g class="cls-7">
        <path class="cls-2" d="m1513.23,597.66l-323.56,1142.26c62.9-188.71,197.43-308.25,360.26-355.57L1872.38,246.03c-162.26,58.26-299.77,184.2-359.15,351.62Z"/>
      </g>
      <polygon class="cls-4" points="1770.29 1608.03 1916.03 1649.31 1851.81 1876.01 1793.04 1805.61 1706.08 1834.73 1770.29 1608.03"/>
      <g class="cls-8">
        <polygon class="cls-3" points="1717.93 1792.88 1706.07 1834.72 1793.02 1805.61 1851.83 1876.01 1863.69 1834.17 1804.87 1763.76 1717.93 1792.88"/>
      </g>
      <path class="cls-2" d="m1851.81,1892.84c-4.93,0-9.69-2.17-12.92-6.04l-51.41-61.58-76.05,25.46c-5.92,1.97-12.45.53-16.97-3.78-4.52-4.31-6.28-10.77-4.58-16.77l64.21-226.7c2.53-8.95,11.86-14.14,20.79-11.61l145.73,41.28c8.95,2.53,14.14,11.84,11.61,20.79l-64.21,226.7c-1.7,6.01-6.59,10.58-12.69,11.88-1.17.25-2.34.37-3.51.37Zm-58.78-104.07c4.9,0,9.67,2.14,12.93,6.04l38.34,45.93,50.94-179.83-113.33-32.1-50.94,179.83,56.72-18.99c1.76-.59,3.56-.87,5.34-.87Z"/>
    </g>
  </g>
</svg>